<svg width="88" height="88" viewBox="0 0 88 88" fill="none" xmlns="http://www.w3.org/2000/svg">
<path d="M73.5282 33.0387V65.5082C73.5282 66.7246 72.5447 67.7082 71.3282 67.7082H16.6776C15.4611 67.7082 14.4776 66.7246 14.4776 65.5082V30.567C14.4776 29.3505 15.4611 28.367 16.6776 28.367H45.6141V22.5176H14.2705C11.1517 22.5176 8.62817 25.0411 8.62817 28.1599V71.3705H79.3776V33.0387H73.5282Z" fill="url(#paint0_linear_2812_3103)"/>
<path d="M85.3825 73.4797C84.9166 72.7679 84.1401 72.3408 83.286 72.3408H4.72013C3.86601 72.3408 3.08957 72.7679 2.62367 73.4797C2.1578 74.1914 2.09307 75.0844 2.4166 75.7961L3.54248 79.562C4.61662 81.9691 7.01075 83.5091 9.6378 83.5091H78.3554C80.9695 83.5091 83.3637 81.9691 84.4766 79.5102L85.5766 75.822C85.9131 75.0585 85.8354 74.1785 85.3825 73.4797ZM50.6872 79.4973H37.319C36.439 79.4973 35.7401 78.7855 35.7401 77.9185C35.7401 77.0514 36.439 76.3397 37.319 76.3397H50.6872C51.5543 76.3397 52.266 77.0514 52.266 77.9185C52.266 78.7855 51.5543 79.4973 50.6872 79.4973Z" fill="url(#paint1_linear_2812_3103)"/>
<path d="M33.357 49.138C29.4979 49.138 26.3584 45.5183 26.3584 41.0678C26.3584 36.6187 29.4979 32.999 33.357 32.999C37.2173 32.999 40.3582 36.6187 40.3582 41.0678C40.3582 45.5183 37.2173 49.138 33.357 49.138Z" fill="url(#paint2_linear_2812_3103)"/>
<path d="M44.9237 63.0842H21.7927C21.4096 63.0842 21.0408 62.9238 20.7807 62.6442C20.5193 62.3634 20.3859 61.9843 20.4131 61.6025L20.8467 55.5512C21.0912 52.149 23.9525 49.4844 27.3639 49.4844H39.3525C42.7638 49.4844 45.6251 52.149 45.8684 55.5512L46.3019 61.6025C46.3292 61.9843 46.1958 62.3634 45.9357 62.6442C45.6756 62.9238 45.3055 63.0842 44.9237 63.0842Z" fill="url(#paint3_linear_2812_3103)"/>
<path d="M83.5579 5.52553C82.885 4.89141 81.9791 4.49023 80.9568 4.49023H50.3897C48.2932 4.49023 46.585 6.21141 46.585 8.30788V28.2502C46.585 28.4573 46.5979 28.6514 46.6368 28.8455C46.9214 30.6702 48.5003 32.0679 50.3897 32.0679H50.6227C51.6838 32.0679 52.5379 32.922 52.5379 33.9702V38.5902C52.5379 39.9361 54.1686 40.635 55.1521 39.6773L62.1921 32.6373C62.5544 32.2749 63.0332 32.0679 63.5379 32.0679H80.9568C83.0661 32.0679 84.7744 30.3597 84.7744 28.2502V8.30788C84.7744 7.20789 84.3085 6.22435 83.5579 5.52553ZM55.8897 20.9643C54.3238 20.9643 53.0685 19.6961 53.0685 18.1302C53.0685 16.5644 54.3238 15.3091 55.8897 15.3091C57.4556 15.3091 58.7238 16.5644 58.7238 18.1302C58.7238 19.6961 57.4556 20.9643 55.8897 20.9643ZM65.6732 20.9643C64.1074 20.9643 62.852 19.6961 62.852 18.1302C62.852 16.5644 64.1074 15.3091 65.6732 15.3091C67.2391 15.3091 68.5073 16.5644 68.5073 18.1302C68.5073 19.6961 67.2391 20.9643 65.6732 20.9643ZM75.4568 20.9643C73.8909 20.9643 72.6356 19.6961 72.6356 18.1302C72.6356 16.5644 73.8909 15.3091 75.4568 15.3091C77.0226 15.3091 78.2908 16.5644 78.2908 18.1302C78.2908 19.6961 77.0226 20.9643 75.4568 20.9643Z" fill="url(#paint4_linear_2812_3103)"/>
<defs>
<linearGradient id="paint0_linear_2812_3103" x1="44.0029" y1="22.5176" x2="44.0029" y2="70.9995" gradientUnits="userSpaceOnUse">
<stop stop-color="#F7F8F8" stop-opacity="0.9"/>
<stop offset="1" stop-color="#F7F8F8" stop-opacity="0"/>
</linearGradient>
<linearGradient id="paint1_linear_2812_3103" x1="43.9998" y1="72.3408" x2="43.9998" y2="83.5091" gradientUnits="userSpaceOnUse">
<stop stop-color="#FF9252"/>
<stop offset="1" stop-color="#FF3F15"/>
</linearGradient>
<linearGradient id="paint2_linear_2812_3103" x1="33.3583" y1="32.999" x2="33.3583" y2="49.138" gradientUnits="userSpaceOnUse">
<stop stop-color="#F7F8F8" stop-opacity="0.8"/>
<stop offset="1" stop-color="#F7F8F8" stop-opacity="0"/>
</linearGradient>
<linearGradient id="paint3_linear_2812_3103" x1="33.3575" y1="49.4844" x2="33.3575" y2="63.0842" gradientUnits="userSpaceOnUse">
<stop stop-color="#F7F8F8" stop-opacity="0.8"/>
<stop offset="1" stop-color="#F7F8F8" stop-opacity="0"/>
</linearGradient>
<linearGradient id="paint4_linear_2812_3103" x1="65.6797" y1="4.49023" x2="65.6797" y2="40.1208" gradientUnits="userSpaceOnUse">
<stop stop-color="#FF9252"/>
<stop offset="1" stop-color="#FF3F15"/>
</linearGradient>
</defs>
</svg>
