<svg width="88" height="88" viewBox="0 0 88 88" fill="none" xmlns="http://www.w3.org/2000/svg">
<g clip-path="url(#clip0_2812_3142)">
<path fillRule="evenodd" clipRule="evenodd" d="M67.3117 29.8969H69.4246C72.5234 29.8969 75.0588 27.3614 75.0588 24.2626V7.35984C75.0588 4.2612 72.5234 1.72559 69.4246 1.72559H48.5867H41.9575C39.6048 1.72559 37.5768 3.18708 36.7367 5.24697C36.4703 5.90025 36.3232 6.61374 36.3232 7.35984V24.2626C36.3232 27.3614 38.8589 29.8969 41.9575 29.8969H59.5644L67.3116 36.2355V29.8969H67.3117Z" fill="url(#paint0_linear_2812_3142)"/>
<path fillRule="evenodd" clipRule="evenodd" d="M36.4804 6.03906C36.3775 6.46302 36.323 6.90526 36.323 7.35958V24.2623C36.323 27.3612 38.8586 29.8966 41.9573 29.8966H59.5292V20.7058C59.5292 18.8124 59.1628 16.9383 58.4478 15.1852C56.201 9.67657 50.832 6.03906 44.8625 6.03906H36.4804Z" fill="url(#paint1_linear_2812_3142)"/>
<path fillRule="evenodd" clipRule="evenodd" d="M13.8039 48.3134H11.2157C7.41961 48.3134 4.31372 45.2075 4.31372 41.4114V20.7057C4.31372 16.9098 7.41961 13.8037 11.2157 13.8037H36.7421H44.8626C47.7447 13.8037 50.2289 15.5939 51.2582 18.1174C51.5847 18.9177 51.7646 19.7917 51.7646 20.7057V41.4116C51.7646 45.2077 48.6584 48.3136 44.8626 48.3136H23.2942L13.8039 56.0783V48.3134Z" fill="url(#paint2_linear_2812_3142)"/>
<path fillRule="evenodd" clipRule="evenodd" d="M74.196 78.5097H76.7842C80.5803 78.5097 83.6862 75.4038 83.6862 71.6077V50.902C83.6862 47.1061 80.5803 44 76.7842 44H43.1371C40.255 44 37.7708 45.7902 36.7415 48.3137C36.4151 49.114 36.2351 49.988 36.2351 50.902V71.6079C36.2351 75.404 39.3413 78.5099 43.1371 78.5099H64.7056L74.1958 86.2746V78.5097H74.196Z" fill="url(#paint3_linear_2812_3142)"/>
<path d="M28.0405 38.8662H28.0393C27.0863 38.8662 26.3145 39.6389 26.3145 40.5917C26.3145 41.5445 27.0875 42.3172 28.0405 42.3172C28.9935 42.3172 29.766 41.5445 29.766 40.5917C29.766 39.6389 28.9935 38.8662 28.0405 38.8662Z" fill="#F7F8F8"/>
<path d="M28.0392 19.7998C24.9945 19.7998 22.5176 22.2767 22.5176 25.3214V26.0024C22.5176 26.9553 23.2901 27.7279 24.2431 27.7279C25.1961 27.7279 25.9686 26.9553 25.9686 26.0024V25.3214C25.9686 24.1796 26.8974 23.2508 28.0392 23.2508C29.1809 23.2508 30.1098 24.1796 30.1098 25.3214V28.0822C30.1098 29.2239 29.1809 30.1528 28.0392 30.1528C27.0862 30.1528 26.3137 30.9254 26.3137 31.8783V34.941C26.3137 35.8938 27.0862 36.6665 28.0392 36.6665C28.9921 36.6665 29.7647 35.8938 29.7647 34.941V33.3277C31.9669 32.6014 33.5607 30.5244 33.5607 28.0822V25.3214C33.5607 22.2767 31.0838 19.7998 28.0392 19.7998Z" fill="#F7F8F8"/>
<path d="M52.1954 62.9803C51.2424 62.9803 50.4692 62.2076 50.4692 61.2548C50.4692 60.302 51.2411 59.5293 52.194 59.5293H52.1954C53.1484 59.5293 53.9209 60.302 53.9209 61.2548C53.9209 62.2076 53.1484 62.9803 52.1954 62.9803Z" fill="white"/>
<path d="M59.9601 62.9803C59.0071 62.9803 58.2339 62.2076 58.2339 61.2548C58.2339 60.302 59.0059 59.5293 59.9589 59.5293H59.9601C60.9131 59.5293 61.6856 60.302 61.6856 61.2548C61.6856 62.2076 60.9131 62.9803 59.9601 62.9803Z" fill="white"/>
<path d="M67.7275 62.9803C66.7745 62.9803 66.0015 62.2076 66.0015 61.2548C66.0015 60.302 66.7733 59.5293 67.7263 59.5293H67.7275C68.6805 59.5293 69.453 60.302 69.453 61.2548C69.453 62.2076 68.6805 62.9803 67.7275 62.9803Z" fill="white"/>
</g>
<defs>
<linearGradient id="paint0_linear_2812_3142" x1="55.691" y1="1.72559" x2="55.691" y2="36.2355" gradientUnits="userSpaceOnUse">
<stop stop-color="#44BBFE"/>
<stop offset="1" stop-color="#1E78FE"/>
</linearGradient>
<linearGradient id="paint1_linear_2812_3142" x1="47.9261" y1="6.03906" x2="47.9261" y2="29.8966" gradientUnits="userSpaceOnUse">
<stop stop-color="#44BBFE"/>
<stop offset="1" stop-color="#1E78FE"/>
</linearGradient>
<linearGradient id="paint2_linear_2812_3142" x1="28.0392" y1="13.8037" x2="28.0392" y2="56.0783" gradientUnits="userSpaceOnUse">
<stop stop-color="#FF9252"/>
<stop offset="1" stop-color="#FF3F15"/>
</linearGradient>
<linearGradient id="paint3_linear_2812_3142" x1="59.9606" y1="44" x2="59.9606" y2="86.2746" gradientUnits="userSpaceOnUse">
<stop stop-color="#90DF75"/>
<stop offset="1" stop-color="#62B655"/>
</linearGradient>
<clipPath id="clip0_2812_3142">
<rect width="88" height="88" fill="white"/>
</clipPath>
</defs>
</svg>
