<svg width="80" height="80" viewBox="0 0 80 80" fill="none" xmlns="http://www.w3.org/2000/svg">
<g clip-path="url(#clip0_2812_3076)">
<path d="M65.3284 68.7847C80.2738 53.8393 80.2738 29.608 65.3284 14.6626C50.383 -0.282797 26.1517 -0.282797 11.2063 14.6626C-3.7391 29.608 -3.7391 53.8393 11.2063 68.7847C26.1517 83.7301 50.383 83.7301 65.3284 68.7847Z" fill="url(#paint0_linear_2812_3076)"/>
<path d="M70.3502 20.8312C71.0781 21.9467 69.9717 23.3557 68.7246 22.8877C49.9597 15.8453 28.0898 24.5567 19.9655 43.9913C16.2652 52.8407 16.0016 62.9736 19.4364 72.1588C19.906 73.4148 18.5097 74.5336 17.3864 73.8008C6.91776 66.9708 0 55.1562 0 41.7241C0 20.6507 17.2024 3.44824 38.2759 3.44824C51.7064 3.44824 63.52 10.3644 70.3502 20.8312Z" fill="url(#paint1_linear_2812_3076)"/>
<path d="M52.2899 66.2492C65.8449 58.5034 70.5544 41.2359 62.8087 27.681C55.0631 14.1261 37.7954 9.41684 24.2404 17.1626C10.6853 24.9083 5.97587 42.1759 13.7215 55.7308C21.4672 69.2857 38.7348 73.9949 52.2899 66.2492Z" fill="#F7F8F8" fill-opacity="0.8"/>
<path d="M52.9857 20.5326C33.7047 21.6658 18.2176 37.1557 17.0843 56.4341C17.0064 57.7601 15.2822 58.2348 14.5578 57.1215C11.6748 52.691 10 47.4032 10 41.7243C9.99983 26.1191 22.6709 13.4481 38.276 13.4482C43.9548 13.4482 49.2426 15.1231 53.6729 18.006C54.7864 18.7305 54.3117 20.4546 52.9857 20.5326Z" fill="#F7F8F8" fill-opacity="0.8"/>
<path d="M38.2759 60.1719C48.4646 60.1719 56.7242 51.9124 56.7242 41.7237C56.7242 31.535 48.4646 23.2754 38.2759 23.2754C28.0872 23.2754 19.8276 31.535 19.8276 41.7237C19.8276 51.9124 28.0872 60.1719 38.2759 60.1719Z" fill="url(#paint2_linear_2812_3076)"/>
<path d="M38.0068 24.5851C30.7468 28.2669 24.8187 34.195 21.137 41.455C20.8037 42.112 19.8101 41.8584 19.8327 41.122C20.1296 31.4372 27.9933 23.5779 37.6739 23.2806C38.4102 23.2582 38.6639 24.252 38.0068 24.5851Z" fill="url(#paint3_linear_2812_3076)"/>
<path d="M38.2756 50.8618C43.3224 50.8618 47.4136 46.7706 47.4136 41.7239C47.4136 36.6771 43.3224 32.5859 38.2756 32.5859C33.2289 32.5859 29.1377 36.6771 29.1377 41.7239C29.1377 46.7706 33.2289 50.8618 38.2756 50.8618Z" fill="#F7F8F8" fill-opacity="0.8"/>
<path d="M77.5861 14.8638L70.4965 13.9604C72.3103 11.319 68.6706 7.70866 66.0396 9.50521L65.1361 2.41383C64.8999 0.553482 62.9068 -0.543069 61.2206 0.274172C54.6997 3.434 48.7096 8.05469 43.831 14.1414C43.3327 14.7621 43.1327 15.569 43.2723 16.3518C44.212 21.5931 45.4068 23.4742 46.3844 29.2724L36.393 39.3638C33.8258 41.9569 38.0499 46.1673 40.6361 43.6069L50.7275 33.6156C56.5258 34.5931 58.4068 35.788 63.6482 36.7276C64.431 36.8673 65.2379 36.6673 65.8585 36.169C71.8475 31.3687 76.5094 25.4169 79.7258 18.7793C80.543 17.0931 79.4465 15.1 77.5861 14.8638Z" fill="#F7F8F8" fill-opacity="0.8"/>
<path d="M67.7541 9.02822C68.7748 9.09374 69.2648 10.3344 68.4862 11.117C46.8169 32.8934 60.9374 18.7386 39.3241 40.5705C38.7555 41.1448 38.5203 41.7982 38.5263 42.4398C38.537 43.5582 37.1484 44.0784 36.4124 43.2363C35.4832 42.1734 35.1808 40.588 36.3931 39.3636C67.6501 7.78908 65.6386 9.7765 66.0396 9.50495C66.5869 9.13098 67.1777 8.99115 67.7541 9.02822Z" fill="#F7F8F8" fill-opacity="0.8"/>
<path d="M77.5862 14.8634L70.4965 13.96C70.2391 14.3343 71.4275 13.1198 50.7275 33.6151C56.5258 34.5927 58.4068 35.7875 63.6482 36.7272C64.431 36.8669 65.2379 36.6669 65.8586 36.1686C71.5431 31.6122 76.3403 25.7655 79.7258 18.7789C80.5431 17.0927 79.4465 15.0996 77.5862 14.8634Z" fill="url(#paint4_linear_2812_3076)"/>
<path d="M65.7055 34.872C66.2567 35.011 66.4156 35.7199 65.9732 36.077L65.8586 36.1693C65.2379 36.6675 64.431 36.8675 63.6482 36.7279C58.4068 35.7882 56.5258 34.5934 50.7275 33.6158L56.9103 27.4951C58.0072 28.0934 59.1258 28.6467 60.2663 29.1493C60.522 29.262 60.6796 29.5155 60.6798 29.7949C60.6815 31.8303 62.0025 33.851 64.25 34.483C64.7182 34.6143 65.1989 34.7443 65.7055 34.872Z" fill="url(#paint5_linear_2812_3076)"/>
<path d="M73.1362 15.4193L68.5808 19.9306C68.3853 20.1243 68.0931 20.1848 67.8382 20.0813C67.0427 19.7584 66.2486 19.4088 65.457 19.0306C70.2715 14.2363 70.1846 14.4138 70.4967 13.96L72.7381 14.2451C73.3081 14.3177 73.5446 15.015 73.1362 15.4193Z" fill="url(#paint6_linear_2812_3076)"/>
<path d="M77.6018 22.7106C75.5638 26.1192 73.1225 29.2864 70.3121 32.145C65.5914 31.383 61.0863 29.7761 56.9104 27.495L65.457 19.0312C69.4897 20.9554 73.569 22.1554 77.6018 22.7106Z" fill="url(#paint7_linear_2812_3076)"/>
<path d="M67.2983 19.8587C67.7515 20.0499 67.8671 20.638 67.5174 20.984L62.1293 26.3192C61.4746 26.9673 61.0522 27.7306 60.8421 28.5276C60.7329 28.9416 60.2793 29.1573 59.8893 28.9809C58.8791 28.5238 57.886 28.0273 56.9102 27.495L65.4567 19.0312C66.0693 19.3238 66.6833 19.5994 67.2983 19.8587Z" fill="url(#paint8_linear_2812_3076)"/>
<path d="M66.0397 9.50521L65.1362 2.41383C64.9 0.553482 62.9069 -0.543069 61.2207 0.274172C54.6998 3.434 48.7097 8.05469 43.8311 14.1414C43.3328 14.7621 43.1328 15.569 43.2724 16.3518C44.2121 21.5931 45.4069 23.4742 46.3845 29.2724C66.9917 8.46055 65.6726 9.75383 66.0397 9.50521Z" fill="url(#paint9_linear_2812_3076)"/>
<path d="M65.2466 3.28489C65.3185 3.8511 65.034 4.40265 64.5309 4.67231C63.0733 5.4542 61.6097 6.33282 60.1823 7.29455C59.3902 7.82834 58.3028 7.41765 58.0744 6.49024C57.7375 5.123 57.4763 3.75713 57.2896 2.39782C58.563 1.63472 59.8708 0.928341 61.2075 0.280065C62.9001 -0.540624 64.8992 0.547307 65.1361 2.41334L65.2466 3.28489Z" fill="url(#paint10_linear_2812_3076)"/>
<path d="M49.3228 26.3035L46.3845 29.272C45.4069 23.4737 44.2121 21.5927 43.2724 16.3513C43.1328 15.5685 43.3328 14.7616 43.8311 14.1409C45.0914 12.5685 46.4345 11.0823 47.8552 9.6875C48.2055 11.8577 48.7342 13.9809 49.425 16.0485C49.5731 16.4916 49.4862 16.9825 49.1933 17.3466C48.1026 18.7018 48.0781 19.4442 49.6673 24.9494C49.8059 25.4296 49.6743 25.9484 49.3228 26.3035Z" fill="url(#paint11_linear_2812_3076)"/>
<path d="M60.969 14.5433L52.5052 23.0898C50.2242 18.914 48.6173 14.4088 47.8552 9.68809C50.7138 6.87775 53.8811 4.43637 57.2897 2.39844C57.8449 6.4312 59.0449 10.5105 60.969 14.5433Z" fill="url(#paint12_linear_2812_3076)"/>
<path d="M58.3396 7.5112C58.4872 8.05033 58.2946 8.62706 57.8495 8.96499C55.4572 10.7812 53.2422 12.8059 51.2562 14.9664C50.5279 15.7586 49.2138 15.4464 48.9155 14.4124C48.4693 12.8655 48.1136 11.2896 47.855 9.68809C50.7136 6.87775 53.8808 4.43637 57.2895 2.39844C57.5227 4.09602 57.8721 5.80344 58.3396 7.5112Z" fill="url(#paint13_linear_2812_3076)"/>
</g>
<defs>
<linearGradient id="paint0_linear_2812_3076" x1="11.2063" y1="14.6626" x2="65.3284" y2="68.7847" gradientUnits="userSpaceOnUse">
<stop stop-color="#FF7F7E"/>
<stop offset="1" stop-color="#FE1F1E"/>
</linearGradient>
<linearGradient id="paint1_linear_2812_3076" x1="35.2911" y1="3.44824" x2="35.2911" y2="74.0339" gradientUnits="userSpaceOnUse">
<stop stop-color="#FF7F7E"/>
<stop offset="1" stop-color="#FE1F1E"/>
</linearGradient>
<linearGradient id="paint2_linear_2812_3076" x1="38.2759" y1="23.2754" x2="38.2759" y2="60.1719" gradientUnits="userSpaceOnUse">
<stop stop-color="#FF7F7E"/>
<stop offset="1" stop-color="#FE1F1E"/>
</linearGradient>
<linearGradient id="paint3_linear_2812_3076" x1="29.1089" y1="23.2803" x2="29.1089" y2="41.8337" gradientUnits="userSpaceOnUse">
<stop stop-color="#FF7F7E"/>
<stop offset="1" stop-color="#FE1F1E"/>
</linearGradient>
<linearGradient id="paint4_linear_2812_3076" x1="65.3638" y1="13.96" x2="65.3638" y2="36.7706" gradientUnits="userSpaceOnUse">
<stop stop-color="#FF7F7E"/>
<stop offset="1" stop-color="#FE1F1E"/>
</linearGradient>
<linearGradient id="paint5_linear_2812_3076" x1="58.4782" y1="27.4951" x2="58.4782" y2="36.7713" gradientUnits="userSpaceOnUse">
<stop stop-color="#FF7F7E"/>
<stop offset="1" stop-color="#FE1F1E"/>
</linearGradient>
<linearGradient id="paint6_linear_2812_3076" x1="69.3992" y1="13.96" x2="69.3992" y2="20.1313" gradientUnits="userSpaceOnUse">
<stop stop-color="#FF7F7E"/>
<stop offset="1" stop-color="#FE1F1E"/>
</linearGradient>
<linearGradient id="paint7_linear_2812_3076" x1="67.2561" y1="19.0312" x2="67.2561" y2="32.145" gradientUnits="userSpaceOnUse">
<stop stop-color="#FF7F7E"/>
<stop offset="1" stop-color="#FE1F1E"/>
</linearGradient>
<linearGradient id="paint8_linear_2812_3076" x1="62.316" y1="19.0312" x2="62.316" y2="29.0428" gradientUnits="userSpaceOnUse">
<stop stop-color="#FF7F7E"/>
<stop offset="1" stop-color="#FE1F1E"/>
</linearGradient>
<linearGradient id="paint9_linear_2812_3076" x1="54.6343" y1="0" x2="54.6343" y2="29.2724" gradientUnits="userSpaceOnUse">
<stop stop-color="#FF7F7E"/>
<stop offset="1" stop-color="#FE1F1E"/>
</linearGradient>
<linearGradient id="paint10_linear_2812_3076" x1="61.2736" y1="0.00292969" x2="61.2736" y2="7.53153" gradientUnits="userSpaceOnUse">
<stop stop-color="#FF7F7E"/>
<stop offset="1" stop-color="#FE1F1E"/>
</linearGradient>
<linearGradient id="paint11_linear_2812_3076" x1="46.4752" y1="9.6875" x2="46.4752" y2="29.272" gradientUnits="userSpaceOnUse">
<stop stop-color="#FF7F7E"/>
<stop offset="1" stop-color="#FE1F1E"/>
</linearGradient>
<linearGradient id="paint12_linear_2812_3076" x1="54.4121" y1="2.39844" x2="54.4121" y2="23.0898" gradientUnits="userSpaceOnUse">
<stop stop-color="#FF7F7E"/>
<stop offset="1" stop-color="#FE1F1E"/>
</linearGradient>
<linearGradient id="paint13_linear_2812_3076" x1="53.1218" y1="2.39844" x2="53.1218" y2="15.4121" gradientUnits="userSpaceOnUse">
<stop stop-color="#FF7F7E"/>
<stop offset="1" stop-color="#FE1F1E"/>
</linearGradient>
<clipPath id="clip0_2812_3076">
<rect width="80" height="80" fill="white"/>
</clipPath>
</defs>
</svg>
