<svg width="88" height="88" viewBox="0 0 88 88" fill="none" xmlns="http://www.w3.org/2000/svg">
<path d="M9.625 2.75H34.2031C38.0119 2.75 41.0781 5.81625 41.0781 9.625V34.2031C41.0781 38.0119 38.0119 41.0781 34.2031 41.0781H9.625C5.81625 41.0781 2.75 38.0119 2.75 34.2031V9.625C2.75 5.81625 5.81625 2.75 9.625 2.75Z" fill="url(#paint0_linear_2812_3122)"/>
<path d="M9.625 47.0938H34.2031C38.0119 47.0938 41.0781 50.16 41.0781 53.9688V78.5469C41.0781 82.3556 38.0119 85.4219 34.2031 85.4219H9.625C5.81625 85.4219 2.75 82.3556 2.75 78.5469V53.9688C2.75 50.16 5.81625 47.0938 9.625 47.0938Z" fill="url(#paint1_linear_2812_3122)"/>
<path d="M50.0155 13.1968C48.1164 13.1987 46.5755 11.6601 46.5747 9.76099C46.5757 7.86185 48.1164 6.32333 50.0155 6.3252H81.8143C83.7114 6.32616 85.2491 7.86383 85.2499 9.76099C85.2492 11.6582 83.7114 13.1959 81.8143 13.1968H50.0155Z" fill="url(#paint2_linear_2812_3122)"/>
<path d="M50.0155 18.7217C48.1164 18.7198 46.5755 20.2584 46.5747 22.1575C46.5757 24.0567 48.1164 25.5952 50.0155 25.5933H81.8143C83.7114 25.5924 85.2491 24.0547 85.2499 22.1575C85.2492 20.2603 83.7114 18.7226 81.8143 18.7217H50.0155Z" fill="#F7F8F8"/>
<path d="M50.0155 30.6318C48.1164 30.63 46.5755 32.1685 46.5747 34.0677C46.5757 35.9668 48.1164 37.5053 50.0155 37.5035H65.8933C67.7904 37.5025 69.3282 35.9648 69.329 34.0677C69.3283 32.1705 67.7904 30.6328 65.8933 30.6318H50.0155Z" fill="#F7F8F8"/>
<path d="M13.2855 14.6832L13.2847 29.6236C13.2847 31.2854 15.1823 31.8414 16.5177 31.0704L29.6372 23.4958C30.892 22.7714 30.8362 21.0181 29.513 20.2541L16.5738 12.7847C14.9552 11.8616 13.2855 12.7433 13.2855 14.6832Z" fill="white"/>
<path d="M13.2855 59.0269L13.2847 73.9673C13.2847 75.6291 15.1823 76.1851 16.5177 75.4142L29.6372 67.8396C30.892 67.1151 30.8362 65.3618 29.513 64.5979L16.5738 57.1284C14.9552 56.2054 13.2855 57.087 13.2855 59.0269Z" fill="white"/>
<path d="M50.0155 57.5406C48.1164 57.5425 46.5755 56.0039 46.5747 54.1047C46.5757 52.2056 48.1164 50.6671 50.0155 50.6689H81.8143C83.7114 50.6699 85.2491 52.2076 85.2499 54.1047C85.2492 56.0019 83.7114 57.5396 81.8143 57.5406H50.0155Z" fill="url(#paint3_linear_2812_3122)"/>
<path d="M50.0155 63.0654C48.1164 63.0636 46.5755 64.6021 46.5747 66.5013C46.5757 68.4004 48.1164 69.9389 50.0155 69.9371H81.8143C83.7114 69.9361 85.2491 68.3984 85.2499 66.5013C85.2492 64.6041 83.7114 63.0664 81.8143 63.0654H50.0155Z" fill="#F7F8F8"/>
<path d="M50.0155 74.9756C48.1164 74.9737 46.5755 76.5123 46.5747 78.4114C46.5757 80.3106 48.1164 81.8491 50.0155 81.8472H65.8933C67.7904 81.8463 69.3282 80.3086 69.329 78.4114C69.3283 76.5142 67.7904 74.9765 65.8933 74.9756H50.0155Z" fill="#F7F8F8"/>
<defs>
<linearGradient id="paint0_linear_2812_3122" x1="21.9141" y1="2.75" x2="21.9141" y2="41.0781" gradientUnits="userSpaceOnUse">
<stop stop-color="#CF65F4"/>
<stop offset="1" stop-color="#952CB9"/>
</linearGradient>
<linearGradient id="paint1_linear_2812_3122" x1="21.9141" y1="47.0938" x2="21.9141" y2="85.4219" gradientUnits="userSpaceOnUse">
<stop stop-color="#CF65F4"/>
<stop offset="1" stop-color="#952CB9"/>
</linearGradient>
<linearGradient id="paint2_linear_2812_3122" x1="65.9123" y1="6.3252" x2="65.9123" y2="13.1968" gradientUnits="userSpaceOnUse">
<stop stop-color="#CF65F4"/>
<stop offset="1" stop-color="#952CB9"/>
</linearGradient>
<linearGradient id="paint3_linear_2812_3122" x1="65.9123" y1="50.6689" x2="65.9123" y2="57.5406" gradientUnits="userSpaceOnUse">
<stop stop-color="#CF65F4"/>
<stop offset="1" stop-color="#952CB9"/>
</linearGradient>
</defs>
</svg>
