<svg width="88" height="88" viewBox="0 0 88 88" fill="none" xmlns="http://www.w3.org/2000/svg">
<path d="M84.3336 11.7929V35.0405C84.3336 39.3626 80.8301 42.867 76.5071 42.867H72.2281V52.7294C72.2281 54.6737 69.9071 55.6793 68.4881 54.3501L56.2359 42.867H39.5306C35.2085 42.867 31.7041 39.3635 31.7041 35.0405V11.7929C31.7041 7.47085 35.2076 3.96643 39.5306 3.96643H76.5071C80.8301 3.96643 84.3336 7.47085 84.3336 11.7929Z" fill="url(#paint0_linear_2812_6633)"/>
<path d="M56.2956 42.9074V64.0952C56.2956 68.4283 52.8077 71.9153 48.4727 71.9153H31.7784L19.518 83.4341C18.0917 84.755 15.767 83.7504 15.767 81.7969V71.9153H11.4871C7.15491 71.9153 3.66699 68.4283 3.66699 64.0952V40.8476C3.66699 36.5145 7.15491 33.0275 11.4871 33.0275H31.7243V35.035C31.7243 39.3681 35.2122 42.8551 39.5444 42.8551H56.2415L56.2956 42.9074Z" fill="url(#paint1_linear_2812_6633)"/>
<path d="M68.5861 20.6113H47.4514C45.9921 20.6113 44.8096 19.4297 44.8096 17.9694C44.8096 16.5092 45.9921 15.3276 47.4514 15.3276H68.5861C70.0454 15.3276 71.2279 16.5092 71.2279 17.9694C71.2279 19.4297 70.0454 20.6113 68.5861 20.6113Z" fill="url(#paint2_linear_2812_6633)"/>
<path d="M68.5861 31.1786H47.4514C45.9921 31.1786 44.8096 29.997 44.8096 28.5368C44.8096 27.0765 45.9921 25.8949 47.4514 25.8949H68.5861C70.0454 25.8949 71.2279 27.0765 71.2279 28.5368C71.2279 29.997 70.0454 31.1786 68.5861 31.1786Z" fill="url(#paint3_linear_2812_6633)"/>
<path d="M20.4709 54.9817C20.1006 54.9817 19.7834 54.8781 19.4672 54.7699C19.15 54.6104 18.8329 54.3987 18.6211 54.1924C18.3571 53.9238 18.1463 53.6608 18.0409 53.3463C17.8823 53.0264 17.8291 52.6598 17.8291 52.2885C17.8291 51.6019 18.0931 50.9163 18.6211 50.4359C19.5735 49.4349 21.3161 49.4349 22.3199 50.4359C22.5839 50.7045 22.7956 50.9676 22.9019 51.282C23.0605 51.6019 23.1137 51.9686 23.1137 52.2885C23.1137 52.6598 23.0605 53.0264 22.9019 53.3463C22.7965 53.6608 22.5848 53.9238 22.3199 54.1924C21.845 54.6663 21.1575 54.9817 20.4709 54.9817Z" fill="white"/>
<path d="M31.0383 54.9817C30.668 54.9817 30.3508 54.8781 30.0346 54.7699C29.7174 54.6104 29.4002 54.3987 29.1885 54.1924C28.6605 53.713 28.3965 53.0264 28.3965 52.2885C28.3965 51.9686 28.4497 51.6019 28.6082 51.282C28.7137 50.9676 28.9245 50.7045 29.1885 50.4359C29.4002 50.1728 29.7174 50.0179 30.0346 49.8584C30.9851 49.4872 32.2006 49.6989 32.8863 50.4359C33.4152 50.9153 33.6792 51.6019 33.6792 52.2885C33.6792 53.0264 33.4152 53.713 32.8863 54.1924C32.6764 54.3987 32.3583 54.6104 32.0411 54.7699C31.7249 54.8781 31.4087 54.9817 31.0383 54.9817Z" fill="white"/>
<path d="M41.6057 54.9817C40.9182 54.9817 40.2316 54.6673 39.7559 54.1924C39.2279 53.713 38.9639 53.0264 38.9639 52.2885C38.9639 51.6019 39.2279 50.9163 39.7559 50.4359C40.7083 49.4349 42.5031 49.4349 43.4546 50.4359C43.7186 50.7045 43.9304 50.9676 44.0367 51.282C44.1953 51.6019 44.2485 51.9686 44.2485 52.2885C44.2485 53.0264 43.9844 53.713 43.4555 54.1924C42.9798 54.6663 42.2923 54.9817 41.6057 54.9817Z" fill="white"/>
<defs>
<linearGradient id="paint0_linear_2812_6633" x1="58.0189" y1="3.96643" x2="58.0189" y2="54.9548" gradientUnits="userSpaceOnUse">
<stop stopColor="#44BBFE"/>
<stop offset="1" stopColor="#1E78FE"/>
</linearGradient>
<linearGradient id="paint1_linear_2812_6633" x1="29.9813" y1="33.0275" x2="29.9813" y2="84.0332" gradientUnits="userSpaceOnUse">
<stop stopColor="#FFCF53"/>
<stop offset="1" stopColor="#FF9900"/>
</linearGradient>
<linearGradient id="paint2_linear_2812_6633" x1="58.0187" y1="15.3276" x2="58.0187" y2="20.6113" gradientUnits="userSpaceOnUse">
<stop stopColor="#44BBFE"/>
<stop offset="1" stopColor="#1E78FE"/>
</linearGradient>
<linearGradient id="paint3_linear_2812_6633" x1="58.0187" y1="25.8949" x2="58.0187" y2="31.1786" gradientUnits="userSpaceOnUse">
<stop stopColor="#44BBFE"/>
<stop offset="1" stopColor="#1E78FE"/>
</linearGradient>
</defs>
</svg>
