<svg width="56" height="56" viewBox="0 0 56 56" fill="none" xmlns="http://www.w3.org/2000/svg">
<path d="M27.9998 2.91699C23.0388 2.91699 18.1892 4.3881 14.0643 7.1443C9.93936 9.90049 6.72437 13.818 4.82587 18.4014C2.92737 22.9847 2.43064 28.0282 3.39848 32.8938C4.36633 37.7595 6.75529 42.229 10.2633 45.7369C13.7712 49.2449 18.2406 51.6338 23.1063 52.6017C27.972 53.5695 33.0154 53.0728 37.5988 51.1743C42.1822 49.2758 46.0997 46.0608 48.8559 41.9359C51.6121 37.8109 53.0832 32.9613 53.0832 28.0003C53.077 21.3497 50.4323 14.9733 45.7296 10.2706C41.0269 5.56786 34.6505 2.92317 27.9998 2.91699ZM17.9432 17.9437C18.319 17.5606 18.7674 17.2563 19.2622 17.0485C19.757 16.8408 20.2882 16.7338 20.8249 16.7338C21.3615 16.7338 21.8927 16.8408 22.3875 17.0485C22.8823 17.2563 23.3307 17.5606 23.7065 17.9437C24.1249 18.3126 24.4633 18.7633 24.7008 19.268C24.9382 19.7727 25.0698 20.3208 25.0873 20.8783C25.1048 21.4358 25.0079 21.991 24.8025 22.5097C24.5972 23.0283 24.2877 23.4994 23.8933 23.8938C23.4989 24.2882 23.0278 24.5977 22.5092 24.803C21.9906 25.0084 21.4354 25.1053 20.8778 25.0878C20.3203 25.0703 19.7723 24.9387 19.2675 24.7012C18.7628 24.4638 18.3121 24.1254 17.9432 23.707C17.5601 23.3312 17.2558 22.8828 17.048 22.388C16.8403 21.8932 16.7333 21.362 16.7333 20.8253C16.7333 20.2887 16.8403 19.7574 17.048 19.2626C17.2558 18.7679 17.5601 18.3195 17.9432 17.9437ZM22.6098 38.4303C22.3926 38.7053 22.1161 38.9278 21.801 39.0813C21.4859 39.2348 21.1403 39.3154 20.7898 39.317C20.3483 39.3185 19.9154 39.1947 19.5414 38.9599C19.1674 38.7252 18.8677 38.3892 18.6771 37.9909C18.4865 37.5926 18.4129 37.1484 18.4647 36.7099C18.5165 36.2714 18.6917 35.8566 18.9699 35.5137L33.3665 17.5703C33.7515 17.0895 34.311 16.7805 34.9229 16.7106C35.5349 16.6406 36.1496 16.8155 36.6332 17.197C36.8746 17.3879 37.0759 17.6246 37.2254 17.8936C37.375 18.1626 37.4698 18.4585 37.5045 18.7643C37.5392 19.0701 37.5131 19.3797 37.4276 19.6754C37.3422 19.9711 37.199 20.2469 37.0065 20.487L22.6098 38.4303ZM38.0332 38.057C37.6574 38.4401 37.209 38.7444 36.7142 38.9521C36.2194 39.1599 35.6882 39.2669 35.1515 39.2669C34.6149 39.2669 34.0836 39.1599 33.5888 38.9521C33.094 38.7444 32.6456 38.4401 32.2698 38.057C31.5829 37.278 31.2187 36.2664 31.2513 35.2283C31.2839 34.1902 31.7109 33.2035 32.4453 32.4691C33.1797 31.7347 34.1664 31.3077 35.2045 31.2751C36.2426 31.2425 37.2541 31.6068 38.0332 32.2937C38.4178 32.6679 38.7239 33.1151 38.9337 33.609C39.1434 34.103 39.2526 34.6338 39.2548 35.1704C39.2569 35.7071 39.1521 36.2388 38.9463 36.7344C38.7406 37.23 38.4381 37.6797 38.0565 38.057H38.0332Z" fill="#F7F8F8" fillOpacity="0.25"/>
</svg>
