<svg width="36" height="37" viewBox="0 0 36 37" fill="none" xmlns="http://www.w3.org/2000/svg">
<path fillRule="evenodd" clipRule="evenodd" d="M18 0.273438C27.9411 0.273438 36 8.33232 36 18.2734C36 28.2145 27.9411 36.2734 18 36.2734C8.05888 36.2734 0 28.2145 0 18.2734C0 8.33232 8.05888 0.273438 18 0.273438Z" fill="url(#paint0_linear_2812_3498)"/>
<path d="M20.3388 36.1228V22.2193H24.2584L24.778 17.3259H20.3388L20.3454 14.8765C20.3454 13.6002 20.4666 12.9167 22.2998 12.9167H24.7505V8.02246H20.83C16.1207 8.02246 14.4634 10.3962 14.4634 14.3886V17.3263H11.5278V22.2201H14.4634V35.9256C15.6071 36.1535 16.7894 36.2739 18 36.2739C18.782 36.2739 19.5633 36.2234 20.3388 36.1228Z" fill="white"/>
<defs>
<linearGradient id="paint0_linear_2812_3498" x1="18" y1="-0.0545403" x2="18" y2="37.8085" gradientUnits="userSpaceOnUse">
<stop stopColor="#00B2FF"/>
<stop offset="1" stopColor="#006AFF"/>
</linearGradient>
</defs>
</svg>
