<svg width="248" height="248" viewBox="0 0 248 248" fill="none" xmlns="http://www.w3.org/2000/svg">
<g opacity="0.7" filter="url(#filter0_f_2812_431)">
<path d="M241.986 99.6202C241.905 98.9878 241.762 98.3757 241.619 97.7637C241.538 97.3965 241.456 97.0496 241.374 96.6824C241.334 96.5192 241.293 96.3152 241.211 96.152C241.191 96.05 241.15 95.948 241.13 95.8256C240.232 92.2349 239.089 88.3995 239.049 88.3179C238.212 85.3393 233.744 75.4039 233.255 74.6695C232.969 74.2411 232.398 73.2618 232.398 73.2414C232.602 72.8538 233.744 71.2829 231.337 69.8344C230.745 69.3652 229.868 68.9776 228.705 68.6511C228.481 68.2431 228.216 67.7127 227.991 67.3047C218.974 50.5757 207.916 39.7018 202.184 34.5403C202.224 34.3363 202.265 34.1527 202.286 33.9691C202.388 33.3978 202.428 31.4597 200.47 31.1129C199.94 31.0313 199.164 31.0313 198.246 31.1129C198.001 30.9089 197.736 30.6845 197.716 30.6641C195.288 28.6647 193.309 27.2163 192.677 26.7266C192.615 26.6858 192.554 26.645 192.513 26.6042C193.057 27.121 193.69 27.6583 194.411 28.2159C195.39 28.9708 196.941 30.256 198.042 31.1333C197.695 31.1741 197.328 31.2353 196.92 31.2965C196.777 31.1129 196.41 30.7049 196.349 30.6233C194.186 28.1343 191.963 26.0126 189.698 24.1561C189.106 23.6664 187.78 22.6464 187.74 22.6056C187.617 22.524 187.515 22.422 187.393 22.3404C187.25 22.218 186.413 21.6059 186.148 21.4427C185.74 21.1571 185.353 20.8715 184.945 20.6063L183.965 19.9126C183.557 19.627 183.129 19.3618 182.7 19.117C182.435 18.9334 182.17 18.7701 181.884 18.5865C181.64 18.4233 181.374 18.2601 181.109 18.1173C180.762 17.8929 178.131 16.1996 177.927 16.1384C177.743 16.0772 176.621 15.4856 176.539 15.4243C175.805 15.0163 175.07 14.6287 174.316 14.2819C173.826 14.0575 173.316 13.8126 172.806 13.5882C172.235 13.323 171.663 13.0578 171.133 12.8334C171.072 12.813 171.031 12.7926 170.97 12.7518C170.888 12.711 170.786 12.6702 170.705 12.6294C170.48 12.5274 170.256 12.4254 170.031 12.3438C169.44 12.0377 168.848 11.7317 168.236 11.5481C167.542 11.3237 166.89 11.0381 166.216 10.7729C165.543 10.5077 164.829 10.324 164.156 10.0588C163.523 9.81401 162.87 9.52839 162.197 9.40598C160.994 8.99796 159.77 8.63074 158.545 8.26352C158.443 8.24312 157.423 7.85549 157.015 7.73309C156.648 7.63108 156.301 7.52907 155.934 7.44747C155.138 7.26386 154.343 7.14145 153.547 6.89664C152.772 6.65182 147.692 5.52975 147.162 5.44815C145.876 5.22373 144.877 5.06052 144.101 4.93812C141.429 4.40769 133.697 3.61204 132.677 3.46923C132.493 3.40803 132.309 3.40803 132.126 3.40803C131.983 3.40803 131.861 3.36722 131.738 3.36722C131.575 3.36722 131.391 3.32642 131.228 3.30602C130.759 3.24482 130.249 3.12241 126.924 3.10201C126.74 3.10201 126.475 3.10201 126.475 3.10201C126.148 3.10201 125.822 3.10201 125.495 3.14281C125.087 3.14281 124.7 3.18361 124.333 3.20401C124.047 3.20401 123.782 3.24481 123.496 3.26522C122.823 3.32642 122.252 3.38762 121.476 3.51003C120.885 3.59164 120.273 3.69364 119.681 3.81605C119.681 3.79565 119.681 3.77525 119.681 3.73445C119.681 3.59164 119.518 3.48963 119.375 3.51003C119.273 3.51003 119.191 3.59164 119.151 3.67324C118.824 3.57124 118.09 3.40803 117.886 3.36722C117.682 3.34682 116.07 3.0408 113.785 3.44883C113.54 3.40802 112.377 3.51003 112.071 3.53043C111.459 3.59164 110.827 3.63244 110.195 3.71404C108.664 3.87725 107.338 4.08127 106.441 4.22407L105.257 4.42809C104.849 4.48929 104.462 4.57089 104.054 4.6525C102.116 4.89731 100.178 5.20333 98.3618 5.59096C98.0354 5.67256 97.6886 5.73376 97.3214 5.83577C99.3615 5.44815 101.238 5.10133 103.258 4.81571C95.6485 6.407 86.8351 9.75281 84.7542 10.8341C87.6104 8.93676 90.8542 7.75349 93.4247 6.83543L94.8936 6.407C95.6485 6.22339 96.5257 6.01938 97.3214 5.81537C97.1581 5.85617 96.9949 5.87657 96.8113 5.91738L94.4652 6.48861C94.5876 6.46821 94.7304 6.42741 94.8528 6.3866C90.0789 7.50867 86.2639 9.16117 83.4281 11.3237C74.778 15.1591 67.0051 19.6474 59.0079 25.4413C59.1983 25.4549 59.5519 25.2713 60.0687 24.8905C61.966 23.5236 65.8831 20.7695 70.8814 17.8521C74.778 15.5672 79.0011 13.9351 82.9181 11.7113C81.0208 13.2618 79.5723 15.0775 78.6134 17.1381C78.5318 17.1789 78.491 17.1993 78.4502 17.2401C78.4502 17.2401 78.4502 17.2401 78.4298 17.2605C76.5325 18.2601 70.9834 21.1979 64.1694 25.727C64.1694 25.727 63.9042 25.8902 63.5777 26.0942C59.7015 25.6658 56.8657 25.4413 55.3152 25.3597C54.7644 25.3393 54.3768 25.3189 54.1524 25.3597C54.1524 25.3597 53.5811 25.4005 53.4587 25.4005C53.0711 25.4413 52.6631 25.523 52.3367 25.7474C51.2962 26.4002 51.4186 26.9714 51.4186 27.0938C51.4186 27.4611 51.6226 27.9711 52.3163 28.8892C52.3163 28.8892 52.4591 29.032 52.6835 29.236C43.1765 36.2132 34.2204 44.6185 27.2432 53.0442C27.0391 53.289 26.7943 53.595 26.5699 53.8807C25.5907 54.1051 24.897 54.3091 24.5298 54.4111C24.4278 54.4519 23.3057 54.7783 23.4893 55.3291C23.5097 55.4107 23.7137 55.574 23.8158 55.6148C24.0198 55.6964 24.387 55.8392 24.8766 56.0024C24.3054 56.7572 23.4077 57.9813 22.8977 58.6545C19.7559 63.0612 13.2071 72.2418 8.63724 85.4413C8.39243 86.135 7.55598 88.8279 7.55598 88.8279C7.53558 88.9095 7.51518 88.9912 7.47437 89.0728C7.35197 89.5012 6.86234 91.2353 6.80113 91.4801C6.71953 91.7657 6.53592 92.4594 6.51552 92.5206C6.49512 92.6022 6.45431 92.6838 6.43391 92.7858C6.39311 92.9694 6.35231 93.1326 6.3115 93.3162C6.3115 93.3978 6.2707 93.459 6.2707 93.5406C6.2299 93.7038 6.1891 93.8671 6.14829 94.0507C5.14863 98.1105 4.21018 103.048 3.90416 108.944C3.90416 108.699 3.94496 108.434 3.96536 108.189C3.74095 111.535 3.78175 114.533 4.00617 117.165C3.98576 117.39 3.96536 117.594 3.94496 117.736C3.76135 114.595 3.76135 111.677 3.90416 108.944C3.70015 112.126 3.67975 115.288 3.86336 118.491C3.82255 118.797 3.80215 119.124 3.80215 119.185C3.16972 126.611 3.25132 133.568 4.06737 140.973C4.06737 141.259 4.12857 141.545 4.16938 141.81C4.16938 141.912 4.29178 143.116 4.41419 143.666C4.37339 144.707 4.41419 145.747 4.557 146.808C4.557 146.951 4.90382 148.889 5.02623 149.46C5.55666 152.113 5.98509 153.724 6.84194 156.519C6.84194 156.54 6.84194 156.744 6.84194 156.744C6.90314 157.07 7.12755 157.58 7.12755 157.58C8.02521 161.028 9.6369 165.231 9.47369 164.7C9.51449 164.802 9.5349 164.904 9.5757 165.006C9.5757 165.006 10.6162 167.964 10.5958 167.964C11.4934 170.331 12.085 171.8 13.2275 174.125C13.4111 174.554 13.5947 174.941 13.7784 175.35C13.9008 175.615 14.0028 175.88 14.1456 176.145C14.2068 176.247 14.4108 176.676 14.4516 176.778C15.3288 178.695 16.0225 179.981 17.165 182.021C17.3894 182.449 18.2054 183.918 18.4094 184.224C18.5318 184.428 18.6338 184.632 18.7563 184.816C18.8583 184.979 18.9399 185.142 19.0419 185.305C19.2867 185.713 19.5723 186.203 19.8783 186.693C20.1027 187.08 20.3475 187.468 20.572 187.855C21.082 188.753 21.592 189.61 22.1837 190.446C22.3673 190.712 22.5713 190.977 22.7753 191.222C22.7957 191.262 22.8161 191.283 22.8365 191.303C22.8773 191.364 22.9997 191.528 23.1221 191.711C23.3669 192.079 23.5709 192.364 23.6321 192.446C24.4686 193.711 25.8151 195.547 26.9167 197.016C27.6104 197.934 29.6709 200.525 31.2826 202.463C31.915 203.218 32.4659 203.87 32.8535 204.299C33.3227 204.809 36.3625 208.093 36.9541 208.706C37.199 208.971 37.6886 209.44 38.321 210.032C39.8511 211.48 42.2177 213.663 44.0742 215.356C45.1554 216.315 46.0735 217.111 46.5631 217.519C47.1139 217.968 50.2149 220.416 50.9698 220.987C52.0102 221.783 53.0099 222.476 54.3156 223.374C54.8256 223.721 55.3968 224.108 56.0497 224.537C55.8457 224.394 58.2938 225.985 58.7222 226.271C59.5383 226.781 60.3135 227.271 61.0888 227.74C62.4965 228.597 63.7613 229.331 65.0874 230.045C65.3526 230.188 67.862 231.514 69.2085 232.208C69.8001 232.514 70.2693 232.759 70.3509 232.779C70.657 232.942 70.963 233.085 71.2282 233.207C71.5954 233.411 71.9626 233.575 72.3503 233.738C72.3503 233.738 74.6556 234.86 75.0228 235.023C76.5121 235.696 78.0218 236.329 79.5111 236.961C79.9191 237.124 83.1425 238.655 84.7134 239.287C85.1418 239.45 86.1007 239.777 87.182 240.144C88.304 240.878 89.6301 241.449 90.2829 241.694C92.4659 242.551 94.7916 243.102 97.1173 243.408C99.3819 243.694 102.442 243.796 107.461 243.959C110.052 244.204 112.663 244.428 115.274 244.55C121.007 244.816 121.354 244.673 121.66 244.652C122.864 244.632 125.291 244.428 126.577 244.306C126.944 244.306 127.189 244.285 127.311 244.265C127.352 244.265 127.372 244.265 127.393 244.244C127.536 244.285 128.209 244.285 128.413 244.285C128.821 244.285 129.229 244.285 129.637 244.285C129.657 244.285 129.698 244.285 129.719 244.285C130.025 244.387 130.351 244.51 130.657 244.612C130.718 244.632 130.8 244.673 130.861 244.693C130.698 244.632 130.473 244.55 130.31 244.489C130.147 244.428 129.963 244.367 129.8 244.306C130.147 244.306 130.494 244.306 130.841 244.306C130.902 244.306 130.963 244.306 131.024 244.306C131.269 244.306 133.33 244.326 133.554 244.326C133.656 244.326 133.738 244.326 133.819 244.326C132.901 244.448 131.963 244.571 131.004 244.673H130.881C130.881 244.673 130.943 244.673 131.004 244.673C131.901 244.591 132.84 244.469 133.84 244.326C134.003 244.326 134.146 244.326 134.288 244.326C134.696 244.326 136.798 244.244 136.798 244.244C136.9 244.244 137.022 244.244 137.124 244.204C137.287 244.204 137.43 244.204 137.491 244.204C137.593 244.204 137.757 244.204 137.899 244.163C138.103 244.163 138.328 244.142 138.532 244.102C138.899 244.061 139.266 244.04 139.633 244C139.797 243.979 139.96 243.959 140.144 243.938C140.286 243.918 141.041 243.755 141.204 243.714C141.531 243.653 141.837 243.592 142.163 243.53C142.245 243.53 142.306 243.49 142.388 243.469C142.938 243.428 143.51 243.367 144.101 243.286C144.224 243.286 145.244 243.122 145.631 243.041C145.774 243 145.937 242.98 146.08 242.939C146.345 242.898 146.631 242.837 146.937 242.755C147.284 242.694 147.631 242.612 147.978 242.551C148.732 242.388 149.508 242.225 150.263 242C150.63 241.898 150.997 241.796 151.364 241.674C151.364 241.674 151.405 241.674 151.425 241.674L153.16 241.143C153.527 241.021 155.526 240.327 156.281 240.042C156.281 240.042 156.281 240.042 156.301 240.042C156.383 240.001 156.465 239.981 156.505 239.96C156.791 239.858 157.097 239.756 157.362 239.654C159.586 238.818 166.38 235.88 169.317 234.574C170.603 233.962 171.908 233.33 173.234 232.636C174.499 231.983 175.805 231.31 177.111 230.596C177.253 230.514 177.417 230.433 177.559 230.351L177.702 230.27C178.722 229.719 179.742 229.148 180.783 228.556C185.577 225.822 190.596 222.68 195.655 219.11C196.145 218.763 198.45 217.254 198.45 217.254C203.673 214.03 207.59 210.848 211.119 207.461L211.833 206.706L212.588 205.931C212.588 205.931 216.444 201.32 216.526 201.177C216.587 201.096 216.669 200.994 216.73 200.871C217.281 200.259 217.811 199.647 218.321 199.035C218.627 198.709 218.913 198.362 219.178 198.015C219.361 197.791 219.545 197.566 219.708 197.342C219.912 197.097 220.116 196.852 220.32 196.587C220.484 196.363 220.667 196.159 220.83 195.934C220.973 195.73 221.116 195.547 221.279 195.363C221.442 195.159 221.585 194.955 221.728 194.751C221.789 194.649 221.871 194.547 221.932 194.445C221.932 194.425 221.952 194.404 221.973 194.363C222.34 193.853 222.564 193.507 223.483 192.14C223.727 191.752 224.135 191.079 224.38 190.691C224.38 190.691 224.36 190.712 224.339 190.732C224.564 190.487 224.788 190.222 224.992 189.957L225.176 189.692C225.441 189.365 225.665 188.998 225.89 188.651C226.012 188.447 226.114 188.243 226.216 188.019C226.706 187.182 227.236 186.285 227.767 185.367C228.358 184.346 228.991 183.286 229.582 182.225C229.725 182.102 229.827 181.898 230.358 180.919L230.215 181.123C230.215 181.123 230.215 181.123 230.195 181.143L230.276 180.98C230.664 180.307 231.011 179.613 231.378 178.961C231.378 178.961 231.398 178.92 231.419 178.899C231.867 178.063 232.275 177.226 232.643 176.451C232.643 176.492 232.602 176.533 232.581 176.574C233.051 175.635 233.5 174.737 233.561 174.615C234.356 172.983 234.968 171.575 235.682 169.658C235.723 169.556 235.764 169.474 235.784 169.372C235.968 168.882 237.111 165.965 237.396 165.231C238.029 163.578 238.477 162.211 239.089 160.171C239.11 160.089 239.865 157.58 239.885 157.498C240.028 156.988 240.171 156.54 240.293 156.111C240.905 154.03 241.538 151.256 242.027 148.746C242.741 145.727 243.312 141.626 243.741 138.444C244.108 135.526 244.292 133.935 244.373 130.977C244.373 130.916 244.455 129.284 244.516 128.264C244.516 128.264 244.516 128.243 244.516 128.223C244.516 127.998 244.537 127.794 244.557 127.59C244.557 127.509 244.557 127.447 244.557 127.427C244.659 125.061 244.618 123.326 244.516 120.062V119.226L244.496 119.307C244.496 119.205 244.496 119.103 244.496 119.001C244.292 114.554 244.108 112.065 243.639 108.76C243.843 110.718 244.027 113.003 244.271 116.206C243.863 112.636 243.068 109.311 242.027 106.23C242.476 103.945 242.435 102.048 242.272 100.579C242.904 104.149 243.333 106.618 243.639 108.76C243.292 105.577 242.904 103.313 242.109 99.457L241.986 99.6202ZM244.373 123.347C244.027 127.243 243.517 133.323 240.314 141.708C240.824 138.689 241.211 135.628 241.476 132.568C242.292 123.245 241.823 114.738 241.15 109.148C241.395 108.393 241.578 107.679 241.742 107.005C243.19 111.228 243.945 115.472 244.373 119.94V123.367V123.347ZM241.028 107.944C240.701 105.455 240.354 103.7 240.11 102.864C240.62 103.986 241.089 105.108 241.497 106.23C241.374 106.781 241.211 107.352 241.028 107.944ZM193.228 62.184C193.982 64.2853 194.656 66.2642 195.308 68.4267C194.594 68.4879 193.88 68.5491 193.166 68.6103C192.33 68.3859 191.208 68.0799 190.351 67.8555C183.537 66.0806 176.417 64.5097 169.134 63.102C168.889 62.0003 168.46 59.9602 167.767 57.3489C167.053 54.6763 166.175 52.0037 165.645 50.4328C175.56 54.0235 185.169 58.0629 194.023 62.5512C193.982 62.5512 193.942 62.5512 193.901 62.5104C193.717 62.4288 193.554 62.3268 193.37 62.2452C193.33 62.2248 193.268 62.2044 193.228 62.184ZM132.595 8.81435C144.285 15.5876 154.343 27.0326 161.279 41.8643C157.423 43.1904 154.261 44.3125 152.364 44.9857C132.35 38.5797 112.337 34.0507 95.6281 30.9905C100.3 29.8072 129.535 10.8341 132.595 8.81435ZM129.861 10.0996C118.865 17.9133 106.849 23.9929 95.3424 30.9293C90.589 30.052 86.1211 29.3176 81.9796 28.6647C89.7933 18.5253 98.831 10.6097 106.788 6.06018C120.13 2.69398 126.169 5.63176 132.065 8.50833C131.391 9.01836 130.637 9.5692 129.882 10.12L129.861 10.0996ZM125.761 56.5532C134.574 53.289 143.122 49.372 151.895 46.0466C151.935 46.0466 152.078 45.965 152.303 45.9038C156.383 47.2095 160.443 48.5763 164.462 50.0248C165.829 54.1459 167.053 58.4709 167.971 62.898C154.037 60.2662 139.531 58.2465 125.353 56.7572C125.495 56.696 125.618 56.6348 125.74 56.594L125.761 56.5532ZM101.585 66.4274C101.504 66.305 101.381 66.1622 101.279 66.0398C95.5669 58.7565 94.1388 56.8184 92.7719 54.9415C102.034 55.5128 111.725 56.288 121.497 57.2673C109.827 62.3064 83.7137 75.1387 77.5526 79.0966C77.4914 79.0966 76.8589 79.4434 75.7777 80.0962C69.4125 78.7089 63.5165 77.5461 58.151 76.5668C60.5788 68.5083 63.4145 61.2047 66.9031 53.7786C74.7168 54.0031 83.2037 54.3703 92.0986 54.9211C91.9354 54.9211 91.7926 54.9211 91.4866 54.8803C91.4254 54.8803 91.3642 54.8803 91.303 54.8803C93.9144 58.4709 95.9749 61.1843 100.504 66.9782C100.871 66.7946 101.238 66.6314 101.606 66.4478L101.585 66.4274ZM19.5519 71.4257C25.3662 61.7759 26.6107 59.7154 28.3856 57.1856C28.6712 57.2673 28.9773 57.3693 29.2833 57.4509C26.2843 61.2047 22.6529 66.1622 19.0011 72.3846C19.3479 70.12 19.9803 68.2227 20.6128 66.7742C20.7148 66.5702 20.8168 66.3662 20.9188 66.1418C21.1636 65.6726 21.388 65.1829 21.6124 64.7137C21.7144 64.5301 21.796 64.3669 21.8776 64.2241C21.796 64.3465 21.7348 64.4893 21.6532 64.6117C21.7348 64.4689 21.9592 63.9793 22 63.8977C22.0816 63.7344 22.1837 63.5712 22.2653 63.408C22.3061 63.3264 22.3469 63.2652 22.3877 63.1836C22.5509 62.8776 22.8569 62.3064 22.8161 62.3472C23.2241 61.6127 23.6321 60.8783 24.081 60.1642C24.5094 59.4706 24.9786 58.7769 25.4887 58.1241C25.7335 57.7977 25.9987 57.4917 26.2639 57.1856C26.4271 57.0224 26.5903 56.8592 26.7535 56.696C27.182 56.8184 27.6308 56.9612 28.1 57.104C24.8766 61.7555 22.1837 66.2846 19.5519 71.4257ZM28.8753 56.492C29.2221 56.0024 29.6097 55.472 30.0381 54.8599L30.5278 54.1051C31.0378 54.0643 31.5682 54.0235 32.1191 53.9827C32.0782 54.0235 32.0578 54.0643 32.0578 54.0643C31.3642 54.8803 30.6298 55.778 29.8341 56.7572C29.5077 56.6552 29.1813 56.5736 28.8753 56.492ZM31.2622 53.187C39.5655 42.1908 47.216 35.2135 53.4995 30.052C54.0504 30.5417 54.7644 31.1945 55.5601 31.9085C48.5216 37.4373 38.2802 46.2098 33.0575 53.0238C33.0575 53.0238 33.0575 53.0238 33.0371 53.0442C32.8331 53.0442 32.6291 53.0646 32.4455 53.085C32.0374 53.1054 31.6498 53.1462 31.2826 53.187H31.2622ZM62.7005 53.6562C61.1908 54.7171 50.8066 63.0612 40.4631 73.8534C35.5465 73.3026 31.3438 73.017 27.8756 73.0374C26.3047 73.0986 24.1626 73.1598 21.898 73.6086C20.8372 73.8126 19.7967 74.0575 18.7766 74.4247C18.7766 74.1391 18.8175 73.8534 18.8379 73.5678C19.1235 72.9966 19.4091 72.405 19.7151 71.7929C19.7151 71.7725 19.7355 71.7317 19.7559 71.7113C20.8372 69.916 21.9592 68.1411 23.1425 66.3866C25.4887 62.898 27.7532 59.8786 29.6301 57.5325C34.5264 59.0014 42.3809 61.4087 44.2374 61.8167C44.4414 61.5311 44.5842 61.4087 44.7882 61.1027C44.319 61.0007 35.322 58.2873 30.1809 56.8388C30.7522 56.1248 31.303 55.4719 31.7722 54.9211C31.9762 54.6763 32.2211 54.3703 32.4251 54.1051C32.4251 54.1051 32.4863 54.0439 32.5475 53.9623C39.5859 53.5134 50.1129 53.3706 62.7005 53.6562ZM18.3686 78.0561C18.9195 83.3808 21.1636 89.1952 24.1626 93.9691C23.8158 94.4791 22.9793 95.8052 22.8773 95.9276C17.0017 105.292 12.5339 114.84 9.98372 124.285C9.6369 125.611 8.84126 129.222 8.71885 129.692C8.67805 129.855 8.51483 130.671 8.41283 131.14C8.35162 131.426 8.31082 131.691 8.27002 131.895C8.20882 132.017 8.12721 132.119 8.06601 132.242C8.0048 132.14 7.65798 131.569 7.61718 131.467C7.49477 131.242 7.37237 130.997 7.29076 130.773C6.92354 129.773 7.08675 119.675 7.31116 116.533C8.10681 105.231 10.4326 94.3771 14.2884 84.1561C14.5332 83.5236 15.1452 81.8507 15.6349 80.6675C15.6961 80.545 15.9205 79.9942 15.9817 79.831C16.5529 78.4437 17.777 75.6692 17.7974 75.6488C17.9402 75.5876 18.1034 75.5264 18.2666 75.4447C18.2462 76.016 18.3074 77.7705 18.3278 78.0561H18.3686ZM8.35163 134.119C8.27002 133.935 8.16801 133.751 8.08641 133.547C8.08641 133.527 8.04561 133.486 8.04561 133.445C7.8824 134.547 7.73959 135.649 7.61718 136.73C7.61718 136.73 7.61718 136.71 7.61718 136.689C7.59678 135.894 7.51517 135.118 7.43357 134.343C7.61718 134.017 7.8212 133.69 8.02521 133.364C10.1265 138.056 12.9623 142.463 16.6549 146.788C16.3081 148.257 15.8593 150.215 15.5329 152.113L13.1867 153.112C11.1058 148.787 9.39209 144.482 7.9844 140.035C7.9232 139.586 7.8824 139.158 7.82119 138.709V138.668C7.82119 138.668 7.82119 138.689 7.82119 138.709C7.82119 138.791 7.82119 138.893 7.80079 138.995C7.80079 139.035 7.80079 139.056 7.80079 139.097C7.9028 137.872 8.04561 136.608 8.24962 135.322C8.31082 134.955 8.43323 134.465 8.37203 134.098L8.35163 134.119ZM7.45397 138.26C7.20916 137.424 6.98474 136.628 6.71953 135.628C6.84193 135.384 6.96434 135.159 7.10715 134.914C7.22956 136.261 7.37237 137.934 7.45397 138.24V138.26ZM10.453 154.336L8.27002 155.275C8.27002 155.275 8.16801 155.336 8.10681 155.356C7.67838 152.133 7.20916 146.788 7.69879 140.219C7.69879 140.321 7.69879 140.382 7.69879 140.361C8.53524 146.461 9.6165 151.215 10.453 154.316V154.336ZM14.9004 166.903C14.9208 166.434 14.9412 165.965 14.9616 165.475C15.0024 164.598 15.1656 162.334 15.3696 159.947C22.9793 160.824 37.811 161.579 67.5968 162.823C95.6893 164.006 119.008 165.312 138.328 166.679C137.981 167.046 137.716 167.332 137.614 167.434C133.921 171.33 131.147 174.309 128.331 177.349C119.681 170.147 112.133 165.149 109.97 165.047C109.889 165.047 109.807 165.047 109.725 165.047C113.459 167.719 120.171 172.514 127.413 178.369C127.352 178.451 127.27 178.512 127.209 178.593C127.087 178.736 125.699 180.246 125.455 180.491C118.804 187.774 114.152 193.221 110.052 198.485C110.031 198.505 109.929 198.648 109.787 198.811C96.7297 193.221 83.5301 187.978 70.6978 181.919C66.1687 179.777 62.1905 177.818 58.7018 176.002C57.1514 171.249 56.0497 167.291 54.9072 162.334C54.8664 162.334 54.8256 162.334 54.7848 162.334C54.7848 162.334 54.54 162.334 54.0708 162.313C54.03 162.313 53.9892 162.313 53.9484 162.313C55.7233 169.923 57.4166 174.901 57.6002 175.472C46.5019 169.698 40.4019 165.639 36.6889 163.17C34.88 161.973 33.5947 161.354 32.8331 161.313C32.8331 161.313 32.7107 161.313 32.6495 161.313C56.2333 178.063 83.3669 187.692 109.582 199.117C109.215 199.586 108.766 200.178 108.685 200.3C102.789 208.155 96.9949 217.274 97.1786 226.291C97.1786 226.332 97.1786 226.455 97.1786 226.597C93.792 225.618 90.5074 224.639 87.3248 223.7C75.3492 211.582 67.2704 198.75 60.3543 180.797C59.9259 179.695 59.7219 178.002 58.9263 177.124C58.661 176.982 58.3754 176.839 58.1102 176.696C58.0694 176.676 58.0082 176.655 57.9674 176.614C69.8001 210.011 86.3251 223.007 87.284 223.68C84.9582 222.986 82.6937 222.293 80.4699 221.599C79.3683 220.905 77.9198 219.987 76.8589 219.273C38.729 194.404 24.9582 172.963 16.7161 160.151C16.6141 160.151 16.4509 160.13 16.3489 160.11C16.3285 160.11 16.3081 160.11 16.2673 160.11C38.4842 198.158 78.1442 220.416 80.4291 221.579C66.2707 217.192 54.2136 212.908 44.2986 207.93C41.32 205.89 38.6066 203.85 36.1381 201.769C23.9994 187.978 18.3686 175.186 16.4509 170.82C16.4509 170.78 16.4101 170.739 16.3897 170.678L14.88 166.924L14.9004 166.903ZM16.2265 170.82C18.1646 177.328 27.7124 192.099 34.302 200.137C30.8746 197.077 27.9776 193.935 25.6111 190.752C25.3254 190.365 25.0398 189.977 24.7542 189.569C24.387 189.059 24.0402 188.529 23.6933 187.998C23.2853 187.305 22.9181 186.591 22.5305 185.897C22.0612 185.101 21.5716 184.326 21.082 183.551C20.0415 181.898 19.1439 180.185 18.3686 178.389C17.6138 176.655 16.9609 174.88 16.3897 173.085C15.8389 171.351 15.3696 169.596 14.8596 167.842C14.8596 167.821 14.8596 167.781 14.8596 167.76C15.0432 168.209 16.0225 170.351 16.2265 170.82ZM44.8086 210.521C44.8086 210.521 42.8909 208.787 42.8297 208.746C42.0136 207.951 41.2384 207.094 40.4019 206.319C40.3611 206.278 40.1775 206.094 39.9327 205.849C41.1568 206.523 42.4421 207.216 43.7682 207.889C55.3968 215.968 71.2894 223.68 92.6087 231.779C88.9773 233.554 87.0799 235.003 86.1211 236.125C86.0191 236.084 83.6321 235.146 83.2037 234.962C72.3095 230.514 64.8222 225.741 61.6396 223.7C55.5805 219.824 50.3577 214.908 44.7474 210.48C44.7678 210.48 44.7882 210.501 44.8086 210.521ZM101.014 234.595C100.769 234.431 100.545 234.289 100.361 234.166C100.341 234.166 100.3 234.125 100.28 234.105C100.239 234.044 100.178 233.962 100.116 233.901C99.1371 232.595 98.8107 231.31 98.525 230.331C98.525 230.331 98.525 230.27 98.4842 230.188C99.8511 229.658 101.32 229.127 102.87 228.597H102.911C118.09 232.963 128.127 235.88 132.738 238.961C134.329 240.042 134.86 240.878 134.758 241.572C134.431 241.735 134.003 241.919 133.452 242.164C130.555 243.082 129.27 243.51 128.311 243.877C127.332 243.53 126.352 243.184 125.373 242.837C124.251 241.307 124.149 238.94 124.985 235.37H124.945C124.843 235.329 124.741 235.288 124.659 235.268H124.618C123.863 238.859 124.027 241.266 125.21 242.816C120.13 241.041 115.009 239.348 109.909 237.634C106.747 236.166 103.442 234.533 99.9735 232.738C99.7695 232.636 99.5043 232.493 99.3003 232.371C99.6063 233.003 103.687 235.023 108.073 237.002C105.706 236.206 103.36 235.39 101.014 234.574V234.595ZM110.072 237.92C113.153 239.267 117.315 241.041 118.926 241.633C122.231 242.878 124.394 243.592 126.822 244.244C126.005 244.122 123.313 243.673 120.62 243.061C117.498 242.347 114.458 241.164 113.275 240.695C111.419 239.981 109.684 239.103 108.175 238.451C106.645 237.798 105.421 237.104 104.645 236.757C104.421 236.655 104.156 236.512 103.911 236.37C103.136 235.921 102.442 235.513 101.85 235.146C104.584 236.084 107.318 237.022 110.072 237.92ZM128.515 244C128.515 244 128.392 243.959 128.331 243.938C129.637 243.469 130.983 243.082 132.33 242.674C130.82 243.286 129.882 243.592 128.515 244ZM132.146 242.796C132.35 242.714 132.575 242.633 132.799 242.531C133.432 242.347 134.044 242.143 134.676 241.919C134.248 242.898 132.473 243.469 131.085 243.796C130.412 243.918 129.596 244.04 128.882 244.142C128.76 244.102 128.658 244.061 128.535 244.02C129.698 243.694 130.616 243.388 132.146 242.816V242.796ZM156.587 237.512C156.097 237.981 155.587 238.369 155.138 238.655C154.934 238.777 154.71 238.92 154.506 239.042C154.139 239.267 152.425 240.103 152.323 240.164C150.977 240.756 149.569 241.286 148.141 241.776C147.957 241.837 147.753 241.898 147.57 241.96C147.57 241.96 147.549 241.96 147.529 241.96C147.447 241.98 147.366 242.021 147.284 242.041C146.978 242.123 146.692 242.225 146.386 242.327C146.06 242.429 145.733 242.51 145.407 242.612C145.264 242.653 145.081 242.674 144.938 242.714C144.938 242.714 144.938 242.714 144.958 242.714C145.285 242.592 146.06 242.204 146.141 242.164C147.508 241.511 148.936 240.695 150.528 239.593C154.384 238.41 156.628 237.512 156.648 237.492C156.689 237.451 156.73 237.41 156.771 237.39C156.73 237.43 156.689 237.471 156.648 237.492C156.628 237.492 156.607 237.512 156.607 237.532L156.587 237.512ZM159.606 229.841C159.606 229.841 159.606 229.8 159.627 229.78C159.749 229.637 159.912 229.474 160.035 229.352C166.91 222.048 169.113 214.255 169.848 211.704C169.909 211.5 169.97 211.215 170.031 211.011C169.786 211.072 169.542 211.133 169.297 211.194C169.236 211.194 169.174 211.194 169.134 211.194C176.56 209.338 183.149 207.624 188.964 206.013C175.948 218.131 164.421 228.148 160.035 231.922C160.014 231.249 159.872 230.555 159.606 229.821V229.841ZM214.567 196.832C208.896 199.403 201.184 201.953 191.045 204.809C202.796 193.588 212.017 184.163 212.588 183.571C216.403 184.04 220.096 184.142 223.115 183.938C223.074 184.265 223.034 184.55 223.034 184.55C222.972 184.877 222.932 185.203 222.87 185.53C220.361 189.406 217.648 193.099 214.588 196.832H214.567ZM222.728 186.223C222.218 188.855 221.483 191.303 220.545 193.649C218.913 194.71 216.995 195.751 214.73 196.771C215.914 195.914 219.3 191.446 222.728 186.223ZM228.705 180.531C228.542 181.123 228.379 181.715 228.175 182.306C228.134 182.306 228.093 182.327 228.073 182.327C227.787 182.408 227.298 182.531 226.971 182.612C226.869 181.878 226.665 181.143 226.4 180.368L226.91 179.43C227.665 179.817 228.256 180.185 228.726 180.531H228.705ZM227.44 178.41C227.767 177.818 229.236 175.207 229.786 174.146C229.827 175.186 229.378 177.736 229.195 179.409C228.726 179.083 228.154 178.757 227.44 178.41ZM227.869 183.184C227.583 184 227.277 184.795 226.93 185.591C227.053 184.877 227.094 184.142 227.053 183.408C227.338 183.347 227.685 183.245 227.869 183.163V183.184ZM225.767 178.899C226.073 179.042 226.379 179.165 226.645 179.307C226.502 179.532 226.38 179.777 226.257 180.001C226.114 179.634 225.951 179.287 225.788 178.92L225.767 178.899ZM224.951 177.369C224.727 176.982 224.482 176.574 224.217 176.166C224.217 175.9 224.217 175.676 224.217 175.635C224.217 174.309 224.156 173.024 224.054 171.657C224.033 171.351 223.993 170.718 223.993 170.698C223.993 170.616 223.993 170.453 223.972 170.27C225.665 168.107 227.236 165.985 228.705 163.884C229.317 165.883 230.113 170.576 229.725 173.554C229.215 174.554 227.767 177.084 227.134 178.246C226.502 177.961 225.788 177.655 224.951 177.349V177.369ZM229.317 163.007C233.622 156.784 236.968 150.848 239.416 145.074C238.661 148.828 237.682 152.725 236.417 156.744C234.764 162.028 232.296 166.985 230.337 172.167C230.439 169.066 230.072 166.026 229.297 163.007H229.317ZM217.974 143.116C217.546 141.708 217.158 140.443 216.832 139.341C223.727 132.854 231.48 125.061 235.927 118.94C238.437 115.492 240.008 112.453 240.946 109.8C241.803 117.655 242.292 129.304 239.803 143.054C237.6 148.542 234.254 154.948 229.154 162.354C227.318 155.683 223.442 149.256 217.974 143.116ZM217.179 143.728C218.484 148.216 219.933 152.908 220.932 157.192C222.054 162.068 222.748 165.904 223.176 169.902C223.176 169.964 223.197 170.127 223.238 170.351C222.748 170.963 222.238 171.596 221.728 172.228C221.667 172.31 221.585 172.412 221.524 172.493C221.626 172.616 221.748 172.779 221.85 172.901C222.36 172.289 222.85 171.677 223.319 171.065C223.319 171.249 223.36 171.412 223.36 171.494C223.36 171.8 223.401 172.31 223.462 173.146C223.483 173.554 223.462 173.962 223.483 174.37C223.483 174.452 223.483 174.737 223.503 175.125C221.055 171.657 217.403 167.699 212.69 162.823C209.344 159.355 205.856 155.785 202.592 152.092C203.04 151.704 208.345 147.216 214.792 141.239C215.648 142.096 216.444 142.932 217.158 143.728H217.179ZM215.546 140.545C215.73 140.382 215.893 140.198 216.077 140.035C216.22 140.504 216.383 141.055 216.526 141.586C216.199 141.239 215.873 140.892 215.526 140.545H215.546ZM192.411 69.2224C193.799 69.6304 195.39 70.0996 195.859 70.222C197.451 75.7916 198.593 80.9123 199.552 86.849C196.328 94.0099 191.106 103.619 182.354 115.982C182.333 116.023 182.19 116.206 181.986 116.472C178.294 114.472 174.438 112.514 170.501 110.637V110.616C172.112 96.7028 172.194 85.1557 170.786 73.2006L170.582 71.6093C178.314 70.5689 185.659 69.7732 192.391 69.2224H192.411ZM170.541 71.1401C170.215 68.8755 169.766 66.2846 169.317 63.9997C174.948 65.0809 180.395 66.2642 185.557 67.5291C188.025 68.1411 189.331 68.4471 190.269 68.5899C190.412 68.6307 190.657 68.6919 190.922 68.7735C184.557 69.3652 177.702 70.1608 170.521 71.1197L170.541 71.1401ZM97.2602 85.0537C96.4645 84.8497 95.4036 84.6049 94.608 84.4009C88.5692 82.9524 82.8569 81.6263 77.4914 80.443C77.7362 80.3002 77.9606 80.1574 78.1646 80.035C85.9783 76.22 93.3227 71.5481 101.136 67.7331C104.747 72.3438 108.379 76.934 111.969 81.5651C95.526 85.2373 79.6539 89.4604 66.0463 94.0711C61.8028 95.5196 57.437 97.0904 53.1119 98.8245C53.2547 97.9677 53.3567 97.3557 53.3771 97.1516C53.3771 97.1108 53.3771 97.07 53.3771 97.0292C53.3771 97.0292 53.3567 97.0292 53.3363 97.0496C61.8028 90.1744 71.3914 84.1561 76.1857 81.1979C81.1636 82.2996 86.5903 83.544 92.4659 84.9517C94.1524 85.3597 95.5533 85.4209 96.6685 85.1353C96.8317 85.0945 97.0562 85.0333 97.2194 84.9925L97.2602 85.0537ZM40.5448 74.8531C40.5448 74.8531 40.4632 74.8531 40.4427 74.8531C48.5216 75.7916 59.4771 77.6277 74.5332 80.8715C70.1061 83.6256 61.5988 89.2564 53.6423 95.6216C53.6423 95.6216 53.6423 95.6012 53.6423 95.5807C54.1932 94.0711 54.2136 92.4798 54.54 90.9089C55.8661 84.4417 57.2738 79.627 57.8654 77.5665C57.8246 77.5665 57.7838 77.5665 57.743 77.5665C57.4982 77.5257 57.2738 77.4849 57.0289 77.4441C56.9881 77.4441 56.9473 77.4441 56.9065 77.4237C54.9888 83.9316 53.6219 89.8276 52.4387 96.5804C52.4999 96.5396 52.5611 96.4784 52.6223 96.4376C52.3367 96.662 52.051 96.9068 51.7654 97.1312C50.8882 97.8657 48.5012 99.9874 46.3795 101.905C43.0541 103.598 39.6471 105.455 36.3013 107.434C36.1177 107.23 35.9137 107.046 35.7505 106.863C31.303 102.211 27.7736 97.8861 25.1214 93.8058C29.5485 87.3183 34.3836 81.3815 40.5244 74.8531H40.5448ZM53.7443 161.232C45.2778 160.865 38.321 160.538 32.6087 160.212C32.2619 159.967 31.8334 159.641 31.507 159.396C27.6104 156.478 24.1626 153.52 21.1228 150.521C23.4077 149.46 24.5706 148.889 24.6726 148.848C24.591 148.502 24.6114 148.624 24.5298 148.257L20.5924 149.97C19.5111 148.869 18.4706 147.767 17.4914 146.645C18.6338 142.585 20.47 137.016 24.6318 129.712C26.9371 125.673 29.2017 122.49 30.1809 121.123C32.3027 118.144 35.5669 114.737 37.7294 111.8C37.9742 111.535 38.1986 111.29 38.4434 111.024C41.6464 114.146 45.6247 117.716 50.0517 121.47C50.0517 121.878 50.0313 122.286 50.0109 122.714C50.3577 123 50.6842 123.265 51.031 123.551C51.031 123.143 51.031 122.735 51.0514 122.327C72.0442 139.994 102.422 161.66 109.338 163.864C96.6685 163.15 82.7141 162.476 67.3316 161.824C62.8025 161.64 58.5998 161.456 54.7236 161.293C54.1116 158.376 52.8263 152.337 51.9286 143.952C51.2554 137.607 51.4186 131.201 50.8882 124.836C50.623 124.632 50.3781 124.428 50.1129 124.204C50.0721 124.183 50.0313 124.122 49.9905 124.102C49.9089 137.301 51.0718 148.767 53.7647 161.232H53.7443ZM97.301 227.617C97.3826 228.229 97.4846 228.821 97.6274 229.413C97.6274 229.413 97.6478 229.494 97.6682 229.596C96.9541 229.882 96.2605 230.147 95.5464 230.433C95.5464 230.433 95.5873 230.433 95.6077 230.412C95.5465 230.392 95.4648 230.331 95.4036 230.31C94.914 230.045 94.4244 229.78 93.9348 229.515C93.8328 229.413 93.6695 229.311 93.5675 229.209C91.2214 227.291 89.3445 225.557 88.4264 224.7C91.8946 225.72 94.914 226.557 97.2398 227.148C97.2398 227.311 97.2806 227.515 97.2806 227.638L97.301 227.617ZM93.5267 229.27C88.712 226.597 84.8154 224.231 82.7753 222.966C84.4686 223.496 86.0803 223.986 87.6308 224.455C91.2418 227.883 92.119 228.474 93.5267 229.29V229.27ZM97.913 230.433C98.117 231.065 98.5862 232.391 99.5451 233.86C99.2595 233.432 99.2595 233.411 99.0759 233.289C97.6478 232.31 96.6073 231.535 96.1585 231.188C96.1585 231.188 96.1177 231.167 96.0973 231.147C96.1585 231.126 96.2197 231.086 96.2809 231.065C97.301 231.616 98.0558 232.004 98.6882 232.33C98.5658 232.072 98.4638 231.922 98.3822 231.881C97.5866 231.473 97.1786 231.228 96.6073 230.943C97.0357 230.78 97.4642 230.596 97.913 230.433ZM98.015 227.597C98.015 227.597 98.015 227.454 97.9946 227.332C98.831 227.536 99.5451 227.719 100.157 227.842C100.3 227.862 100.871 228.046 101.442 228.209C100.32 228.597 99.2799 228.984 98.2802 229.372C98.2598 229.29 98.2394 229.229 98.2394 229.209C98.1374 228.658 98.0558 228.168 97.9946 227.597H98.015ZM97.9538 226.761C97.9538 226.597 97.9538 226.434 97.9538 226.271C97.9538 223.741 98.321 220.171 100.728 214.805C101.871 212.255 104.054 208.42 106.318 205.115C107.889 202.81 109.501 200.749 110.521 199.464C118.702 203.054 126.781 206.808 134.656 211.031C132.901 214.663 131.432 217.743 130.371 220.089C115.968 223.721 108.052 225.965 102.156 227.985C101.891 227.903 101.687 227.842 101.646 227.842C101.504 227.801 101.34 227.76 101.198 227.719C100.116 227.413 99.0351 227.087 97.9742 226.781L97.9538 226.761ZM160.422 221.273C159.586 222.191 157.791 224.108 156.73 225.312C154.547 222.844 151.14 220.028 146.223 216.825C145.958 216.886 145.693 216.948 145.407 217.029C147.57 216.499 149.773 215.968 151.997 215.418C154.261 214.867 156.444 214.336 158.586 213.806C158.709 213.989 158.831 214.193 158.953 214.377C159.137 214.336 159.382 214.275 159.565 214.234C159.484 214.051 159.423 213.847 159.341 213.622C162.626 212.806 165.788 212.031 168.787 211.296C168.787 211.296 168.766 211.317 168.746 211.337C167.746 212.459 166.93 213.745 165.971 214.928C164.421 216.886 162.728 218.723 161.055 220.559C160.81 218.07 160.178 216.091 159.872 215.193C159.831 215.091 159.79 214.948 159.77 214.846C159.307 214.955 159.035 215.023 158.953 215.05C159.525 216.642 160.157 218.804 160.382 221.293L160.422 221.273ZM161.157 221.273C166.216 215.764 169.174 211.643 169.195 211.603C168.318 214.948 167.134 218.049 165.645 220.824C165.278 221.517 164.401 223.17 163.013 225.149C162.075 226.495 160.973 227.699 159.953 228.984C161.136 226.924 161.238 222.844 161.136 221.293L161.157 221.273ZM169.521 210.317C169.521 210.317 169.44 210.419 169.399 210.48C166.135 211.296 162.707 212.133 159.117 213.031C156.526 206.665 150.997 199.423 144.53 192.507C148.732 183.653 151.895 176.451 154.975 168.78C155.016 168.658 155.159 168.331 155.281 167.985C158.709 168.27 161.973 168.556 165.094 168.842C167.175 174.819 169.419 182.143 170.419 191.12C170.949 195.934 170.807 199.586 170.745 201.157C170.623 204.278 169.889 207.298 169.664 210.399C169.603 210.399 169.542 210.419 169.48 210.44C169.48 210.399 169.501 210.338 169.521 210.297V210.317ZM192.309 170.82C192.228 170.208 192.187 169.576 192.228 168.923C193.023 166.699 193.758 164.557 194.411 162.456C194.921 161.579 195.533 160.64 196.226 159.681C197.961 157.315 200.266 154.867 201.959 153.071C201.755 152.827 201.551 152.602 201.347 152.378C200.674 153.092 199.776 154.051 199.103 154.785C198.022 156.05 196.655 157.621 195.39 159.375C196.553 155.499 197.491 151.909 198.246 148.665C202.49 153.867 207.325 158.825 211.935 163.578C215.444 167.169 218.484 170.392 220.871 173.33C220.851 173.371 220.81 173.411 220.769 173.452C220.178 174.166 219.586 174.86 218.994 175.574C213.18 174.085 204.673 172.473 192.309 170.841V170.82ZM218.239 176.431C216.607 178.348 214.894 180.266 213.057 182.266C213.017 182.306 212.955 182.368 212.894 182.429C204.142 181.368 194.37 178.451 192.513 171.861C204.326 173.432 212.547 174.982 218.219 176.451L218.239 176.431ZM221.218 173.717C222.075 174.799 222.85 175.839 223.523 176.839C222.381 176.472 221.075 176.084 219.586 175.676C220.137 175.023 220.688 174.37 221.238 173.697L221.218 173.717ZM186.883 120.47C191.901 123.408 196.206 126.203 199.817 128.753C200.062 128.937 200.327 129.1 200.572 129.284C200.572 129.284 200.552 129.263 200.531 129.263C199.858 135.18 198.96 140.79 197.797 146.298C191.514 138.219 186.883 129.61 186.883 120.47ZM186.107 116.39C186.005 117.124 185.924 117.859 185.863 118.573C184.945 118.042 184.006 117.512 183.047 117.002C183.394 116.512 183.639 116.166 183.7 116.084C185.23 113.901 186.658 111.82 187.984 109.8C187.087 111.881 186.454 114.064 186.107 116.37V116.39ZM191.187 169.352C191.045 169.76 190.881 170.188 190.739 170.616C181.354 169.413 169.807 168.209 155.669 167.026C155.669 166.985 155.71 166.944 155.71 166.924C156.975 163.68 158.913 158.621 159.525 156.58C159.545 156.499 159.647 156.213 159.79 155.866C161.646 159.906 163.238 163.741 164.707 167.74C164.911 167.767 165.305 167.808 165.89 167.862C165.808 167.617 165.686 167.291 165.604 167.046C163.85 162.191 161.912 157.743 160.341 154.336C162.034 149.358 163.36 144.993 164.707 140.157C164.707 140.076 164.747 139.994 164.768 139.913C164.768 139.913 164.788 139.811 164.829 139.647C170.072 133.731 175.03 127.876 178.6 123.184C179.416 122.123 181.191 119.654 182.415 117.94C183.578 118.593 184.72 119.226 185.822 119.858C185.557 129.855 190.657 139.117 197.512 147.726C196.471 152.459 195.206 157.152 193.717 161.885C193.003 163.068 192.391 164.272 191.963 165.516C191.473 166.883 191.228 168.168 191.208 169.352H191.187ZM156.465 148.971C157.403 150.848 158.28 152.623 159.117 154.377C157.77 158.314 156.097 162.986 154.608 166.822C154.608 166.863 154.588 166.903 154.567 166.924C150.181 166.557 145.55 166.21 140.654 165.843C140.98 165.516 141.225 165.251 141.225 165.231C141.368 165.067 141.531 164.924 141.674 164.741C146.366 159.804 154.873 150.766 163.054 141.606C163.054 141.667 163.034 141.708 163.034 141.708L159.667 152.745C159.667 152.745 159.667 152.786 159.667 152.806C158.77 150.929 158.056 149.481 157.627 148.644C157.525 148.461 157.423 148.216 157.321 148.053C157.117 148.27 156.839 148.576 156.485 148.971H156.465ZM156.097 145.727C149.569 133.201 128.964 99.661 121.864 92.9694C140.98 98.8653 156.607 105.129 169.236 111.167C168.052 120.205 166.277 129.549 163.789 138.954C163.789 138.954 163.748 139.076 163.707 139.239C161.442 141.83 159.117 144.401 156.75 146.992C156.546 146.604 156.301 146.115 156.097 145.727ZM170.378 112.045C170.378 112.045 170.378 111.902 170.419 111.739C174.377 113.656 178.029 115.533 181.395 117.369C181.048 117.838 180.722 118.287 180.64 118.41C175.805 124.938 170.745 131.14 165.441 137.281C165.543 136.832 165.625 136.506 165.645 136.485C165.849 135.914 166.033 135.2 166.318 134.037C168.909 123.408 169.95 115.574 170.419 112.024L170.378 112.045ZM131.187 219.865C132.371 217.376 133.88 214.316 135.308 211.378C138.389 213.051 141.429 214.785 144.407 216.601C144.734 216.519 145.162 216.417 145.468 216.336C145.183 216.152 144.795 215.928 144.53 215.744C141.47 213.887 138.328 212.174 135.614 210.746C140.45 200.973 141.51 198.791 143.51 194.608C143.714 194.18 143.918 193.772 144.101 193.343C148.896 198.199 149.793 199.566 158.239 213.194C156.077 213.724 153.853 214.255 151.589 214.805C143.591 216.744 136.879 218.396 131.167 219.824L131.187 219.865ZM110.745 199.178C111.235 198.566 111.561 198.178 111.602 198.117C115.519 193.16 120.008 187.978 126.271 181.164C126.516 180.899 127.923 179.369 128.046 179.246C128.107 179.165 128.188 179.083 128.25 179.022C133.044 182.939 138.042 187.284 142.53 191.813C142.836 192.119 143.143 192.425 143.428 192.711C143.245 193.119 143.04 193.527 142.857 193.935C141.184 197.485 140.735 198.403 134.941 210.419C132.717 209.277 130.8 208.338 129.494 207.706C123.313 204.686 117.049 201.892 110.745 199.178ZM129.168 178.022C132.105 174.86 134.921 171.881 139.123 167.434C139.164 167.393 139.429 167.128 139.736 166.781C144.815 167.148 149.63 167.515 154.159 167.883C151.221 175.288 147.876 183.102 143.836 191.773C139.144 186.815 134.003 182.082 129.147 178.002L129.168 178.022ZM109.97 163.904C109.113 163.292 108.032 162.538 107.196 161.946C72.4727 137.607 59.7627 128.712 51.0514 121.388C51.235 114.452 51.7654 108.148 52.7243 101.313C66.2707 95.642 81.694 90.6029 97.6886 86.2574C105.706 88.2771 113.234 90.3784 120.293 92.5206C128.78 103.904 144.652 126.223 155.914 147.93C150.895 153.418 145.672 158.967 140.164 164.802C140.062 164.904 139.674 165.312 139.246 165.781C130.371 165.149 120.64 164.516 109.991 163.925L109.97 163.904ZM50.2353 99.9874C50.0109 100.089 49.7865 100.212 49.5621 100.314C50.4394 99.5182 51.0718 98.947 51.133 98.9062C51.5818 98.5389 52.1326 98.1105 52.7855 97.5597C52.8671 97.4985 52.9487 97.4169 53.0303 97.3557C52.5203 97.7637 52.1735 98.0493 52.1735 98.0493C52.1735 98.0493 52.0919 98.5185 51.9694 99.3142C51.3778 99.559 50.7862 99.8038 50.2149 100.049C50.2149 100.049 50.2149 100.028 50.2149 100.008L50.2353 99.9874ZM51.6226 101.783C50.725 108.291 50.2557 113.921 50.0517 120.531C46.2979 117.308 43.1765 114.289 39.1167 110.249C40.5448 108.719 41.9932 107.25 43.5437 105.761C43.5845 105.72 43.8089 105.516 44.1558 105.19C45.0942 104.7 46.0531 104.231 47.0119 103.762C47.0119 103.762 47.6036 103.517 47.9096 103.374C49.1337 102.844 50.3577 102.293 51.6226 101.762V101.783ZM31.8334 160.191C24.999 159.824 19.9803 159.457 16.2673 159.069C16.2673 159.049 16.2469 159.008 16.2265 158.988C16.1245 158.804 15.8593 158.335 15.5737 157.804C15.5737 157.804 15.5737 157.804 15.5737 157.784C15.7573 155.846 15.9205 154.132 16.0225 153.479C16.0429 153.275 16.0837 153.071 16.1245 152.867C17.5934 152.194 19.0827 151.5 20.4088 150.888C23.0813 153.581 25.5907 155.724 27.0391 156.907C30.2829 159.559 30.895 160.069 31.8538 160.212L31.8334 160.191ZM16.2877 151.827C16.5937 150.256 16.9609 148.665 17.2466 147.502C17.3894 147.665 17.5322 147.828 17.6954 147.991C18.4094 148.787 19.1439 149.562 19.8579 150.297L16.3081 151.827H16.2877ZM16.8589 145.992C13.3499 141.892 10.5958 137.689 8.53524 133.303C8.59644 132.976 8.63724 132.67 8.69845 132.344C15.0024 123.184 27.3656 114.166 41.0344 106.822C40.2591 107.597 39.3615 108.536 38.4026 109.556C38.3618 109.515 38.321 109.474 38.2802 109.433C38.117 109.372 37.8926 109.311 37.7294 109.25C37.5254 109.372 37.2398 109.535 37.0153 109.637C37.2398 109.862 37.4642 110.086 37.6886 110.31C37.4642 110.555 37.2194 110.82 36.9745 111.086C22.3877 127.774 18.0422 141.647 16.8385 145.951L16.8589 145.992ZM8.98406 130.834C9.02487 130.589 9.31048 129.386 9.5961 128.121C9.88172 126.876 10.7998 123.326 11.065 122.51C11.7382 120.246 12.5135 118.043 13.3703 115.798C16.2265 108.454 19.6947 102.293 22.1021 98.4369C22.3673 98.0085 23.2853 96.6212 23.5709 96.1112C23.5709 96.1112 24.2442 95.1115 24.5706 94.6015C27.7124 99.4774 31.6498 104.006 35.3832 107.964C24.693 114.431 14.6148 122.347 8.98406 130.834ZM169.48 71.7521C170.868 83.9521 170.909 95.7848 169.338 110.045C169.338 110.045 169.338 110.066 169.338 110.086C154.363 103.027 137.838 96.8456 121.232 91.7249C121.13 91.5821 120.966 91.3985 120.926 91.3169C118.212 87.7059 115.784 84.5437 114.193 82.5036C114.132 82.422 114.03 82.2996 113.969 82.2179C113.54 82.32 113.092 82.422 112.663 82.5036C113.622 83.748 116.192 87.0734 118.967 90.7457C119.008 90.7865 119.13 90.9497 119.253 91.0925C113.438 89.3176 107.604 87.6855 101.85 86.1962C100.524 85.9718 99.7899 85.8698 99.2391 85.829C122.904 79.4842 147.733 74.7103 169.501 71.7521H169.48ZM198.817 78.2193C198.348 76.1996 197.777 73.8534 197.083 71.3849C197.002 71.1197 196.9 70.7729 196.839 70.5076C197.226 70.6096 197.614 70.7321 197.981 70.8341C198.185 73.1598 198.45 75.6284 198.817 78.2193ZM196.329 68.9164C196.839 68.8755 197.328 68.8551 197.818 68.8143C197.838 69.1816 197.859 69.5488 197.899 69.916C197.471 69.7936 196.941 69.6712 196.512 69.5488C196.451 69.4468 196.41 69.1204 196.329 68.9164ZM200.45 87.4815C200.144 88.1751 200.103 88.3791 200.613 94.4383C197.675 96.8252 195.084 99.2938 192.921 101.885C196.206 96.3152 198.654 91.5209 200.45 87.4815ZM200.694 95.642C200.756 96.3968 200.837 97.2537 200.898 98.1717C202.061 112.249 201.062 123.224 200.613 127.978C196.369 124.959 191.759 122.021 186.862 119.205C186.903 118.328 186.985 117.451 187.128 116.574C188.576 106.822 196.247 99.3958 200.694 95.642ZM201.266 129.834C206.57 133.67 210.732 137.26 213.955 140.423C210.446 143.605 206.937 146.767 203.551 150.093C203.102 150.521 202.53 151.113 202.082 151.562C200.837 150.154 199.633 148.726 198.491 147.257C200.878 136.567 201.245 129.977 201.245 129.834H201.266ZM223.483 166.047C223.258 164.557 222.87 162.497 222.279 159.6C221.32 154.989 219.892 149.766 218.607 145.38C221.218 148.42 222.748 150.766 223.564 152.153C225.359 155.214 227.746 159.457 228.501 162.946C228.501 163.027 228.542 163.129 228.562 163.211C227.134 165.251 225.584 167.352 223.891 169.535C223.789 168.413 223.625 166.822 223.503 166.067L223.483 166.047ZM226.196 182.694C225.808 182.755 225.359 182.796 224.829 182.837C225.155 182.327 225.461 181.796 225.767 181.286C225.931 181.756 226.073 182.225 226.196 182.694ZM224.482 182.857C224.237 182.857 223.993 182.878 223.727 182.898C223.727 182.755 223.768 182.592 223.789 182.449C224.033 180.45 224.115 178.879 224.135 178.246C224.217 178.267 224.299 178.308 224.38 178.328C224.89 179.205 225.319 180.062 225.645 180.919C225.257 181.572 224.87 182.204 224.482 182.857ZM223.279 182.245C223.258 182.47 223.238 182.694 223.197 182.918C220.626 183 217.179 182.918 213.506 182.51C215.404 180.45 217.117 178.512 218.749 176.594C220.606 177.084 222.197 177.573 223.523 178.042C223.483 179.511 223.401 180.858 223.258 182.266L223.279 182.245ZM189.943 205.095C184.149 206.706 177.58 208.42 170.195 210.276C178.6 198.831 185.087 187.039 190.637 173.126L191.065 171.739C190.793 171.698 190.548 171.664 190.331 171.637C188.617 176.043 185.047 185.224 178.62 196.322C176.111 200.647 173.092 204.625 170.521 208.91C173.989 192.711 168.542 175.941 166.706 170.331C166.563 169.923 166.38 169.392 166.257 168.984C176.029 169.902 184.333 170.82 191.391 171.739C193.023 178.797 202.836 182.306 212.16 183.53C210.201 185.489 207.59 188.1 205.631 190.059C200.429 195.22 195.084 200.321 189.963 205.115L189.943 205.095ZM159.3 229.148C158.811 228.066 158.076 226.903 157.015 225.659C158.076 224.557 159.606 222.905 160.443 222.007C160.504 223.211 160.79 226.291 159.3 229.148ZM156.363 235.023C156.199 235.084 156.036 235.125 155.873 235.186C157.077 233.962 158.137 232.595 158.974 231.045C159.096 231.596 159.137 232.147 159.117 232.697C158.77 232.983 158.525 233.207 158.341 233.35C157.648 233.942 156.995 234.493 156.363 235.023ZM159.096 233.126C159.096 233.126 159.096 233.269 159.076 233.35C159.035 233.636 158.974 233.921 158.872 234.187C158.729 234.227 158.607 234.268 158.464 234.329C157.933 234.513 157.403 234.676 156.873 234.839C157.607 234.289 158.341 233.697 159.096 233.105V233.126ZM159.627 234.125C162.503 233.146 165.91 231.983 168.256 231.126C171.398 229.984 174.316 228.862 177.029 227.781C177.478 227.597 177.927 227.413 178.355 227.23C178.355 227.23 178.314 227.23 178.294 227.25C174.785 228.903 171.5 230.984 167.991 232.636C163.972 234.533 160.606 235.86 158.953 236.492C158.321 236.737 157.77 236.961 157.342 237.124C158.382 236.227 159.178 235.227 159.606 234.105L159.627 234.125ZM156.771 237.328C154.465 238.165 152.507 238.838 150.691 239.43C151.14 239.124 151.589 238.797 152.078 238.43C152.16 238.389 152.241 238.308 152.323 238.246C152.568 238.063 152.792 237.9 153.037 237.696C153.139 237.634 153.221 237.573 153.323 237.492C153.486 237.369 153.629 237.247 153.792 237.145C153.874 237.084 153.955 237.022 154.016 236.982C154.016 236.982 154.016 236.982 154.037 236.982C154.159 236.9 154.302 236.798 154.424 236.696C155.077 236.227 155.73 235.737 156.403 235.227C157.505 234.88 158.362 234.595 158.749 234.431C158.749 234.431 158.79 234.431 158.811 234.431C158.403 235.554 157.607 236.553 156.771 237.369V237.328ZM150.303 239.552C149.997 239.654 149.691 239.756 149.385 239.838C151.67 238.655 153.792 237.226 155.587 235.472C155.73 235.431 155.852 235.39 155.995 235.35C155.342 235.88 154.73 236.37 154.159 236.839C154.118 236.88 154.078 236.9 154.016 236.941C153.792 237.104 153.568 237.267 153.343 237.451C153.098 237.634 152.833 237.798 152.588 238.002C152.527 238.063 152.445 238.124 152.384 238.185C151.67 238.675 150.977 239.144 150.303 239.593V239.552ZM155.24 235.39C153.67 235.9 152.078 236.39 150.507 236.92C150.569 236.88 150.63 236.839 150.732 236.798C154.975 234.248 157.689 231.698 158.566 230.82C157.709 232.493 156.587 234.023 155.24 235.411V235.39ZM149.895 237.124C149.732 237.186 149.569 237.226 149.406 237.288C148.998 237.41 142.694 239.369 138.899 240.531C135.839 241.47 135.676 241.511 135.349 241.653C135.37 241.572 135.39 241.47 135.41 241.388C146.386 236.084 154.914 227.699 156.424 226.169C157.505 227.495 158.321 228.842 158.77 230.229C156.097 232.922 153.282 235.105 149.875 237.124H149.895ZM103.646 228.413C103.646 228.413 103.625 228.413 103.585 228.413C110.766 225.985 119.742 223.496 130.004 220.865C127.291 226.903 125.536 231.494 124.7 234.901C124.822 234.941 124.965 235.003 125.087 235.044C126.005 231.555 127.597 227.536 130.555 221.171C130.596 221.109 130.677 220.885 130.8 220.661C135.349 219.498 140.164 218.294 145.162 217.09C149.324 219.763 153.506 222.742 156.199 225.883C154.894 227.169 150.915 231.086 146.141 234.635C145.183 235.35 143.428 236.655 140.96 238.206C139.164 239.328 137.226 240.246 135.431 241.368C135.716 237.675 118.131 232.595 103.666 228.393L103.646 228.413ZM99.7287 234.146C98.6066 233.738 97.4846 233.35 96.3829 232.922C95.9137 232.738 94.5264 232.228 94.0776 232.065C94.6284 231.82 95.22 231.555 95.8117 231.31C97.1377 232.289 98.2394 233.065 99.6063 233.942C99.6063 233.942 99.6063 233.942 99.5859 233.921C99.6471 234.003 99.6879 234.085 99.7287 234.146ZM92.9351 231.637C92.5475 231.494 92.1599 231.351 91.8334 231.208C72.5135 223.823 57.335 216.499 45.8695 208.91C56.8045 214.214 70.3509 219.029 81.4492 222.538C83.5913 223.843 94.4448 230.249 95.016 230.678C94.2816 231.004 93.5879 231.31 92.9555 231.616L92.9351 231.637ZM39.4227 205.299C39.1575 205.013 38.8311 204.666 38.5658 204.401C38.1374 203.932 37.709 203.462 37.2806 203.014C38.8719 204.319 40.5448 205.625 42.3401 206.91C41.3404 206.38 40.3611 205.849 39.4023 205.319L39.4227 205.299ZM14.982 158.906C13.8396 158.763 12.8399 158.621 11.983 158.478C11.6566 157.376 11.3506 156.295 11.0446 155.193C11.7178 154.887 12.4523 154.54 13.2479 154.173C13.8396 155.377 14.4108 156.54 14.9616 157.58C15.0024 156.995 14.9344 156.533 14.7576 156.193C14.37 155.458 14.0028 154.724 13.6559 154.01C14.2272 153.745 14.8188 153.459 15.4104 153.194C15.4104 153.255 15.4104 153.316 15.39 153.357C15.288 154.132 15.1248 156.478 15.0024 158.906H14.982ZM10.7794 154.214C9.77971 150.399 9.00446 146.645 8.43323 142.993C8.43323 142.871 8.37203 142.565 8.31082 142.218C9.18808 145.135 10.9834 149.44 12.8195 153.316L10.759 154.193L10.7794 154.214ZM11.6974 158.437C10.3305 158.192 9.26968 157.947 8.45363 157.662C8.41283 157.335 8.35162 156.968 8.27002 156.499C8.57604 156.356 9.4941 155.928 10.7386 155.356C11.2486 157.172 11.6158 158.233 11.6974 158.437ZM7.37237 133.568C7.37237 133.568 7.37237 133.486 7.37237 133.425C7.37237 133.343 7.37237 133.262 7.35197 133.18C7.35197 133.078 7.24996 132.14 7.22956 131.875C7.22956 131.711 7.18876 131.344 7.18876 131.344C7.22956 131.446 7.69879 132.609 7.80079 132.813C7.65798 133.058 7.51518 133.323 7.37237 133.568ZM18.7971 76.8524C18.7971 76.628 18.7766 76.3424 18.7766 76.1384C18.7766 75.8528 18.7766 75.5672 18.7766 75.3019C21.5104 74.2819 26.7739 73.3434 39.6267 74.7715C33.7103 81.0959 29.0385 86.8694 24.7338 93.1938C21.286 87.7467 19.2867 81.7283 18.7971 76.8728V76.8524ZM63.8225 53.697C64.5366 53.697 65.271 53.7378 65.9851 53.7582C62.4761 61.1435 59.6607 68.3859 57.2126 76.4036C51.337 75.3427 46.0735 74.5471 41.4016 73.9963C48.1952 66.9578 55.2132 60.5518 63.8022 53.7174L63.8225 53.697ZM64.9242 52.8606C65.6791 52.3506 66.4339 51.8201 67.1888 51.2693C67.0255 51.5957 66.7399 52.167 66.3931 52.9014C65.9035 52.9014 65.4138 52.881 64.9242 52.8606ZM68.6372 50.2084C71.473 48.0663 74.2476 45.8222 77.1446 43.782C78.7766 42.6396 80.4495 41.5379 82.1225 40.4771C84.3258 44.5981 86.9371 48.7395 90.6298 53.9215C82.3265 53.4522 74.472 53.1258 67.2908 52.9422C67.7396 52.0037 68.168 51.1469 68.6372 50.2288V50.2084ZM123.659 57.4917C138.797 59.0626 154.078 61.1231 168.216 63.7957C168.664 66.1622 169.154 68.9572 169.46 71.2829C151.772 73.6902 132.167 77.1176 113.275 81.2999C113.173 81.1571 113.03 80.9939 112.928 80.8511C111.895 79.5182 108.44 75.1115 102.564 67.6311C102.462 67.5087 102.34 67.3455 102.238 67.223C108.726 64.1017 116.315 60.7151 123.659 57.4917ZM161.585 42.4764C162.462 44.5369 163.401 46.8626 164.156 48.964C160.688 47.7195 157.179 46.5158 153.69 45.3937C154.139 45.2305 154.526 45.0877 154.628 45.0469C156.75 44.2513 159.117 43.3944 161.585 42.4968V42.4764ZM162.381 42.1908C167.971 40.171 174.173 38.0493 179.987 36.2132C180.008 36.254 180.048 36.2744 180.069 36.3152C181.864 38.9674 185.985 45.0469 190.065 54.2479C191.065 56.5124 191.718 58.8993 192.86 61.1027C184.067 56.7164 174.764 52.7994 165.298 49.3516C165.278 49.2904 165.257 49.2292 165.237 49.168C164.054 45.863 162.973 43.4556 162.564 42.558C162.564 42.5172 162.483 42.354 162.401 42.1703L162.381 42.1908ZM194.288 62.6736C195.41 63.2448 196.533 63.8364 197.634 64.4281C197.655 65.6522 197.716 66.917 197.797 68.2023C197.267 68.2431 196.716 68.2839 196.186 68.3247C196.145 68.2227 196.104 68.0799 196.084 67.9779C195.145 64.9585 194.309 62.694 194.309 62.694C194.309 62.694 194.309 62.6736 194.309 62.6532L194.288 62.6736ZM201.857 93.459C201.714 93.561 201.592 93.6834 201.449 93.7854C201.286 92.3982 201.123 90.9905 200.919 89.6032C201.143 90.5416 201.51 92.0921 201.857 93.4794V93.459ZM202.122 94.4995C202.204 94.8259 202.265 95.1319 202.347 95.3767C202.836 97.9881 204.081 101.905 215.75 138.831C215.424 139.117 215.098 139.423 214.771 139.709C210.936 135.873 206.488 132.181 201.551 128.61C202.734 116.859 202.755 105.985 201.572 94.9075C201.755 94.7647 201.939 94.6015 202.102 94.4791L202.122 94.4995ZM198.96 71.1197C200.919 71.7113 202.775 72.2826 204.571 72.8742C204.53 73.0374 204.509 73.1394 204.489 73.1802C203.897 75.3835 202.898 78.9538 200.817 84.0133C200.042 79.3822 199.389 75.1591 198.96 71.1197ZM198.858 70.1812C198.817 69.712 198.777 69.2224 198.736 68.7531C200.837 68.6307 202.877 68.5287 204.836 68.4471C205.203 68.6715 205.489 68.8347 205.509 68.8347C205.387 69.5284 205.223 70.1608 205.203 70.2424C205.101 70.7117 204.999 71.1605 204.897 71.6297C204.897 71.6705 204.856 71.8337 204.795 72.0377C202.898 71.4053 200.939 70.7933 198.899 70.1812H198.858ZM198.675 68.1207C198.593 67.019 198.532 65.9378 198.471 64.8565C199.47 65.4073 200.47 65.9582 201.449 66.509C201.918 66.7742 202.286 66.9782 202.632 67.1414C202.816 67.2435 203.245 67.5087 203.734 67.7943C202.102 67.8963 200.429 67.9983 198.695 68.1207H198.675ZM198.43 63.9793C198.205 57.8997 198.613 51.9017 199.94 45.1285C200.246 43.578 200.837 40.9463 201.368 38.4981C205.937 46.9442 207.304 55.982 205.795 66.8354C205.795 66.8762 205.754 67.2231 205.672 67.6719C205.468 67.6719 205.244 67.6923 205.019 67.7127C204.632 67.4883 204.122 67.1823 203.734 66.9578C202 65.9378 200.225 64.9585 198.43 63.9997V63.9793ZM206.243 69.2836C207.508 70.0588 209.365 71.2013 211.385 72.5478C213.466 73.9146 215.363 75.5264 217.485 76.8524C217.485 76.8524 217.525 76.8728 217.546 76.8932C213.935 75.3019 209.936 73.7514 205.529 72.2826C205.652 71.7929 205.754 71.3849 205.835 71.0993C205.978 70.5893 206.121 69.9772 206.243 69.2836ZM220.218 78.9946C220.708 79.4026 221.198 79.8106 221.667 80.2186C214.526 84.6253 207.978 88.7055 202.49 92.9286C202.347 92.3982 202.224 91.9085 202.102 91.3985C201.776 89.5216 201.449 87.7059 201.143 85.9514C201.959 84.0541 202.632 82.3608 203.163 80.8511C203.918 78.7293 204.754 75.3835 205.325 73.0986C211.221 75.0775 216.138 77.0564 220.239 78.9946H220.218ZM221.136 79.4434C221.667 79.6882 221.626 79.6882 222.136 79.933C222.054 79.9738 221.993 80.0146 221.912 80.0758C221.198 79.5658 221.279 79.5454 221.136 79.4434ZM222.503 80.9531C231.419 88.7871 236.743 95.6624 239.946 102.436C240.191 104.006 240.518 106.087 240.803 108.597C239.885 111.269 238.314 114.37 235.703 117.859C234.05 120.062 231.276 123.755 224.686 130.365C222.014 133.037 219.259 135.608 216.464 138.158C216.464 138.158 216.322 137.668 216.26 137.424C206.345 105.965 203.918 98.1309 202.775 93.9691C202.796 93.9691 202.816 93.9283 202.857 93.9079C208.508 89.6236 211.242 87.8283 221.096 81.8507C221.606 81.5447 222.075 81.2591 222.544 80.9735L222.503 80.9531ZM229.358 179.471C229.766 177.532 230.215 174.533 230.297 172.881C234.846 163.476 238.069 153.683 239.967 143.626C242.639 136.934 244.088 130.467 244.394 124.102C244.394 125.734 244.353 127.101 244.353 128.284C244.353 128.447 244.271 130.834 244.251 130.875C244.108 132.772 243.884 135.18 243.598 138.505C243.007 141.994 242.272 146.91 241.925 148.808C241.538 150.399 240.762 153.643 240.089 156.254C239.987 156.662 239.865 157.111 239.763 157.539C239.742 157.6 239.008 160.069 238.987 160.13C238.62 161.211 238.273 162.191 237.967 163.088C237.702 163.864 237.457 164.578 237.233 165.231C236.886 166.21 235.866 168.903 235.601 169.515C235.009 170.902 234.275 172.575 233.357 174.697C233.234 174.982 231.561 178.328 231.439 178.634C231.072 179.328 230.684 180.042 230.276 180.776C230.276 180.613 230.256 180.409 230.297 180.266C230.072 180.021 229.766 179.736 229.378 179.471H229.358ZM228.44 182.143C228.624 181.592 228.787 181.103 228.93 180.654C229.297 180.96 229.562 181.245 229.746 181.531C229.419 181.776 229.113 181.939 228.44 182.143ZM226.257 187.815C226.318 187.651 226.359 187.488 226.4 187.325C226.522 186.978 226.645 186.652 226.726 186.305C227.298 185.081 227.746 184 228.114 183.041C228.828 182.776 229.174 182.551 229.358 182.408C229.215 182.674 229.072 182.939 228.93 183.204C228.032 184.795 227.134 186.366 226.277 187.815H226.257ZM224.768 190.018C224.768 190.018 224.809 189.957 224.829 189.916C225.298 189.12 225.706 188.345 226.073 187.631C225.951 188.039 225.788 188.447 225.584 188.855C225.4 189.141 225.217 189.467 224.992 189.732C224.951 189.794 224.911 189.855 224.87 189.916C224.829 189.957 224.809 189.998 224.768 190.038V190.018ZM220.953 193.282C221.891 191.018 222.768 188.284 223.381 185.122C223.666 184.673 223.952 184.244 224.237 183.796C225.013 183.714 225.747 183.612 226.4 183.51C226.584 184.673 226.563 185.815 226.298 186.937C225.788 188.039 225.196 189.161 224.543 190.324C223.605 191.344 222.422 192.323 220.994 193.303L220.953 193.282ZM216.811 200.729C216.913 200.586 216.995 200.463 217.056 200.382C217.954 199.158 219.361 196.975 220.708 193.874C222.075 192.935 223.197 191.956 224.135 190.956C223.544 191.813 222.891 192.956 222.299 193.853C222.218 193.996 222.116 194.139 222.014 194.282C222.014 194.282 221.891 194.445 221.83 194.527C221.81 194.567 221.789 194.588 221.769 194.629C221.646 194.812 221.361 195.2 221.422 195.139L221.3 195.302C221.3 195.302 221.259 195.343 221.259 195.363C221.238 195.384 221.218 195.424 221.177 195.465C220.851 195.873 220.545 196.281 220.218 196.71C219.892 197.118 219.545 197.526 219.219 197.934C219.035 198.158 218.872 198.383 218.688 198.607C218.097 199.321 217.464 200.035 216.832 200.729H216.811ZM199.429 216.519C205.346 212.072 210.834 207.257 215.546 202.157C214.241 203.728 212.16 206.196 211.772 206.604C209.487 208.91 205.57 212.623 199.429 216.519ZM194.513 219.396C191.351 221.089 188.127 222.619 184.843 224.047C183.619 224.578 182.394 225.088 181.17 225.577C185.516 223.129 199.511 214.561 213.343 198.607L214.18 197.546C214.18 197.546 214.159 197.546 208.916 203.116C206.06 206.135 202.898 209.175 199.736 211.929C191.555 219.049 184.231 223.639 180.722 225.761C179.457 226.271 178.171 226.781 176.907 227.291C173.969 228.434 171.011 229.556 168.073 230.698C166.053 231.473 163.421 232.453 161.075 233.391C160.749 233.493 160.178 233.697 159.708 233.86C159.872 233.391 159.974 232.881 159.994 232.351C169.44 224.822 180.497 214.724 190.025 205.666C204.815 201.524 214.465 198.036 220.259 194.18C219.28 196.465 218.076 198.648 216.607 200.831C216.607 200.851 216.567 200.871 216.567 200.892C216.485 201.014 216.26 201.279 215.975 201.647C210.671 207.4 204.509 212.663 198.103 217.356C196.981 218.049 195.778 218.723 194.513 219.416V219.396ZM142.877 243.367C142.877 243.367 142.938 243.367 142.979 243.347C143.122 243.306 143.449 243.184 143.489 243.184C143.591 243.143 143.693 243.122 143.795 243.061C143.816 243.061 143.999 242.98 144.061 242.959C144.101 242.959 144.163 242.918 144.203 242.898C144.53 242.796 144.856 242.694 145.203 242.592C145.305 242.572 145.407 242.551 145.529 242.51C145.876 242.408 146.223 242.327 146.57 242.225C146.774 242.164 146.958 242.102 147.162 242.041C147.386 241.98 149.855 241.327 153.343 239.634C153.404 239.593 153.486 239.573 153.568 239.532C153.955 239.348 154.343 239.144 154.71 238.92C155.098 238.695 155.485 238.471 155.873 238.226C156.036 238.124 156.199 238.022 156.363 237.879C156.669 237.655 156.975 237.43 157.26 237.206C164.564 234.452 172.031 231.004 178.824 227.107C179.028 226.985 179.293 226.842 179.497 226.72C181.436 225.904 183.272 225.108 185.006 224.333C188.821 222.599 194.554 219.579 194.146 219.845C192.269 221.089 187.576 224.292 182.537 227.291C176.927 230.637 170.909 233.717 169.154 234.574C166.114 235.921 159.178 238.94 156.26 240.021C155.118 240.389 152.078 241.429 151.058 241.735C150.691 241.837 150.263 241.96 150.099 242C150.018 242.021 149.916 242.041 149.834 242.082L149.487 242.164C148.916 242.306 148.345 242.429 147.774 242.551C146.998 242.714 144.101 243.286 143.306 243.347C143.143 243.347 143.02 243.347 142.918 243.347L142.877 243.367ZM134.309 244.326C134.676 244.285 135.023 244.204 135.39 244.142C135.839 244.061 136.288 244.02 136.737 243.938C137.206 243.857 137.675 243.775 138.144 243.653C138.348 243.592 138.552 243.551 138.756 243.51C138.838 243.51 138.919 243.469 139.001 243.449C139.47 243.367 139.94 243.245 140.409 243.122C141 242.98 141.592 242.816 142.163 242.653C142.775 242.47 143.387 242.266 143.979 242.062C144.265 241.96 144.55 241.858 144.815 241.756C144.958 241.715 145.611 241.429 145.591 241.429C146.55 241.062 147.508 240.654 148.447 240.205C148.651 240.103 148.875 240.001 149.079 239.899C149.426 239.797 149.753 239.695 150.079 239.613C149.018 240.307 147.998 240.919 147.06 241.449C146.896 241.552 146.305 241.858 146.203 241.919C145.795 242.143 144.897 242.572 144.836 242.592C144.611 242.674 143.163 243.388 140.062 243.918C139.878 243.959 139.695 243.979 139.511 244C139.144 244.04 138.777 244.081 138.409 244.122C137.899 244.183 137.369 244.183 136.859 244.244C136.757 244.244 135.818 244.326 135.451 244.346C135.064 244.346 134.676 244.346 134.288 244.346L134.309 244.326ZM129.004 244.102C129.433 244.04 129.841 243.979 130.249 243.918C132.33 243.592 133.615 243.102 134.207 242.735C134.798 242.388 135.166 242.021 135.308 241.653C141.062 239.919 144.571 238.838 146.713 238.185C146.998 238.104 148.018 237.777 149.344 237.369C149.283 237.39 149.222 237.43 149.181 237.451C148.549 237.777 147.916 238.145 147.304 238.512C147.202 238.573 145.019 239.552 144.877 239.613C143.693 240.144 141.796 240.939 139.266 241.735C136.92 242.47 134.492 242.898 132.126 243.551C132.371 243.51 132.677 243.449 132.921 243.388C137.369 242.51 141.857 241.103 144.877 239.654C145.019 239.593 147.223 238.614 147.345 238.553C148.508 237.981 149.344 237.512 149.671 237.328C149.671 237.328 149.753 237.267 149.814 237.226C151.385 236.737 153.282 236.145 154.934 235.615C153.282 237.247 151.283 238.675 148.957 239.899C143.591 241.511 139.185 242.306 130.575 243.877C137.818 242.878 144.122 241.347 148.712 240.021C148.61 240.083 148.508 240.123 148.406 240.185C147.488 240.654 145.387 241.613 142.265 242.592C141.551 242.816 141 242.939 140.348 243.102C139.94 243.204 139.511 243.306 139.103 243.388C138.96 243.408 138.715 243.449 138.573 243.49C138.369 243.53 138.185 243.592 137.981 243.632C137.961 243.632 137.94 243.632 137.899 243.632C137.818 243.632 137.757 243.653 137.695 243.673C137.389 243.734 137.083 243.816 136.757 243.857C136.716 243.857 136.675 243.857 136.635 243.877C136.186 243.959 135.737 244 135.288 244.081C134.839 244.163 134.411 244.204 133.962 244.306C133.574 244.306 133.187 244.306 132.799 244.306C132.575 244.306 131.024 244.306 130.718 244.306C130.331 244.306 129.943 244.306 129.535 244.306C129.351 244.244 129.168 244.163 128.984 244.102H129.004ZM127.291 244.265C127.617 244.122 127.944 244 128.27 243.898C128.331 243.898 128.392 243.938 128.454 243.959C128.29 244.02 128.107 244.061 127.903 244.122C128.107 244.081 128.29 244.02 128.474 243.959C128.596 244 128.698 244.04 128.821 244.081C128.678 244.081 128.535 244.122 128.392 244.142L127.332 244.265C127.699 244.224 128.168 244.163 128.535 244.122C128.617 244.122 128.719 244.102 128.841 244.081H128.882C128.433 244.142 128.005 244.183 127.556 244.224C127.76 244.224 127.984 244.183 128.188 244.163C128.413 244.142 128.617 244.102 128.841 244.081H128.882C128.617 244.122 128.372 244.142 128.148 244.183C128.413 244.163 128.678 244.142 128.923 244.102C129.106 244.163 129.29 244.224 129.494 244.306C129.372 244.306 129.27 244.306 129.147 244.306C128.882 244.306 128.596 244.306 128.331 244.306C128.331 244.306 127.903 244.306 127.719 244.285C127.597 244.285 127.474 244.285 127.352 244.285C127.413 244.285 127.454 244.285 127.515 244.285H127.332C127.393 244.285 127.474 244.285 127.536 244.265H127.332H127.291ZM127.25 244.265C126.516 243.938 125.944 243.49 125.495 242.939C126.414 243.245 127.332 243.551 128.25 243.877C128.046 243.959 127.842 244.04 127.638 244.102C127.536 244.142 127.393 244.204 127.291 244.244L127.25 244.265ZM127.209 244.265H127.128V244.244C127.128 244.244 127.148 244.244 127.168 244.244H127.23C127.23 244.244 127.148 244.244 127.128 244.244C127.128 244.244 127.128 244.244 127.128 244.224C127.128 244.224 127.066 244.224 126.944 244.204C124.435 243.53 122.007 242.592 119.538 241.756C119.579 241.756 119.62 241.756 119.62 241.756C117.682 240.98 113.785 239.328 111.684 238.369C116.233 239.879 120.803 241.368 125.353 242.898C125.801 243.449 126.393 243.877 127.128 244.204L127.27 244.265H127.209ZM127.148 244.265C126.964 244.265 126.781 244.265 126.597 244.265C126.597 244.265 126.618 244.265 126.638 244.265H126.597C119.477 244.04 114.622 242.878 111.765 241.919C110.929 241.633 108.42 240.797 105.951 239.328C104.584 238.512 103.544 237.288 102.299 236.308C102.218 236.247 101.83 236.002 100.79 234.697C100.851 234.717 100.912 234.737 100.994 234.758C101.096 234.839 101.238 234.921 101.422 235.023C102.544 235.717 102.932 235.941 103.36 236.125C103.585 236.247 104.319 236.655 105.339 237.226C105.91 237.532 107.563 238.247 107.828 238.389C107.869 238.389 111.725 240.348 116.029 241.796C116.682 242.021 118.661 242.653 120.742 243.122C123.292 243.694 126.005 244.122 126.883 244.265H126.74C126.74 244.265 126.842 244.265 126.903 244.265C127.066 244.285 127.148 244.306 127.148 244.306C127.168 244.306 127.189 244.306 127.23 244.306H127.189L127.148 244.265ZM108.726 244.04C115.54 244.265 123.272 244.408 126.128 244.346C126.128 244.346 126.128 244.346 126.107 244.346C125.312 244.428 123.904 244.55 121.538 244.632C119.722 244.693 117.927 244.632 116.111 244.571C113.642 244.469 111.174 244.265 108.726 244.061V244.04ZM88.1408 240.511C89.4261 240.919 90.691 241.307 91.3438 241.511C91.609 241.592 91.8334 241.653 92.7107 241.878C96.2197 242.796 99.7899 243.347 103.401 243.632C104.135 243.694 104.849 243.755 105.584 243.816C101.483 243.653 98.1782 243.469 97.2194 243.306C94.8732 242.918 92.5067 242.47 90.2829 241.613C89.7933 241.429 88.9569 241.001 88.1204 240.491L88.1408 240.511ZM86.7331 239.511C85.9987 238.879 85.6519 238.246 85.6723 237.961C85.7131 237.492 86.1211 236.941 86.7127 236.39C87.3452 236.655 88.9977 237.165 89.1405 237.226C95.4648 239.409 101.708 241.041 107.991 242.204C99.1371 240.531 92.4455 238.287 89.0793 237.104C88.8549 237.022 87.3452 236.492 86.8147 236.308C88.2836 234.982 90.7318 233.656 91.2622 233.371C92.0374 232.963 92.8535 232.534 93.7715 232.126C94.2204 232.289 95.6281 232.82 96.0973 232.983C97.3826 233.452 98.6678 233.921 99.9531 234.37C99.9531 234.37 99.9531 234.391 99.9735 234.411C100.137 234.656 100.3 234.901 100.504 235.125C100.667 235.288 100.81 235.472 100.994 235.615C103.034 237.757 108.97 243.592 126.046 244.224C126.189 244.224 126.332 244.224 126.475 244.224C126.699 244.224 126.924 244.224 127.128 244.224C127.087 244.224 127.066 244.224 127.046 244.224C127.005 244.224 126.903 244.224 126.72 244.244C124.271 244.346 114.642 244.122 106.992 243.836C106.502 243.796 105.992 243.755 105.502 243.714C103.564 243.551 101.626 243.408 99.7083 243.122C97.7906 242.837 95.8729 242.47 93.9756 242.062C93.7716 242.021 91.9558 241.551 89.9769 240.96C89.3037 240.756 88.61 240.552 87.9368 240.327C87.5084 240.042 87.0799 239.756 86.7331 239.45V239.511ZM23.6321 192.548C23.6321 192.548 23.775 192.711 23.775 192.731C24.0198 193.037 24.285 193.364 24.5706 193.69C25.6315 194.914 26.9983 196.281 28.7937 197.872C28.8345 197.913 29.2221 198.24 29.2425 198.26C29.3445 198.342 29.4465 198.423 29.5281 198.505C29.6913 198.689 30.2421 199.158 30.3441 199.239C30.4666 199.341 30.9358 199.749 31.0582 199.851C31.1398 199.933 31.2418 200.015 31.3438 200.096C31.3846 200.137 31.6702 200.341 31.6906 200.361C32.1803 200.769 32.6903 201.157 33.2411 201.565C33.2615 201.565 33.5267 201.769 33.5267 201.769C33.6695 201.871 33.792 201.973 33.9348 202.055C33.9348 202.055 33.9348 202.055 33.9552 202.055C33.9756 202.075 33.996 202.096 34.0368 202.116C35.6077 203.218 37.3418 204.299 39.2391 205.38C40.708 206.849 42.6053 208.726 43.1969 209.297C43.1969 209.297 43.1561 209.277 43.1357 209.277C43.3193 209.44 43.4825 209.603 43.6661 209.766C43.7477 209.848 43.7885 209.868 43.7885 209.868C59.9259 224.843 75.9001 232.147 82.6529 234.778C82.9385 234.88 85.9987 236.084 86.0803 236.125C85.1214 237.267 85.1622 238.022 85.2846 238.369C85.509 238.961 86.1415 239.552 86.8963 240.062C85.8151 239.715 84.9174 239.389 84.4482 239.205C82.7753 238.512 80.6944 237.532 79.4703 236.982C79.3071 236.9 79.1643 236.839 79.0419 236.798C77.3486 236.084 74.064 234.595 74.064 234.574C73.8192 234.452 73.5947 234.35 73.3499 234.227C73.0643 234.085 71.8606 233.513 71.8198 233.513C71.5546 233.391 71.3098 233.269 71.065 233.126C70.8202 232.983 70.555 232.861 70.2897 232.738C70.0041 232.595 69.4329 232.31 69.4329 232.31C69.4329 232.31 65.9647 230.555 64.557 229.76C62.9045 228.821 61.1092 227.74 58.661 226.23C58.2734 226.006 56.1313 224.578 54.9888 223.823C54.7644 223.68 52.8467 222.313 51.1126 221.007C49.7661 220.008 48.542 219.049 48.1952 218.763C47.3996 218.151 46.7059 217.6 46.5427 217.437C45.7879 216.805 44.9514 216.07 43.9722 215.234C43.6661 214.969 43.3397 214.703 43.0133 214.418C41.8096 213.337 38.6474 210.317 38.2598 209.93C37.811 209.481 37.3826 209.052 36.9949 208.665C36.4441 208.114 30.6094 201.606 30.6502 201.667C30.589 201.606 29.6097 200.463 29.3241 200.117C28.7528 199.423 27.1208 197.281 26.8555 196.934C25.5295 195.139 24.5094 193.711 23.6729 192.548H23.6321ZM15.5125 175.023C15.4309 174.574 15.3288 174.146 15.2472 173.697C15.0636 172.779 14.9412 171.861 14.88 170.943C14.8188 170.004 14.8392 169.066 14.88 168.127C15.2268 169.331 15.5533 170.535 15.9205 171.739C17.0425 175.35 18.3686 178.961 20.3067 182.225C21.2656 183.877 22.3673 185.448 23.2445 187.141C24.0606 188.733 25.203 190.1 26.2435 191.548C26.2027 191.487 26.1619 191.446 26.1415 191.385C28.6712 194.771 31.6906 198.015 35.3016 201.198C36.1381 202.177 36.9133 203.034 37.607 203.707C37.8314 203.932 38.1986 204.299 38.627 204.727C36.9133 203.728 35.2812 202.708 33.7307 201.667C33.7103 201.667 33.3839 201.422 33.3431 201.402C33.0167 201.177 32.6903 200.933 32.3639 200.708C32.3027 200.667 32.2211 200.606 32.1599 200.565C32.1599 200.565 31.9558 200.402 31.8946 200.361C31.813 200.3 31.7314 200.239 31.6498 200.178C31.609 200.137 31.0786 199.729 30.8746 199.566C30.8746 199.566 30.8746 199.566 30.8542 199.545C30.6298 199.321 30.3645 199.137 30.1401 198.913C30.0993 198.872 30.0381 198.831 29.9973 198.791C29.7933 198.607 29.5893 198.423 29.4057 198.24C29.3445 198.199 28.9569 197.811 28.8957 197.77C27.0391 196.036 25.7131 194.71 24.7338 193.649C24.387 193.282 24.1014 192.956 23.8362 192.65C23.6117 192.323 23.1017 191.65 22.6937 191.099C22.0612 190.079 20.5312 187.651 19.4091 185.836C19.4091 185.836 19.3887 185.795 19.3683 185.775C19.3683 185.754 19.3275 185.713 19.3071 185.693C16.6957 180.735 15.6145 175.125 15.5737 175.064L15.5125 175.023ZM7.24996 157.478C8.06601 158.478 9.6573 159.192 14.9412 159.824C14.8188 162.211 14.6964 164.516 14.6556 165.394C14.6556 165.598 14.6556 165.802 14.6352 166.006L12.2687 159.477C12.2687 159.477 12.085 159.457 12.0034 159.437H11.9626C12.7991 162.089 13.6355 164.476 14.6148 166.965C14.5944 168.311 14.6148 169.698 14.6964 170.984C14.7576 171.922 14.9004 172.82 15.1044 173.738C15.1656 173.962 16.2673 179.348 17.4506 182.143C17.7158 182.776 18.0014 183.388 18.287 184C18.0422 183.571 17.7974 183.143 17.5526 182.714C17.5118 182.633 17.471 182.551 17.4302 182.49C17.3894 182.408 17.3282 182.327 17.2874 182.225C17.2058 182.082 17.1242 181.919 17.0425 181.776C15.7573 179.287 14.8188 177.43 14.064 175.921C10.7386 168.556 9.5553 162.966 8.65764 158.682C8.59644 158.682 8.53524 158.641 8.49443 158.621C8.49443 158.621 8.49443 158.621 8.47403 158.621C9.5757 164.129 11.0242 168.923 13.1663 173.942C13.1255 173.86 13.1051 173.819 13.1051 173.819C12.5339 172.453 11.8198 170.8 10.9426 168.658C10.0041 166.251 9.16767 163.823 8.41283 161.395C8.20882 160.742 8.02521 160.069 7.82119 159.416C7.73959 159.151 7.67838 158.906 7.59678 158.641C7.59678 158.58 7.41317 158.029 7.37237 157.825C7.35197 157.702 7.31116 157.6 7.29076 157.478H7.24996ZM7.31116 157.07C7.31116 157.07 7.78039 156.723 8.06601 156.54C8.10681 156.846 8.16801 157.172 8.22922 157.478C7.8824 157.356 7.57638 157.213 7.31116 157.07ZM6.73993 155.724C6.73993 155.724 6.80113 155.968 6.84194 156.132C6.33191 154.397 5.84228 152.704 5.43425 151.052C5.43425 150.97 4.72021 147.971 4.5774 146.461C4.5162 145.809 4.47539 145.115 4.47539 144.503C4.84262 147.563 6.08709 153.153 6.76033 155.744L6.73993 155.724ZM4.4958 142.504C4.4958 142.504 4.4958 142.381 4.4958 142.34C4.78141 140.239 5.47506 138.117 6.51552 136.016C6.71953 136.812 7.02555 137.913 7.41317 139.199C7.41317 139.158 7.41317 139.137 7.41317 139.117C6.96434 144.646 7.12755 149.95 7.9028 155.397C7.82119 155.438 7.73959 155.479 7.67839 155.52C7.67839 155.52 7.67839 155.52 7.65798 155.54C7.45397 155.683 7.04595 155.968 6.92354 156.132C6.88274 155.968 6.84194 155.703 6.82154 155.703C6.73993 155.377 6.67873 155.05 6.59712 154.724C5.94428 151.949 5.43425 149.338 4.96502 146.502C4.90382 146.074 4.67941 144.34 4.47539 142.504H4.4958ZM3.94496 120.144C4.25098 124.244 4.84262 128.386 5.74027 132.67C5.82187 133.058 5.90348 133.445 5.98508 133.853L6.2095 134.812C6.2095 134.812 6.2707 135.057 6.37271 135.486C5.37305 137.73 4.69981 140.015 4.45499 142.3C4.21018 140.259 3.98576 138.097 3.94496 137.485C3.78175 135.22 3.63894 132.915 3.59814 130.63C3.57774 128.855 3.59814 125.346 3.78175 122.164C3.82255 121.45 3.86336 120.776 3.92456 120.123L3.94496 120.144ZM6.86234 130.406C6.88274 130.875 7.02555 133.078 7.02555 133.078C7.02555 133.078 7.06635 133.486 7.10715 134.037C6.94394 134.343 6.80113 134.669 6.63792 134.975C6.59712 134.833 6.55632 134.669 6.51552 134.527C6.51552 134.527 6.51552 134.506 6.51552 134.486C6.51552 134.425 6.10749 132.874 6.02589 132.446C5.96468 132.181 5.90348 131.875 5.82187 131.446C4.88342 127.019 4.31218 122.918 4.02657 119.103C4.04697 118.818 4.06737 118.532 4.08777 118.267C4.37339 123.143 6.71953 130.038 6.86234 130.406ZM4.21018 116.9C4.27138 116.166 4.31218 115.737 4.33259 115.696C5.12823 109.596 6.47471 103.68 8.18842 97.9473C9.82052 92.5002 11.7586 87.2162 14.1864 82.1363C14.4108 81.6467 14.8188 81.0755 15.0432 80.5042C15.084 80.4022 15.5941 79.3822 15.6757 79.0762C16.2061 78.0357 16.7365 77.0156 17.3078 75.9752C17.3078 75.9548 17.3282 75.914 17.3486 75.8936C17.1242 76.3628 16.6345 77.5869 16.0633 78.8722C16.0021 79.015 15.1044 81.1367 14.9208 81.6671C9.88172 95.2951 7.55598 108.005 6.98474 116.206C6.63792 121.062 6.84194 128.57 6.84194 128.957C5.35265 124.816 4.557 120.695 4.18978 116.859L4.21018 116.9ZM4.86302 101.211C8.47403 80.5247 14.574 77.2197 16.9405 76.016C16.9201 76.0568 16.8997 76.0976 16.8997 76.0976C16.7569 76.3628 16.3081 77.1788 15.7369 78.3009C15.7369 78.3009 15.7165 78.3621 15.6961 78.3825C15.6961 78.4233 15.6757 78.4437 15.6553 78.4641C15.4513 78.8722 14.9616 79.8514 14.88 79.9942C10.0653 89.8684 7.18876 99.7222 5.63826 106.965C4.82221 110.8 4.37339 113.921 4.12857 115.86C3.67975 109.821 4.27138 104.557 4.86302 101.191V101.211ZM25.0398 56.0024C25.5091 56.1452 26.0599 56.3288 26.6923 56.5328C26.5291 56.7164 26.3251 56.8796 26.1619 57.0836C25.8967 57.3897 25.6519 57.7161 25.407 58.0221C24.9174 58.6749 24.4482 59.3686 24.0198 60.0826C23.6117 60.7559 23.2037 61.4495 22.8365 62.1635C22.5101 62.7756 22.1224 63.408 21.8368 64.0609C21.5104 64.7137 21.2248 65.3665 20.8984 65.999C20.6128 66.5906 20.3271 67.1618 20.1027 67.7739C19.4499 69.3244 18.9195 71.0585 18.6134 73.0578C18.2666 73.6494 17.9198 74.2411 17.5934 74.8531C13.4111 76.8524 9.47369 81.5039 6.2095 94.3771C5.23024 98.2329 4.5978 101.824 4.23058 105.108C4.6182 101.66 5.20984 98.2125 6.02589 94.6831C6.08709 94.4383 6.31151 93.5406 6.35231 93.357C6.35231 93.2958 7.39277 89.542 7.57638 88.93C7.67838 88.6239 7.75999 88.3383 7.862 88.0323C7.9028 87.8895 7.9436 87.7467 8.00481 87.6039C8.04561 87.5019 8.22922 86.8898 8.29042 86.7062C11.7382 76.8524 16.0837 67.9983 25.0602 55.982L25.0398 56.0024ZM26.0191 54.5335C26.0191 54.5335 25.9783 54.5743 25.9579 54.5947C25.7539 54.7783 25.5499 54.9619 25.2846 55.2067C25.2642 55.2271 25.2234 55.2679 25.1826 55.2883C24.7542 55.1251 24.591 55.0231 24.4278 54.8395C24.4278 54.8395 24.4278 54.8395 24.4482 54.8395C24.8766 54.7171 25.3866 54.6151 25.9987 54.5131L26.0191 54.5335ZM30.2829 54.0235C29.7321 54.7783 29.1813 55.5332 28.6508 56.288C26.9371 55.7984 25.7131 55.4515 25.5295 55.4107C25.5907 55.3291 25.6315 55.2679 25.6927 55.2067C25.9987 54.9415 26.2843 54.6763 26.5495 54.4519C27.5696 54.2887 28.8141 54.1663 30.2625 54.0439L30.2829 54.0235ZM52.8059 29.3992L52.8671 29.3176C53.0099 29.44 53.1527 29.5828 53.3363 29.746C48.1136 34.0099 39.4431 41.9051 30.9562 53.1258C31.0582 53.1258 31.201 53.1054 31.3234 53.1054C29.8545 53.2482 26.9167 53.7786 26.8963 53.7786C30.9154 49.5148 34.6284 44.9653 38.9127 40.9463C42.9317 37.1721 47.1343 33.6834 51.745 30.256C52.0918 29.9704 52.4387 29.6848 52.8059 29.4196V29.3992ZM57.9674 26.1962C57.3962 26.5838 56.0497 27.5631 54.1116 29.0932C53.9484 28.9504 53.2139 28.2567 53.1935 28.2363C52.4795 27.3999 52.0918 26.849 52.3775 26.3594C52.4795 26.1758 52.6835 26.1146 52.8671 26.0534C53.8872 25.9718 55.6213 26.0126 57.9674 26.1758V26.1962ZM62.7413 26.6246C62.4965 26.7674 62.3129 26.8898 62.2313 26.951C61.1296 27.6651 59.0283 29.1748 56.3965 31.2149C55.6009 30.4804 54.8868 29.8276 54.3564 29.3176C55.7233 28.1955 57.0289 27.1754 58.253 26.2166C59.5791 26.3186 61.0684 26.441 62.7617 26.6246H62.7413ZM151.058 45.3529C150.732 45.4753 150.548 45.5366 150.548 45.5366C147.468 46.5566 134.962 51.5141 124.965 55.7576C124.496 55.9412 123.965 56.1452 123.394 56.39C112.643 55.2883 102.095 54.4723 92.1599 53.8807C92.0578 53.7378 91.9354 53.5542 91.8334 53.4318C87.0799 46.8422 84.6522 42.6396 83.2241 40.0486C83.1833 39.967 83.1221 39.865 83.0813 39.7834C87.2024 37.1925 91.3642 34.6831 95.1996 31.6637C94.9548 31.6229 94.6896 31.5617 94.4448 31.5209C94.3224 31.5005 89.5485 34.3363 82.6733 39.0082C82.6121 38.8654 82.5101 38.6817 82.4285 38.5593C81.0412 35.8664 80.1639 33.6834 79.5519 31.9697C80.2047 31.0517 80.8372 30.1948 81.5104 29.2768C81.49 29.2768 81.4492 29.2768 81.4288 29.2768C81.2656 29.2564 81.1024 29.2156 80.9188 29.1952C80.8984 29.1952 80.8576 29.1952 80.8372 29.1952C80.3067 29.8888 79.8171 30.5417 79.3071 31.2557C79.0011 30.2968 78.7766 29.5012 78.6134 28.8279C78.3074 28.7871 78.0218 28.7259 77.7158 28.6851C77.675 28.6851 77.6342 28.6851 77.5934 28.6851C78.3482 32.0921 79.6335 35.4991 81.7756 39.661C78.1442 42.1295 73.962 45.0877 69.5961 48.3315C70.5142 47.0462 71.065 45.557 71.8402 44.1901C75.0024 38.5797 77.675 34.6831 78.8379 33.0306C78.8379 33.0102 78.8175 32.9694 78.7971 32.9286C78.7358 32.745 78.6746 32.5614 78.593 32.3574C78.593 32.337 78.5726 32.2962 78.5522 32.2554C74.676 37.7025 71.3506 43.1496 68.1068 49.4332C68.168 49.3924 68.2088 49.3516 68.27 49.3108C66.7807 50.4328 65.271 51.5957 63.7613 52.779C50.3781 52.4934 39.6879 52.6362 33.4247 52.983C33.4451 52.9626 33.4655 52.9422 33.4859 52.9218C41.8096 43.476 48.3992 37.8249 55.9069 32.1329C59.5383 35.3563 65.9851 41.3135 66.0871 41.4359C66.3727 41.2319 66.4135 41.2115 66.6787 41.0075C66.6787 41.0075 60.2523 34.9075 56.6617 31.5617C58.7426 29.9908 60.8848 28.4199 63.1697 26.7266C80.8168 28.5627 116.335 34.4791 151.017 45.4141L151.058 45.3529ZM78.4706 17.5257C77.1854 20.4838 76.8385 23.9317 77.4506 27.8487C72.2483 27.0938 67.7396 26.5226 64.0878 26.1146C64.2306 26.0126 64.353 25.9514 64.353 25.9514C66.8215 24.5233 69.1269 22.8504 71.5546 21.4019C74.2068 19.831 76.4305 18.6069 77.5118 18.0153C77.7158 17.9133 78.0014 17.8113 78.2054 17.6481C78.2666 17.6277 78.3482 17.5665 78.4502 17.5257H78.4706ZM79.1235 17.1788C79.5519 16.9544 80.0007 16.73 80.1639 16.628C91.1398 11.1197 99.5247 7.85549 106.155 6.12139C103.462 7.40667 93.5675 12.8538 81.388 28.4403C80.3883 28.2771 79.4091 28.1343 78.4502 27.9915C78.3686 27.5223 78.2258 26.9102 78.1646 26.441C77.5934 22.6464 78.0422 19.627 79.1439 17.1788H79.1235ZM107.094 4.28528C107.706 4.24447 108.297 4.18327 108.909 4.14247C109.236 4.12207 109.542 4.10167 109.868 4.08127C110.031 4.08127 110.195 4.06086 110.337 4.04046H110.378C110.705 4.02006 111.011 3.99966 111.337 3.97926C109.236 4.6117 107.502 5.46855 106.522 5.93778C95.7505 8.77355 83.979 14.1391 80.3271 16.3016C80.1231 16.424 79.6947 16.6076 79.3071 16.7912C80.5312 14.2615 82.4285 12.3846 84.5706 10.9157C90.9766 8.22271 96.5869 6.20299 104.054 4.6321C105.013 4.50969 106.033 4.38728 107.094 4.28528ZM113.724 3.38762C112.908 3.53043 112.194 3.69364 111.439 3.91806C111.215 3.91806 110.46 3.97926 110.317 3.99966C110.235 3.99966 110.174 3.99966 110.093 3.99966C110.011 3.99966 109.929 3.99966 109.848 3.99966C109.521 4.02006 109.215 4.04046 108.889 4.06086C108.562 4.08127 108.256 4.12207 107.93 4.14247C107.298 4.18327 105.4 4.38728 104.605 4.46889C104.992 4.38728 105.359 4.30568 105.767 4.24448C107.869 3.91806 109.725 3.65284 111.521 3.48963C111.684 3.48963 111.867 3.46923 112.051 3.44883C112.377 3.42843 113.296 3.36722 113.438 3.36722C113.459 3.36722 113.602 3.36722 113.724 3.36722V3.38762ZM114.356 3.36722C114.581 3.36722 114.785 3.36722 115.009 3.36722C115.132 3.36722 115.254 3.36722 115.356 3.36722C115.723 3.36722 116.09 3.36722 116.437 3.40803C116.805 3.42843 117.151 3.44883 117.519 3.46923C117.519 3.46923 117.641 3.46923 117.702 3.46923C117.906 3.46923 118.763 3.59164 118.885 3.61204C118.947 3.61204 119.008 3.63244 119.069 3.65284C119.089 3.65284 119.13 3.65284 119.171 3.65284C119.171 3.65284 119.171 3.67324 119.171 3.69364C118.355 3.69364 117.253 3.69364 116.601 3.69364C114.907 3.73444 113.5 3.77525 112.092 3.83645C112.887 3.63244 113.581 3.46923 114.336 3.30602L114.356 3.36722ZM119.191 3.59164C119.191 3.59164 119.191 3.63244 119.191 3.65284C119.049 3.61204 118.926 3.59164 118.783 3.57124C118.579 3.53043 117.886 3.46923 117.743 3.44883C117.661 3.44883 117.58 3.44883 117.498 3.44883C117.151 3.42843 116.784 3.40803 116.417 3.38762C116.029 3.36722 115.662 3.36722 115.274 3.34682C115.091 3.34682 114.907 3.34682 114.724 3.34682C114.642 3.34682 114.581 3.34682 114.52 3.34682C114.622 3.34682 114.703 3.30602 114.805 3.28562C116.662 3.10201 118.396 3.40803 119.049 3.55083C119.089 3.55083 119.171 3.59164 119.191 3.59164ZM134.717 3.77525C133.289 3.67324 131.963 3.59164 130.8 3.53043C130.8 3.48963 127.026 3.26522 125.169 3.34682C124.19 3.38762 123.19 3.42843 122.211 3.51003C121.742 3.55083 121.272 3.61204 120.803 3.63244C120.558 3.63244 120.334 3.65284 120.11 3.67324C119.987 3.67324 119.865 3.69364 119.742 3.71404C120.11 3.69364 120.456 3.59164 120.803 3.53043C121.109 3.48963 122.741 3.24482 123.659 3.14281C123.884 3.14281 124.088 3.10201 124.312 3.0816C124.557 3.0816 124.822 3.08161 125.087 3.0408C125.434 3.0408 126.271 3 126.883 3C127.209 3 129.29 3 131.289 3.18361C131.555 3.20401 131.82 3.26522 132.085 3.28562C132.126 3.28562 132.187 3.28562 132.228 3.28562C133.248 3.44883 134.656 3.69364 134.737 3.73445L134.717 3.77525ZM132.35 8.20231C131.82 7.9371 131.106 7.56987 130.575 7.32506C124.149 4.30568 119.987 4.16287 118.62 4.10167C115.336 4.04046 111.317 4.7137 107.155 5.77457C107.216 5.75417 107.257 5.71336 107.318 5.67256C108.277 5.28494 109.195 4.75451 110.174 4.44849C110.705 4.28528 111.296 4.10167 111.929 3.93846C114.438 3.81605 117.233 3.75485 119.191 3.73445C119.191 3.73445 119.191 3.73445 119.191 3.75485C119.232 3.87725 119.355 3.95886 119.497 3.93846C119.599 3.93846 119.681 3.85685 119.701 3.77525C120.089 3.75485 120.375 3.75485 120.681 3.71404C121.15 3.67324 121.619 3.63244 122.088 3.59164C123.068 3.51003 124.067 3.48963 125.047 3.44883C126.067 3.40802 130.494 3.61204 130.514 3.61204C130.759 3.63244 131.004 3.65284 131.249 3.67324C132.615 3.79565 133.88 3.89766 135.064 3.99966C136.043 4.91772 134.615 6.44781 132.371 8.18191L132.35 8.20231ZM137.247 4.20367C157.791 9.05916 170.133 24.0541 179.702 35.6828C173.663 37.5393 167.338 39.661 162.136 41.4359C162.095 41.3543 162.075 41.2727 162.054 41.2523C161.789 40.7015 161.463 39.9874 161.198 39.457C156.567 30.0724 148.018 17.138 133.676 8.91636C133.534 8.85515 133.207 8.67154 132.921 8.50833C135.676 6.2846 136.573 4.87691 135.614 4.06086C136.165 4.10167 136.716 4.16287 137.247 4.20367ZM190.963 25.3393C190.616 25.0945 190.127 24.7477 189.29 24.1765C180.13 17.8725 166.522 10.2424 149.63 6.03978C151.548 6.42741 153.302 6.81503 153.649 6.91704C154.404 7.16185 155.179 7.26386 155.954 7.44747C155.995 7.44747 156.056 7.46787 156.097 7.48827C156.363 7.56987 156.628 7.63108 156.893 7.71268C157.199 7.79429 157.505 7.89629 157.811 7.9779C158.097 8.0595 158.362 8.14111 158.647 8.22271C159.79 8.56953 161.014 8.95716 162.34 9.36518C162.728 9.48759 163.115 9.61 163.523 9.75281C163.768 9.85481 164.033 9.93642 164.278 10.0384C164.951 10.3036 165.665 10.4872 166.318 10.7729C166.992 11.0585 167.644 11.3033 168.338 11.5277C168.726 11.6909 169.134 11.8745 169.542 12.0377C169.725 12.1398 169.929 12.2418 170.133 12.3234C170.419 12.4662 170.705 12.5478 170.99 12.6906C171.337 12.8538 171.663 13.0374 172.01 13.1802C172.745 13.4862 173.479 13.833 174.214 14.1595C174.968 14.5063 175.723 14.8939 176.437 15.3019C176.805 15.5059 177.151 15.7304 177.539 15.8936C177.6 15.9344 178.253 16.3016 178.477 16.424C178.518 16.4444 178.579 16.4852 178.62 16.5056C178.804 16.628 179.008 16.73 179.191 16.832C179.457 16.9952 179.722 17.1584 179.987 17.3217C180.089 17.3829 180.171 17.4441 180.273 17.5053C180.762 17.8725 181.334 18.1785 181.844 18.5049C182.517 18.9742 183.251 19.3618 183.925 19.831C184.598 20.3206 185.291 20.8103 185.985 21.2795C186.148 21.4019 187.536 22.422 187.842 22.626C188.821 23.4012 189.861 24.3193 190.922 25.2781L190.963 25.3393ZM196.635 31.2353C192.656 31.8881 186.658 33.5406 180.293 35.4787C179.477 34.3567 178.314 32.7654 177.784 32.0513C166.482 17.5053 152.303 7.69228 137.634 4.22407C138.919 4.34648 140.103 4.46889 141.204 4.5913C141.633 4.6321 141.98 4.6729 142.265 4.6933C142.367 4.7137 143.591 4.89731 143.959 4.91772C144.244 4.93812 146.835 5.44815 149.283 5.93778C163.829 9.54879 178.069 16.2812 191.759 26.0738C193.33 27.5835 194.9 29.2156 196.288 30.8069C196.369 30.8885 196.492 31.0517 196.635 31.2353ZM197.247 31.9901C198.613 33.7854 199.817 35.5807 200.858 37.4169C200.837 37.5189 200.817 37.6005 200.796 37.6617C199.185 44.5369 197.491 52.4934 197.655 63.4284C196.43 62.7756 195.186 62.1227 193.942 61.4903C193.84 61.2251 193.717 60.8783 193.615 60.6131C188.698 47.6991 182.986 39.3346 181.109 36.5804C181.048 36.4988 180.987 36.4172 180.926 36.3356C180.926 36.3356 180.905 36.2948 180.885 36.2948C180.783 36.152 180.681 35.9888 180.599 35.8868C180.599 35.8868 180.681 35.8664 180.722 35.846C187.087 33.8671 192.942 32.2962 197.022 31.7045C197.124 31.8269 197.206 31.9289 197.247 31.9697V31.9901ZM198.715 31.5209C199.756 32.3982 200.756 33.2754 201.755 34.1935C201.674 34.5811 201.572 34.9483 201.49 35.2339C201.408 35.5196 201.184 36.254 201.021 36.866C200.184 35.4788 199.246 34.0915 198.226 32.7246L197.369 31.6637C197.838 31.6025 198.287 31.5617 198.715 31.5209ZM201.857 32.9286C201.857 33.2754 201.857 33.6426 201.776 33.9895C201.021 33.3162 200.368 32.745 199.837 32.2962C199.593 32.0717 199.266 31.7045 198.94 31.5209C198.981 31.5209 199.021 31.5209 199.062 31.5209C199.919 31.4801 201.796 31.8065 201.837 32.949L201.857 32.9286ZM228.603 68.4471C224.36 67.3251 216.628 67.0598 206.549 67.5087C206.896 65.2033 207.141 62.7144 207.182 61.6127C207.549 52.7382 205.733 45.0673 201.531 37.7637C201.796 36.5804 202.041 35.4787 202.204 34.6015C212.486 43.9657 220.81 54.3907 226.992 65.693C228.093 67.6923 228.399 68.2635 228.583 68.4471H228.603ZM229.174 69.7936C229.644 70.7321 230.297 72.0377 231.051 73.6902C229.909 74.8123 227.665 76.3628 223.462 79.0354C223.279 79.1374 223.095 79.2598 222.932 79.3618C222.014 78.8925 219.647 77.5461 219.402 77.3625C214.22 73.2822 209.528 70.3444 207.508 69.1C206.958 68.7531 206.652 68.5695 206.386 68.5083C206.386 68.4267 206.407 68.3451 206.427 68.2839C216.669 67.9575 224.625 68.4471 229.174 69.814V69.7936ZM232.133 71.6093C232.133 72.2214 231.929 72.7722 231.215 73.5066C230.501 71.9765 229.929 70.8341 229.582 70.12C229.521 70.018 229.48 69.9364 229.44 69.8752C230.317 70.1608 231.072 70.4668 231.684 70.8341C231.786 70.9361 232.133 71.1197 232.133 71.6093ZM241.864 98.8449L241.721 98.1921C240.171 91.5413 234.254 85.4413 224.013 79.933C227.848 77.5257 230.174 75.8528 231.419 74.5267C232.316 76.4852 233.316 78.8722 234.336 81.6059C235.295 84.1561 235.988 86.7878 236.927 89.3584C237.009 89.5624 237.192 89.6644 237.315 89.8072C237.253 89.6032 237.172 89.338 237.131 89.134C235.295 82.9524 233.173 77.8317 231.602 74.3431C231.949 73.9555 232.194 73.5882 232.377 73.2618C232.418 73.3026 234.887 78.0153 237.009 83.544C238.722 87.9915 241.354 96.6416 241.436 96.9068C241.497 97.1925 241.578 97.4577 241.64 97.7433C241.721 98.0901 241.782 98.4369 241.864 98.7837C241.864 98.8041 241.864 98.8245 241.864 98.8449ZM241.966 99.355C242.088 100.64 242.231 102.721 241.68 105.496C236.907 92.3166 227.318 83.9317 222.911 80.6267C223.054 80.5451 223.176 80.4634 223.319 80.3818C230.439 84.0745 234.703 87.5631 237.335 90.562C237.702 91.8881 238.457 94.5607 239.232 98.2125C239.613 100.035 239.933 101.211 240.191 101.742C240.15 101.538 240.11 101.252 240.069 101.048C240.008 100.681 238.498 92.6022 237.539 90.7865C240.252 93.9487 241.17 96.5396 241.742 98.1717L241.966 99.0694C241.966 99.0694 241.986 99.253 242.007 99.3346L241.966 99.355Z" fill="url(#paint0_linear_2812_431)"/>
</g>
<defs>
<filter id="filter0_f_2812_431" x="0.383789" y="0" width="247.232" height="247.709" filterUnits="userSpaceOnUse" color-interpolation-filters="sRGB">
<feFlood flood-opacity="0" result="BackgroundImageFix"/>
<feBlend mode="normal" in="SourceGraphic" in2="BackgroundImageFix" result="shape"/>
<feGaussianBlur stdDeviation="1.5" result="effect1_foregroundBlur_2812_431"/>
</filter>
<linearGradient id="paint0_linear_2812_431" x1="124" y1="3" x2="124" y2="244.709" gradientUnits="userSpaceOnUse">
<stop stopColor="#90DF75"/>
<stop offset="1" stopColor="#62B655"/>
</linearGradient>
</defs>
</svg>
