<svg width="19" height="19" viewBox="0 0 19 19" fill="none" xmlns="http://www.w3.org/2000/svg">
<g clipPath="url(#clip0_2812_6884)">
<path d="M4.45037 9.47278C4.45037 8.53593 4.70849 7.65832 5.15692 6.90687V3.71936H1.9694C0.704305 5.36238 0.0185547 7.36479 0.0185547 9.47278C0.0185547 11.5808 0.704305 13.5832 1.9694 15.2262H5.15692V12.0387C4.70849 11.2872 4.45037 10.4096 4.45037 9.47278Z" fill="#FBBD00"/>
<path d="M9.47274 14.4955L7.25684 16.7114L9.47274 18.9273C11.5808 18.9273 13.5831 18.2416 15.2262 16.9765V13.7924H12.0421C11.284 14.2424 10.4027 14.4955 9.47274 14.4955Z" fill="#0F9D58"/>
<path d="M5.15724 12.0386L1.96973 15.2261C2.2202 15.5514 2.49294 15.8629 2.78806 16.1581C4.57379 17.9437 6.94802 18.9272 9.47342 18.9272V14.4954C7.64072 14.4954 6.03444 13.5086 5.15724 12.0386Z" fill="#31AA52"/>
<path d="M18.9272 9.4728C18.9272 8.89758 18.8751 8.3213 18.7724 7.76001L18.6892 7.30579H9.47266V11.7376H13.9581C13.5225 12.6041 12.8528 13.311 12.0419 13.7924L15.226 16.9765C15.5513 16.7261 15.8629 16.4533 16.158 16.1582C17.9437 14.3724 18.9272 11.9982 18.9272 9.4728Z" fill="#3C79E6"/>
<path d="M13.0244 5.92111L13.4161 6.31281L16.5498 3.17907L16.1581 2.78737C14.3724 1.00165 11.9982 0.0181885 9.47274 0.0181885L7.25684 2.2341L9.47274 4.45001C10.8143 4.45001 12.0757 4.97244 13.0244 5.92111Z" fill="#CF2D48"/>
<path d="M9.47346 4.45001V0.0181885C6.94806 0.0181885 4.57383 1.00165 2.78806 2.78734C2.49294 3.08246 2.2202 3.39398 1.96973 3.71931L5.15724 6.90682C6.03448 5.43682 7.64076 4.45001 9.47346 4.45001Z" fill="#EB4132"/>
</g>
<defs>
<clipPath id="clip0_2812_6884">
<rect width="18.9091" height="18.9091" fill="white" transform="translate(0.0185547 0.0181885)"/>
</clipPath>
</defs>
</svg>
