<svg width="36" height="37" viewBox="0 0 36 37" fill="none" xmlns="http://www.w3.org/2000/svg">
<path d="M18 36.2734C27.9411 36.2734 36 28.2146 36 18.2734C36 8.33231 27.9411 0.273438 18 0.273438C8.05887 0.273438 0 8.33231 0 18.2734C0 28.2146 8.05887 36.2734 18 36.2734Z" fill="url(#paint0_linear_2812_3513)"/>
<path d="M21.8241 8.27344H14.1841C10.7761 8.27344 8.00806 11.0414 8.00806 14.4494V22.0894C8.00806 25.4974 10.7761 28.2654 14.1841 28.2654H21.8241C25.2321 28.2654 28.0001 25.4974 28.0001 22.0894V14.4494C28.0001 11.0414 25.2321 8.27344 21.8241 8.27344ZM25.7681 22.0974C25.7681 24.2734 24.0001 26.0494 21.8161 26.0494H14.1761C12.0001 26.0494 10.2241 24.2814 10.2241 22.0974V14.4574C10.2241 12.2814 11.9921 10.5054 14.1761 10.5054H21.8161C23.9921 10.5054 25.7681 12.2734 25.7681 14.4574V22.0974Z" fill="white"/>
<path d="M17.9999 13.1611C15.1839 13.1611 12.8879 15.4571 12.8879 18.2731C12.8879 21.0891 15.1839 23.3851 17.9999 23.3851C20.8159 23.3851 23.1119 21.0891 23.1119 18.2731C23.1119 15.4571 20.8159 13.1611 17.9999 13.1611ZM17.9999 21.3771C16.2879 21.3771 14.8959 19.9851 14.8959 18.2731C14.8959 16.5611 16.2879 15.1691 17.9999 15.1691C19.7119 15.1691 21.1039 16.5611 21.1039 18.2731C21.1039 19.9851 19.7119 21.3771 17.9999 21.3771Z" fill="white"/>
<path d="M23.5013 13.7216C23.9723 13.6452 24.2922 13.2016 24.2158 12.7306C24.1395 12.2596 23.6958 11.9397 23.2248 12.0161C22.7539 12.0924 22.434 12.5361 22.5103 13.0071C22.5867 13.478 23.0303 13.7979 23.5013 13.7216Z" fill="white"/>
<defs>
<linearGradient id="paint0_linear_2812_3513" x1="4.29432" y1="31.9791" x2="29.8743" y2="6.39912" gradientUnits="userSpaceOnUse">
<stop stopColor="#FEE411"/>
<stop offset="0.0518459" stopColor="#FEDB16"/>
<stop offset="0.1381" stopColor="#FEC125"/>
<stop offset="0.2481" stopColor="#FE983D"/>
<stop offset="0.3762" stopColor="#FE5F5E"/>
<stop offset="0.5" stopColor="#FE2181"/>
<stop offset="1" stopColor="#9000DC"/>
</linearGradient>
</defs>
</svg>
