<svg width="48" height="56" viewBox="0 0 48 56" fill="none" xmlns="http://www.w3.org/2000/svg">
<path d="M24 18.5938C29.1345 18.5938 33.2969 14.4314 33.2969 9.29688C33.2969 4.16235 29.1345 0 24 0C18.8655 0 14.7031 4.16235 14.7031 9.29688C14.7031 14.4314 18.8655 18.5938 24 18.5938Z" fill="#F7F8F8" fillOpacity="0.2"/>
<path d="M30.8314 19.8535C28.863 21.1318 26.5168 21.8753 24 21.8753C21.4831 21.8753 19.1369 21.1318 17.1685 19.8535C14.9925 20.6851 12.975 21.912 11.2207 23.4865L24 28.2788L36.7792 23.4865C35.025 21.912 33.0074 20.685 30.8314 19.8535Z" fill="#F7F8F8" fillOpacity="0.2"/>
<path d="M43.6875 33.9062H42.5938C41.6877 33.9062 40.9531 34.6408 40.9531 35.5469V39.9219C40.9531 40.8279 41.6877 41.5625 42.5938 41.5625H43.6875C45.8017 41.5625 47.5156 39.8486 47.5156 37.7344C47.5156 35.6202 45.8017 33.9062 43.6875 33.9062Z" fill="#F7F8F8" fillOpacity="0.2"/>
<path d="M5.5655 25.6243C5.12319 25.9309 4.85938 26.4347 4.85938 26.9728V30.6254H5.40625C8.12017 30.6254 10.3281 32.8333 10.3281 35.5473V39.9223C10.3281 42.6362 8.12017 44.8441 5.40625 44.8441H4.85938V48.3009C4.85938 48.9848 5.28364 49.597 5.92392 49.8371L22.3594 56.0004V31.1679L7.07608 25.4366C6.57219 25.2475 6.0077 25.3176 5.5655 25.6243Z" fill="#FFFF00"/>
<path d="M37.6719 39.9223V35.5473C37.6719 32.8333 39.8798 30.6254 42.5938 30.6254H43.1406V26.9728C43.1406 26.4347 42.8768 25.9309 42.4345 25.6243C41.9922 25.3176 41.4276 25.2475 40.9239 25.4366L25.6406 31.1679V56.0004L42.0761 49.8371C42.7164 49.597 43.1406 48.9848 43.1406 48.3009V44.8441H42.5938C39.8798 44.8441 37.6719 42.6362 37.6719 39.9223Z" fill="#FFFF00"/>
<path d="M7.04688 39.9219V35.5469C7.04688 34.6408 6.31231 33.9062 5.40625 33.9062H4.3125C2.19828 33.9062 0.484375 35.6202 0.484375 37.7344C0.484375 39.8486 2.19828 41.5625 4.3125 41.5625H5.40625C6.31231 41.5625 7.04688 40.8279 7.04688 39.9219Z" fill="#F7F8F8" fillOpacity="0.2"/>
</svg>
