<svg width="36" height="37" viewBox="0 0 36 37" fill="none" xmlns="http://www.w3.org/2000/svg">
<g clipPath="url(#clip0_2812_3501)">
<rect y="0.273438" width="36" height="36" rx="18" fill="white"/>
<path d="M18 0.273438C8.05879 0.273438 0 8.33223 0 18.2734C0 28.2146 8.05879 36.2734 18 36.2734C27.9411 36.2734 36 28.2146 36 18.2734C35.9999 8.33223 27.941 0.273438 18 0.273438ZM13.1975 26.9756H9.24546V14.2075H13.1975V26.9756ZM11.2027 12.5355C9.91196 12.5355 8.86562 11.4806 8.86562 10.1795C8.86562 8.87836 9.91211 7.82355 11.2027 7.82355C12.4932 7.82355 13.5396 8.87836 13.5396 10.1795C13.5396 11.4807 12.4933 12.5355 11.2027 12.5355ZM28.0079 26.9756H24.075V20.2734C24.075 18.4352 23.3768 17.4091 21.9233 17.4091C20.3414 17.4091 19.5149 18.4778 19.5149 20.2734V26.9756H15.7244V14.2075H19.5149V15.9272C19.5149 15.9272 20.6551 13.8181 23.3625 13.8181C26.0699 13.8181 28.008 15.4712 28.008 18.891L28.0079 26.9756Z" fill="url(#paint0_linear_2812_3501)"/>
</g>
<defs>
<linearGradient id="paint0_linear_2812_3501" x1="5.27206" y1="5.5455" x2="30.7279" y2="31.0013" gradientUnits="userSpaceOnUse">
<stop stopColor="#2489BE"/>
<stop offset="1" stopColor="#0575B3"/>
</linearGradient>
<clipPath id="clip0_2812_3501">
<rect y="0.273438" width="36" height="36" rx="18" fill="white"/>
</clipPath>
</defs>
</svg>
