<svg width="64" height="64" viewBox="0 0 64 64" fill="none" xmlns="http://www.w3.org/2000/svg">
<path d="M5.33333 54.6666H58.6667C59.0203 54.6666 59.3594 54.8071 59.6095 55.0571C59.8595 55.3072 60 55.6463 60 56V58.6666C60 59.7275 59.5786 60.7449 58.8284 61.4951C58.0783 62.2452 57.0609 62.6666 56 62.6666H8C6.93913 62.6666 5.92172 62.2452 5.17157 61.4951C4.42143 60.7449 4 59.7275 4 58.6666V56C4 55.6463 4.14048 55.3072 4.39052 55.0571C4.64057 54.8071 4.97971 54.6666 5.33333 54.6666Z" fill="url(#paint0_linear_2812_3610)"/>
<path d="M38.667 57.3334H25.3337C24.6264 57.3334 23.9481 57.0524 23.448 56.5523C22.9479 56.0522 22.667 55.3739 22.667 54.6667H41.3337C41.3337 55.3739 41.0527 56.0522 40.5526 56.5523C40.0525 57.0524 39.3742 57.3334 38.667 57.3334Z" fill="#F7F8F8"/>
<path d="M52 17.3333H12C9.79086 17.3333 8 19.1242 8 21.3333V50.6666C8 52.8758 9.79086 54.6666 12 54.6666H52C54.2091 54.6666 56 52.8758 56 50.6666V21.3333C56 19.1242 54.2091 17.3333 52 17.3333Z" fill="url(#paint1_linear_2812_3610)"/>
<path d="M50.6667 21.3333H13.3333C12.597 21.3333 12 21.9303 12 22.6666V49.3333C12 50.0697 12.597 50.6666 13.3333 50.6666H50.6667C51.403 50.6666 52 50.0697 52 49.3333V22.6666C52 21.9303 51.403 21.3333 50.6667 21.3333Z" fill="#F7F8F8"/>
<path d="M42.6663 20L31.9997 25.3333L21.333 20L22.6663 9.33331H41.333L42.6663 20Z" fill="url(#paint2_linear_2812_3610)"/>
<path d="M51.9999 9.33331L31.9999 17.3333L13.3333 9.33331L31.9999 1.33331L51.9999 9.33331Z" fill="url(#paint3_linear_2812_3610)"/>
<path d="M36.68 35.8133L30.0133 39.8133C29.8109 39.9333 29.5803 39.9977 29.345 39.9997C29.1096 40.0018 28.878 39.9415 28.6735 39.825C28.469 39.7086 28.2989 39.54 28.1807 39.3366C28.0624 39.1331 28 38.902 28 38.6667V30.6667C28 30.4313 28.0624 30.2002 28.1807 29.9967C28.2989 29.7933 28.469 29.6248 28.6735 29.5083C28.878 29.3918 29.1096 29.3316 29.345 29.3336C29.5803 29.3357 29.8109 29.4 30.0133 29.52L36.68 33.52C36.879 33.638 37.0438 33.8058 37.1583 34.0069C37.2727 34.2079 37.3329 34.4353 37.3329 34.6667C37.3329 34.898 37.2727 35.1254 37.1583 35.3264C37.0438 35.5275 36.879 35.6953 36.68 35.8133Z" fill="url(#paint4_linear_2812_3610)"/>
<path d="M48.0003 46.6666H16.0003C15.6467 46.6666 15.3076 46.5261 15.0575 46.2761C14.8075 46.026 14.667 45.6869 14.667 45.3333C14.667 44.9797 14.8075 44.6405 15.0575 44.3905C15.3076 44.1404 15.6467 43.9999 16.0003 43.9999H48.0003C48.3539 43.9999 48.6931 44.1404 48.9431 44.3905C49.1932 44.6405 49.3337 44.9797 49.3337 45.3333C49.3337 45.6869 49.1932 46.026 48.9431 46.2761C48.6931 46.5261 48.3539 46.6666 48.0003 46.6666Z" fill="#F7F8F8"/>
<path d="M22.6667 48C24.1394 48 25.3333 46.8061 25.3333 45.3333C25.3333 43.8605 24.1394 42.6666 22.6667 42.6666C21.1939 42.6666 20 43.8605 20 45.3333C20 46.8061 21.1939 48 22.6667 48Z" fill="url(#paint5_linear_2812_3610)"/>
<defs>
<linearGradient id="paint0_linear_2812_3610" x1="32" y1="54.6666" x2="32" y2="62.6666" gradientUnits="userSpaceOnUse">
<stop stopColor="#44BBFE"/>
<stop offset="1" stopColor="#1E78FE"/>
</linearGradient>
<linearGradient id="paint1_linear_2812_3610" x1="32" y1="17.3333" x2="32" y2="54.6666" gradientUnits="userSpaceOnUse">
<stop stopColor="#44BBFE"/>
<stop offset="1" stopColor="#1E78FE"/>
</linearGradient>
<linearGradient id="paint2_linear_2812_3610" x1="31.9997" y1="9.33331" x2="31.9997" y2="25.3333" gradientUnits="userSpaceOnUse">
<stop stopColor="#FF9252"/>
<stop offset="1" stopColor="#FF3F15"/>
</linearGradient>
<linearGradient id="paint3_linear_2812_3610" x1="32.6666" y1="1.33331" x2="32.6666" y2="17.3333" gradientUnits="userSpaceOnUse">
<stop stopColor="#FF9252"/>
<stop offset="1" stopColor="#FF3F15"/>
</linearGradient>
<linearGradient id="paint4_linear_2812_3610" x1="32.6665" y1="29.3336" x2="32.6665" y2="39.9998" gradientUnits="userSpaceOnUse">
<stop stopColor="#FF9252"/>
<stop offset="1" stopColor="#FF3F15"/>
</linearGradient>
<linearGradient id="paint5_linear_2812_3610" x1="22.6667" y1="42.6666" x2="22.6667" y2="48" gradientUnits="userSpaceOnUse">
<stop stopColor="#FF9252"/>
<stop offset="1" stopColor="#FF3F15"/>
</linearGradient>
</defs>
</svg>
