<svg width="88" height="88" viewBox="0 0 88 88" fill="none" xmlns="http://www.w3.org/2000/svg">
<g clipPath="url(#clip0_2812_365)">
<path d="M88 27.4602V60.5398C88 62.9276 86.0655 64.8621 83.6778 64.8621H4.32224C1.93448 64.8621 0 62.9276 0 60.5398V27.4602C0 25.0724 1.93448 23.1379 4.32224 23.1379H83.6778C86.0655 23.1379 88 25.0724 88 27.4602Z" fill="url(#paint0_linear_2812_365)"/>
<path d="M84.9117 23.3167C89.0511 24.5476 88.0444 30.7243 83.7259 30.7243H31.7887C18.422 30.7243 7.58621 41.56 7.58621 54.9267V60.5881C7.58621 64.9067 1.40971 65.9134 0.178655 61.7738C0.0623965 61.383 0 60.9688 0 60.5399V27.4603C0 25.0731 1.93505 23.1371 4.32224 23.138C88.6761 23.1709 83.7697 22.9772 84.9117 23.3167Z" fill="url(#paint1_linear_2812_365)"/>
<path d="M22.4343 50.3934H16.0884V36.0346C16.0884 35.1967 15.4091 34.5173 14.5712 34.5173C13.7333 34.5173 13.054 35.1967 13.054 36.0346V51.9106C13.054 52.7485 13.7333 53.4278 14.5712 53.4278H22.4343C23.2722 53.4278 23.9515 52.7485 23.9515 51.9106C23.9515 51.0727 23.2722 50.3934 22.4343 50.3934Z" fill="white"/>
<path d="M32.6075 34.6653C31.7696 34.6653 31.0902 35.3446 31.0902 36.1825V51.9106C31.0902 52.7485 31.7696 53.4279 32.6075 53.4279C33.4453 53.4279 34.1247 52.7485 34.1247 51.9106V36.1825C34.1247 35.3446 33.4455 34.6653 32.6075 34.6653Z" fill="white"/>
<path d="M54.3157 34.6954C53.5243 34.4174 52.6593 34.8354 52.3826 35.6263L48.2727 47.3724L44.1614 35.6263C43.8845 34.8354 43.0193 34.4184 42.228 34.6954C41.4372 34.9723 41.0205 35.8377 41.2972 36.6286L46.8408 52.4667C47.3138 53.818 49.232 53.818 49.705 52.4667L55.2467 36.6286C55.5234 35.8377 55.1068 34.9722 54.3157 34.6954Z" fill="white"/>
<path d="M73.4288 50.3934H65.45V45.5647H68.6817C69.5196 45.5647 70.199 44.8854 70.199 44.0475C70.199 43.2096 69.5196 42.5303 68.6817 42.5303H65.45V37.5518H73.4288C74.2667 37.5518 74.946 36.8725 74.946 36.0346C74.946 35.1967 74.2667 34.5173 73.4288 34.5173H63.9328C63.0949 34.5173 62.4155 35.1967 62.4155 36.0346V51.9106C62.4155 52.7485 63.0949 53.4278 63.9328 53.4278H73.4288C74.2667 53.4278 74.946 52.7485 74.946 51.9106C74.946 51.0727 74.2667 50.3934 73.4288 50.3934Z" fill="white"/>
<path d="M43.9999 12.8966C43.162 12.8966 42.4827 12.2173 42.4827 11.3794V5.12076C42.4827 4.28286 43.162 3.60352 43.9999 3.60352C44.8378 3.60352 45.5171 4.28286 45.5171 5.12076V11.3794C45.5171 12.2173 44.8378 12.8966 43.9999 12.8966Z" fill="url(#paint2_linear_2812_365)"/>
<path d="M30.3637 15.9747C29.9755 15.9747 29.5871 15.8266 29.2909 15.5303L26.2109 12.4503C25.6182 11.8577 25.6182 10.8972 26.2109 10.3046C26.8033 9.71228 27.7639 9.71228 28.3564 10.3046L31.4364 13.3846C32.3951 14.3433 31.7035 15.9747 30.3637 15.9747Z" fill="url(#paint3_linear_2812_365)"/>
<path d="M57.6362 15.9747C56.2964 15.9747 55.6048 14.3433 56.5633 13.3846L59.6433 10.3046C60.2358 9.71228 61.1964 9.71228 61.7888 10.3046C62.3815 10.8972 62.3815 11.8577 61.7888 12.4503L58.7088 15.5303C58.4128 15.8266 58.0244 15.9747 57.6362 15.9747Z" fill="url(#paint4_linear_2812_365)"/>
<path d="M43.9999 84.3966C43.162 84.3966 42.4827 83.7173 42.4827 82.8794V76.6208C42.4827 75.7829 43.162 75.1035 43.9999 75.1035C44.8378 75.1035 45.5171 75.7829 45.5171 76.6208V82.8794C45.5171 83.7173 44.8378 84.3966 43.9999 84.3966Z" fill="url(#paint5_linear_2812_365)"/>
<path d="M27.2837 78.14C25.944 78.14 25.2523 76.5086 26.2109 75.5499L29.2909 72.4699C29.8833 71.8776 30.8439 71.8776 31.4364 72.4699C32.0291 73.0625 32.0291 74.0229 31.4364 74.6156L28.3564 77.6956C28.0604 77.9919 27.672 78.14 27.2837 78.14Z" fill="url(#paint6_linear_2812_365)"/>
<path d="M60.7162 78.14C60.3279 78.14 59.9395 77.9919 59.6433 77.6956L56.5633 74.6156C55.9706 74.0229 55.9706 73.0625 56.5633 72.4699C57.1558 71.8776 58.1164 71.8776 58.7088 72.4699L61.7888 75.5499C62.7476 76.5084 62.0559 78.14 60.7162 78.14Z" fill="url(#paint7_linear_2812_365)"/>
</g>
<defs>
<linearGradient id="paint0_linear_2812_365" x1="44" y1="23.1379" x2="44" y2="64.8621" gradientUnits="userSpaceOnUse">
<stop stopColor="#FF7F7E"/>
<stop offset="1" stopColor="#FE1F1E"/>
</linearGradient>
<linearGradient id="paint1_linear_2812_365" x1="43.7716" y1="32.6415" x2="43.7716" y2="55.7839" gradientUnits="userSpaceOnUse">
<stop stopColor="white" stopOpacity="0.5"/>
<stop offset="1" stopColor="#999999" stopOpacity="0"/>
</linearGradient>
<linearGradient id="paint2_linear_2812_365" x1="43.9999" y1="5.74808" x2="43.9999" y2="10.9563" gradientUnits="userSpaceOnUse">
<stop stopColor="white" stopOpacity="0.5"/>
<stop offset="1" stopColor="#999999" stopOpacity="0"/>
</linearGradient>
<linearGradient id="paint3_linear_2812_365" x1="28.8245" y1="11.2714" x2="28.8245" y2="14.6981" gradientUnits="userSpaceOnUse">
<stop stopColor="white" stopOpacity="0.5"/>
<stop offset="1" stopColor="#999999" stopOpacity="0"/>
</linearGradient>
<linearGradient id="paint4_linear_2812_365" x1="59.1753" y1="11.2714" x2="59.1753" y2="14.6981" gradientUnits="userSpaceOnUse">
<stop stopColor="white" stopOpacity="0.5"/>
<stop offset="1" stopColor="#999999" stopOpacity="0"/>
</linearGradient>
<linearGradient id="paint5_linear_2812_365" x1="43.9999" y1="77.2481" x2="43.9999" y2="82.4563" gradientUnits="userSpaceOnUse">
<stop stopColor="white" stopOpacity="0.5"/>
<stop offset="1" stopColor="#999999" stopOpacity="0"/>
</linearGradient>
<linearGradient id="paint6_linear_2812_365" x1="28.8229" y1="73.4366" x2="28.8229" y2="76.8634" gradientUnits="userSpaceOnUse">
<stop stopColor="white" stopOpacity="0.5"/>
<stop offset="1" stopColor="#999999" stopOpacity="0"/>
</linearGradient>
<linearGradient id="paint7_linear_2812_365" x1="59.1769" y1="73.4366" x2="59.1769" y2="76.8634" gradientUnits="userSpaceOnUse">
<stop stopColor="white" stopOpacity="0.5"/>
<stop offset="1" stopColor="#999999" stopOpacity="0"/>
</linearGradient>
<clipPath id="clip0_2812_365">
<rect width="88" height="88" fill="white"/>
</clipPath>
</defs>
</svg>
