<svg width="56" height="56" viewBox="0 0 56 56" fill="none" xmlns="http://www.w3.org/2000/svg">
<path fillRule="evenodd" clipRule="evenodd" d="M14.397 43.532C14.9992 42.4914 16.125 41.7906 17.413 41.7906C18.701 41.7906 19.8265 42.4914 20.4291 43.532H50.4973C51.4585 43.532 52.2388 44.3122 52.2388 45.273C52.2388 46.2342 51.4585 47.0145 50.4973 47.0145H20.4291C19.8265 48.055 18.701 48.7559 17.413 48.7559C16.125 48.7559 14.9992 48.055 14.397 47.0145H5.22385C4.26266 47.0145 3.48242 46.2342 3.48242 45.273C3.48242 44.3122 4.26266 43.532 5.22385 43.532H14.397ZM52.2388 12.1887C52.2388 9.30347 49.9002 6.96484 47.0149 6.96484C38.5819 6.96484 17.1397 6.96484 8.7063 6.96484C5.82147 6.96484 3.48242 9.30347 3.48242 12.1887V33.0842C3.48242 35.9691 5.82147 38.3081 8.7063 38.3081H47.0149C49.9002 38.3081 52.2388 35.9691 52.2388 33.0842V12.1887ZM32.388 24.0294C32.8264 23.7005 33.0847 23.1844 33.0847 22.6365C33.0847 22.0882 32.8264 21.5721 32.388 21.2432L25.4227 16.0193C24.8953 15.6235 24.1895 15.56 23.5994 15.8551C23.0093 16.1501 22.6369 16.7527 22.6369 17.4126V27.8604C22.6369 28.5198 23.0093 29.1229 23.5994 29.4175C24.1895 29.7125 24.8953 29.649 25.4227 29.2533L32.388 24.0294Z" fill="#F7F8F8" fillOpacity="0.25"/>
</svg>
