<svg width="64" height="64" viewBox="0 0 64 64" fill="none" xmlns="http://www.w3.org/2000/svg">
<path d="M30 45H27V49H37V45H34H30Z" fill="#58595B"/>
<path d="M27 49H37V53H27V49Z" fill="#6D6E71"/>
<path d="M27 55C27 55.5304 27.2107 56.0391 27.5858 56.4142C27.9609 56.7893 28.4696 57 29 57H35C35.5304 57 36.0391 56.7893 36.4142 56.4142C36.7893 56.0391 37 55.5304 37 55V53H27V55Z" fill="#808285"/>
<path d="M29 58C29 58.7956 29.3161 59.5587 29.8787 60.1213C30.4413 60.6839 31.2044 61 32 61C32.7956 61 33.5587 60.6839 34.1213 60.1213C34.6839 59.5587 35 58.7956 35 58V57H29V58Z" fill="#A7A9AC"/>
<path d="M32.8093 9.01995C29.289 8.84187 25.8084 9.83125 22.9081 11.8344C20.0078 13.8376 17.8502 16.7424 16.7703 20.0977C15.6905 23.4531 15.7488 27.0711 16.9363 30.3898C18.1238 33.7086 20.374 36.5423 23.3373 38.451C24.1619 38.9928 24.8376 39.7325 25.3027 40.6025C25.7679 41.4726 26.0077 42.4454 26.0003 43.432V44C26.0003 44.2652 26.1057 44.5195 26.2932 44.7071C26.4807 44.8946 26.7351 45 27.0003 45H37.0003C37.2655 45 37.5199 44.8946 37.7074 44.7071C37.895 44.5195 38.0003 44.2652 38.0003 44V43.326C38.0147 42.3347 38.2762 41.3627 38.7614 40.4981C39.2465 39.6335 39.9398 38.9037 40.7783 38.375C43.5992 36.5232 45.7624 33.827 46.9587 30.6719C48.155 27.5167 48.3232 24.0641 47.4391 20.8076C46.5551 17.5511 44.6641 14.6574 42.0366 12.5403C39.409 10.4232 36.1793 9.19106 32.8093 9.01995Z" fill="#FFDAAA"/>
<path d="M28.0003 44V43.432C28.0077 42.4454 27.7679 41.4726 27.3027 40.6025C26.8376 39.7325 26.1619 38.9928 25.3373 38.451C22.5073 36.626 20.3252 33.9548 19.1017 30.8175C17.8782 27.6802 17.6758 24.2369 18.5232 20.9779C19.3705 17.7189 21.2246 14.8103 23.8212 12.6663C26.4179 10.5223 29.6248 9.25224 32.9853 9.03695C32.9263 9.03695 32.8683 9.02295 32.8093 9.01995C29.289 8.84187 25.8084 9.83125 22.9081 11.8344C20.0078 13.8376 17.8502 16.7424 16.7703 20.0977C15.6905 23.4531 15.7488 27.0711 16.9363 30.3898C18.1238 33.7086 20.374 36.5423 23.3373 38.451C24.1619 38.9928 24.8376 39.7325 25.3027 40.6025C25.7679 41.4726 26.0077 42.4454 26.0003 43.432V44C26.0003 44.2652 26.1057 44.5195 26.2932 44.7071C26.4807 44.8946 26.7351 45 27.0003 45H29.0003C28.7351 45 28.4807 44.8946 28.2932 44.7071C28.1057 44.5195 28.0003 44.2652 28.0003 44Z" fill="#FFB655"/>
<path d="M32 36C31.329 35.9974 30.6595 35.9338 30 35.81V45H34V35.81C33.3405 35.9338 32.671 35.9974 32 36Z" fill="url(#paint0_linear_2812_3653)"/>
<path d="M32 14C29.8244 14 27.6977 14.6451 25.8887 15.8538C24.0798 17.0625 22.6699 18.7805 21.8373 20.7905C21.0048 22.8005 20.7869 25.0122 21.2114 27.146C21.6358 29.2798 22.6835 31.2398 24.2218 32.7782C25.7602 34.3166 27.7202 35.3642 29.854 35.7886C31.9878 36.2131 34.1995 35.9952 36.2095 35.1627C38.2195 34.3301 39.9375 32.9202 41.1462 31.1113C42.3549 29.3023 43 27.1756 43 25C43 22.0826 41.8411 19.2847 39.7782 17.2218C37.7153 15.1589 34.9174 14 32 14Z" fill="#FF9811"/>
<path d="M31.9999 34C29.6736 34.0103 27.433 33.1234 25.7439 31.5238C24.0549 29.9242 23.0475 27.7351 22.9312 25.4118C22.815 23.0884 23.5989 20.8097 25.1198 19.0495C26.6408 17.2893 28.7818 16.1833 31.0974 15.9613C33.4131 15.7394 35.7251 16.4186 37.5528 17.8578C39.3804 19.297 40.5828 21.3854 40.9101 23.6885C41.2373 25.9917 40.664 28.3323 39.3096 30.2236C37.9551 32.1148 35.9237 33.4112 33.6379 33.843C33.0978 33.9455 32.5495 33.998 31.9999 34Z" fill="#FFA733"/>
<path d="M27.9998 29C27.7346 28.9999 27.4803 28.8945 27.2928 28.707L24.2928 25.707C24.1053 25.5195 24 25.2651 24 25C24 24.7348 24.1053 24.4805 24.2928 24.293L27.2928 21.293C27.4814 21.1108 27.734 21.01 27.9962 21.0123C28.2584 21.0146 28.5092 21.1198 28.6946 21.3052C28.88 21.4906 28.9852 21.7414 28.9875 22.0036C28.9897 22.2658 28.8889 22.5184 28.7068 22.707L26.4138 25L28.7068 27.293C28.8466 27.4328 28.9418 27.611 28.9804 27.8049C29.0189 27.9989 28.9991 28.1999 28.9235 28.3826C28.8478 28.5653 28.7197 28.7215 28.5552 28.8314C28.3908 28.9413 28.1975 28.9999 27.9998 29Z" fill="#F1F2F2"/>
<path d="M35.9998 29C35.802 28.9999 35.6087 28.9413 35.4443 28.8314C35.2799 28.7215 35.1518 28.5653 35.0761 28.3826C35.0004 28.1999 34.9806 27.9989 35.0192 27.8049C35.0578 27.611 35.153 27.4328 35.2928 27.293L37.5858 25L35.2928 22.707C35.1106 22.5184 35.0098 22.2658 35.0121 22.0036C35.0144 21.7414 35.1196 21.4906 35.305 21.3052C35.4904 21.1198 35.7412 21.0146 36.0034 21.0123C36.2656 21.01 36.5182 21.1108 36.7068 21.293L39.7068 24.293C39.8943 24.4805 39.9996 24.7348 39.9996 25C39.9996 25.2651 39.8943 25.5195 39.7068 25.707L36.7068 28.707C36.5193 28.8945 36.265 28.9999 35.9998 29Z" fill="#F1F2F2"/>
<path d="M31 30C30.9177 30.0003 30.8357 29.9902 30.756 29.97C30.4987 29.9055 30.2776 29.7415 30.1413 29.514C30.0049 29.2866 29.9646 29.0142 30.029 28.757L32.029 20.757C32.095 20.5014 32.2593 20.2822 32.4862 20.1473C32.7132 20.0124 32.9842 19.9727 33.2403 20.0369C33.4963 20.101 33.7166 20.2638 33.8532 20.4898C33.9897 20.7157 34.0313 20.9865 33.969 21.243L31.969 29.243C31.9149 29.4591 31.7901 29.6509 31.6146 29.788C31.4391 29.9251 31.2228 29.9997 31 30Z" fill="#F1F2F2"/>
<path d="M32 6C31.7348 6 31.4804 5.89464 31.2929 5.70711C31.1054 5.51957 31 5.26522 31 5V3C31 2.73478 31.1054 2.48043 31.2929 2.29289C31.4804 2.10536 31.7348 2 32 2C32.2652 2 32.5196 2.10536 32.7071 2.29289C32.8946 2.48043 33 2.73478 33 3V5C33 5.26522 32.8946 5.51957 32.7071 5.70711C32.5196 5.89464 32.2652 6 32 6Z" fill="url(#paint1_linear_2812_3653)"/>
<path d="M21.9996 8.68002C21.8239 8.68019 21.6513 8.63406 21.4991 8.54629C21.3469 8.45851 21.2205 8.33218 21.1326 8.18002L20.1326 6.44702C20.0021 6.21746 19.9677 5.94559 20.0369 5.69075C20.1061 5.43591 20.2733 5.21878 20.5019 5.08674C20.7306 4.95471 21.0023 4.91848 21.2576 4.98598C21.5129 5.05348 21.7311 5.21921 21.8646 5.44702L22.8646 7.18002C22.9524 7.33196 22.9986 7.50431 22.9986 7.67976C22.9987 7.85521 22.9525 8.02758 22.8649 8.17957C22.7772 8.33156 22.6512 8.45782 22.4993 8.54566C22.3474 8.6335 22.1751 8.67984 21.9996 8.68002Z" fill="url(#paint2_linear_2812_3653)"/>
<path d="M14.6794 16C14.5038 16.0004 14.3313 15.9541 14.1794 15.866L12.4464 14.866C12.2186 14.7324 12.0529 14.5142 11.9854 14.2589C11.9179 14.0036 11.9541 13.732 12.0861 13.5033C12.2182 13.2746 12.4353 13.1074 12.6901 13.0382C12.945 12.969 13.2168 13.0035 13.4464 13.134L15.1794 14.134C15.37 14.2441 15.519 14.414 15.6033 14.6173C15.6875 14.8207 15.7023 15.0462 15.6453 15.2588C15.5883 15.4714 15.4628 15.6593 15.2881 15.7933C15.1135 15.9273 14.8995 16 14.6794 16Z" fill="url(#paint3_linear_2812_3653)"/>
<path d="M12 26H10C9.73478 26 9.48043 25.8946 9.29289 25.7071C9.10536 25.5196 9 25.2652 9 25C9 24.7348 9.10536 24.4804 9.29289 24.2929C9.48043 24.1054 9.73478 24 10 24H12C12.2652 24 12.5196 24.1054 12.7071 24.2929C12.8946 24.4804 13 24.7348 13 25C13 25.2652 12.8946 25.5196 12.7071 25.7071C12.5196 25.8946 12.2652 26 12 26Z" fill="url(#paint4_linear_2812_3653)"/>
<path d="M12.9482 37C12.7281 37 12.5141 36.9274 12.3395 36.7934C12.1648 36.6594 12.0393 36.4715 11.9823 36.2588C11.9253 36.0462 11.9401 35.8207 12.0244 35.6174C12.1086 35.414 12.2576 35.2441 12.4482 35.134L14.1812 34.134C14.295 34.0673 14.4208 34.0238 14.5515 34.0059C14.6821 33.9881 14.815 33.9962 14.9425 34.0299C15.07 34.0636 15.1896 34.1222 15.2944 34.2023C15.3991 34.2824 15.487 34.3825 15.553 34.4967C15.6189 34.6109 15.6616 34.737 15.6786 34.8678C15.6956 34.9986 15.6866 35.1314 15.652 35.2587C15.6175 35.386 15.5581 35.5052 15.4773 35.6094C15.3965 35.7136 15.2958 35.8008 15.1812 35.866L13.4482 36.866C13.2963 36.9542 13.1238 37.0004 12.9482 37Z" fill="url(#paint5_linear_2812_3653)"/>
<path d="M21 45.053C20.8245 45.0528 20.6522 45.0065 20.5003 44.9186C20.3484 44.8308 20.2223 44.7045 20.1347 44.5526C20.047 44.4006 20.0009 44.2282 20.001 44.0527C20.001 43.8773 20.0472 43.7049 20.135 43.553L21.135 41.82C21.2685 41.5922 21.4867 41.4265 21.742 41.359C21.9973 41.2915 22.269 41.3277 22.4976 41.4597C22.7263 41.5918 22.8935 41.8089 22.9627 42.0637C23.0319 42.3186 22.9975 42.5904 22.867 42.82L21.867 44.553C21.7791 44.7052 21.6527 44.8315 21.5005 44.9193C21.3483 45.007 21.1757 45.0532 21 45.053Z" fill="url(#paint6_linear_2812_3653)"/>
<path d="M43.0004 45.053C42.8247 45.0531 42.6521 45.007 42.4999 44.9192C42.3477 44.8314 42.2213 44.7051 42.1334 44.553L41.1334 42.82C41.0667 42.7062 41.0232 42.5803 41.0053 42.4497C40.9874 42.319 40.9956 42.1861 41.0293 42.0586C41.063 41.9311 41.1216 41.8115 41.2017 41.7068C41.2818 41.602 41.3819 41.5141 41.4961 41.4482C41.6103 41.3822 41.7364 41.3395 41.8672 41.3226C41.998 41.3056 42.1308 41.3146 42.2581 41.3491C42.3854 41.3837 42.5046 41.4431 42.6088 41.5239C42.713 41.6047 42.8002 41.7053 42.8654 41.82L43.8654 43.553C43.9531 43.7049 43.9993 43.8772 43.9994 44.0527C43.9994 44.2281 43.9533 44.4005 43.8657 44.5525C43.778 44.7045 43.6519 44.8308 43.5001 44.9186C43.3482 45.0064 43.1759 45.0528 43.0004 45.053Z" fill="url(#paint7_linear_2812_3653)"/>
<path d="M51.0522 37C50.8766 37.0004 50.7041 36.9542 50.5522 36.866L48.8192 35.866C48.7046 35.8008 48.604 35.7136 48.5232 35.6094C48.4424 35.5052 48.383 35.386 48.3484 35.2587C48.3139 35.1314 48.3048 34.9986 48.3218 34.8678C48.3388 34.737 48.3815 34.6109 48.4475 34.4967C48.5134 34.3825 48.6013 34.2824 48.706 34.2023C48.8108 34.1222 48.9304 34.0636 49.0579 34.0299C49.1854 33.9962 49.3183 33.9881 49.4489 34.0059C49.5796 34.0238 49.7054 34.0673 49.8192 34.134L51.5522 35.134C51.7428 35.2441 51.8918 35.414 51.9761 35.6174C52.0603 35.8207 52.0751 36.0462 52.0181 36.2588C51.9611 36.4715 51.8356 36.6594 51.661 36.7934C51.4863 36.9274 51.2723 37 51.0522 37Z" fill="url(#paint8_linear_2812_3653)"/>
<path d="M54 26H52C51.7348 26 51.4804 25.8946 51.2929 25.7071C51.1054 25.5196 51 25.2652 51 25C51 24.7348 51.1054 24.4804 51.2929 24.2929C51.4804 24.1054 51.7348 24 52 24H54C54.2652 24 54.5196 24.1054 54.7071 24.2929C54.8946 24.4804 55 24.7348 55 25C55 25.2652 54.8946 25.5196 54.7071 25.7071C54.5196 25.8946 54.2652 26 54 26Z" fill="url(#paint9_linear_2812_3653)"/>
<path d="M49.3212 16C49.1011 16 48.8871 15.9273 48.7125 15.7933C48.5379 15.6593 48.4123 15.4714 48.3554 15.2588C48.2984 15.0462 48.3132 14.8207 48.3974 14.6173C48.4816 14.414 48.6306 14.2441 48.8212 14.134L50.5542 13.134C50.7838 13.0035 51.0557 12.969 51.3105 13.0382C51.5654 13.1074 51.7825 13.2746 51.9145 13.5033C52.0466 13.732 52.0828 14.0036 52.0153 14.2589C51.9478 14.5142 51.7821 14.7324 51.5542 14.866L49.8212 15.866C49.6694 15.9541 49.4968 16.0004 49.3212 16Z" fill="url(#paint10_linear_2812_3653)"/>
<path d="M42 8.68002C41.8245 8.67984 41.6522 8.6335 41.5003 8.54566C41.3484 8.45782 41.2223 8.33156 41.1347 8.17957C41.047 8.02758 41.0009 7.85521 41.001 7.67976C41.001 7.50431 41.0472 7.33196 41.1349 7.18002L42.1349 5.44702C42.2685 5.21921 42.4867 5.05348 42.742 4.98598C42.9973 4.91848 43.269 4.95471 43.4976 5.08674C43.7263 5.21878 43.8935 5.43591 43.9627 5.69075C44.0319 5.94559 43.9975 6.21746 43.867 6.44702L42.867 8.18002C42.7791 8.33218 42.6527 8.45851 42.5005 8.54629C42.3483 8.63406 42.1757 8.68019 42 8.68002Z" fill="url(#paint11_linear_2812_3653)"/>
<defs>
<linearGradient id="paint0_linear_2812_3653" x1="32" y1="35.81" x2="32" y2="45" gradientUnits="userSpaceOnUse">
<stop stopColor="#FF7F7E"/>
<stop offset="1" stopColor="#FE1F1E"/>
</linearGradient>
<linearGradient id="paint1_linear_2812_3653" x1="32" y1="2" x2="32" y2="6" gradientUnits="userSpaceOnUse">
<stop stopColor="#FF7F7E"/>
<stop offset="1" stopColor="#FE1F1E"/>
</linearGradient>
<linearGradient id="paint2_linear_2812_3653" x1="21.5003" y1="4.95276" x2="21.5003" y2="8.68002" gradientUnits="userSpaceOnUse">
<stop stopColor="#FF7F7E"/>
<stop offset="1" stopColor="#FE1F1E"/>
</linearGradient>
<linearGradient id="paint3_linear_2812_3653" x1="13.8158" y1="13.0033" x2="13.8158" y2="16" gradientUnits="userSpaceOnUse">
<stop stopColor="#FF7F7E"/>
<stop offset="1" stopColor="#FE1F1E"/>
</linearGradient>
<linearGradient id="paint4_linear_2812_3653" x1="11" y1="24" x2="11" y2="26" gradientUnits="userSpaceOnUse">
<stop stopColor="#FF7F7E"/>
<stop offset="1" stopColor="#FE1F1E"/>
</linearGradient>
<linearGradient id="paint5_linear_2812_3653" x1="13.8176" y1="33.9967" x2="13.8176" y2="37" gradientUnits="userSpaceOnUse">
<stop stopColor="#FF7F7E"/>
<stop offset="1" stopColor="#FE1F1E"/>
</linearGradient>
<linearGradient id="paint6_linear_2812_3653" x1="21.4993" y1="41.3257" x2="21.4993" y2="45.053" gradientUnits="userSpaceOnUse">
<stop stopColor="#FF7F7E"/>
<stop offset="1" stopColor="#FE1F1E"/>
</linearGradient>
<linearGradient id="paint7_linear_2812_3653" x1="42.4977" y1="41.3142" x2="42.4977" y2="45.053" gradientUnits="userSpaceOnUse">
<stop stopColor="#FF7F7E"/>
<stop offset="1" stopColor="#FE1F1E"/>
</linearGradient>
<linearGradient id="paint8_linear_2812_3653" x1="50.1828" y1="33.9967" x2="50.1828" y2="37" gradientUnits="userSpaceOnUse">
<stop stopColor="#FF7F7E"/>
<stop offset="1" stopColor="#FE1F1E"/>
</linearGradient>
<linearGradient id="paint9_linear_2812_3653" x1="53" y1="24" x2="53" y2="26" gradientUnits="userSpaceOnUse">
<stop stopColor="#FF7F7E"/>
<stop offset="1" stopColor="#FE1F1E"/>
</linearGradient>
<linearGradient id="paint10_linear_2812_3653" x1="50.1849" y1="13.0033" x2="50.1849" y2="16" gradientUnits="userSpaceOnUse">
<stop stopColor="#FF7F7E"/>
<stop offset="1" stopColor="#FE1F1E"/>
</linearGradient>
<linearGradient id="paint11_linear_2812_3653" x1="42.4993" y1="4.95276" x2="42.4993" y2="8.68002" gradientUnits="userSpaceOnUse">
<stop stopColor="#FF7F7E"/>
<stop offset="1" stopColor="#FE1F1E"/>
</linearGradient>
</defs>
</svg>
