<svg width="62" height="64" viewBox="0 0 62 64" fill="none" xmlns="http://www.w3.org/2000/svg">
<path fillRule="evenodd" clipRule="evenodd" d="M35.3218 10.9442H14.7168C13.4578 10.9442 12.4258 11.9753 12.4258 13.2331V28.1041C12.4258 29.362 13.4578 30.3895 14.7168 30.3895H35.3218C36.5808 30.3895 37.6128 29.362 37.6128 28.1041V24.4793V16.8543V13.2331C37.6128 11.9753 36.5808 10.9442 35.3218 10.9442Z" fill="#F7F8F8"/>
<path fillRule="evenodd" clipRule="evenodd" d="M46.8828 13.1446L37.6123 16.8544V24.4794L46.8828 28.1891C49.0249 29.0466 49.5746 28.469 49.5746 26.7683V14.5689C49.5747 12.8648 49.0284 12.2873 46.8828 13.1446Z" fill="#F7F8F8"/>
<path fillRule="evenodd" clipRule="evenodd" d="M52.9686 1.25H9.03487C5.19762 1.25 2.0625 4.38225 2.0625 8.216V40.0875H58.5863H59.9375V8.216C59.9375 4.38225 56.8024 1.25 52.9686 1.25ZM37.6124 16.8544L46.8829 13.1446C49.0285 12.2871 49.5746 12.8647 49.5746 14.569V26.7684C49.5746 28.4691 49.0249 29.0466 46.8829 28.1893L37.6124 24.4795V28.1042C37.6124 29.3621 36.5804 30.3896 35.3214 30.3896H14.7164C13.4574 30.3896 12.4254 29.3621 12.4254 28.1042V13.2332C12.4254 11.9754 13.4574 10.9444 14.7164 10.9444H35.3214C36.5804 10.9444 37.6124 11.9755 37.6124 13.2332V16.8544Z" fill="url(#paint0_linear_2812_3626)"/>
<path fillRule="evenodd" clipRule="evenodd" d="M58.5863 40.0875H2.0625V55.784C2.0625 59.6143 5.19762 62.75 9.03487 62.75H52.9686C56.8024 62.75 59.9375 59.6143 59.9375 55.784V40.0875H58.5863ZM9.51013 51.4188C9.51013 49.6436 10.95 48.2086 12.7233 48.2086C14.4965 48.2086 15.9329 49.6436 15.9329 51.4188C15.9329 53.1904 14.4965 54.6254 12.7233 54.6254C10.95 54.6254 9.51013 53.1904 9.51013 51.4188Z" fill="url(#paint1_linear_2812_3626)"/>
<path fillRule="evenodd" clipRule="evenodd" d="M12.7229 48.2085C10.9496 48.2085 9.50977 49.6435 9.50977 51.4186C9.50977 53.1902 10.9496 54.6252 12.7229 54.6252C14.4961 54.6252 15.9325 53.1902 15.9325 51.4186C15.9324 49.6435 14.4961 48.2085 12.7229 48.2085Z" fill="#F7F8F8"/>
<path fillRule="evenodd" clipRule="evenodd" d="M21.2131 48.2085C19.4399 48.2085 18 49.6435 18 51.4186C18 53.1902 19.4399 54.6252 21.2131 54.6252C22.9864 54.6252 24.4227 53.1902 24.4227 51.4186C24.4226 49.6435 22.9864 48.2085 21.2131 48.2085Z" fill="#F7F8F8"/>
<path fillRule="evenodd" clipRule="evenodd" d="M29.7034 48.2085C27.9301 48.2085 26.4902 49.6435 26.4902 51.4186C26.4902 53.1902 27.9301 54.6252 29.7034 54.6252C31.4766 54.6252 32.913 53.1902 32.913 51.4186C32.9129 49.6435 31.4766 48.2085 29.7034 48.2085Z" fill="#F7F8F8"/>
<defs>
<linearGradient id="paint0_linear_2812_3626" x1="31" y1="1.25" x2="31" y2="40.0875" gradientUnits="userSpaceOnUse">
<stop stopColor="#CF65F4"/>
<stop offset="1" stopColor="#952CB9" stopOpacity="0"/>
</linearGradient>
<linearGradient id="paint1_linear_2812_3626" x1="31" y1="40.0875" x2="31" y2="62.75" gradientUnits="userSpaceOnUse">
<stop stopColor="#FF7F7E"/>
<stop offset="1" stopColor="#FE1F1E"/>
</linearGradient>
</defs>
</svg>
