<svg width="64" height="64" viewBox="0 0 64 64" fill="none" xmlns="http://www.w3.org/2000/svg">
<g clipPath="url(#clip0_2812_3682)">
<path d="M32 64C49.6731 64 64 49.6731 64 32C64 14.3269 49.6731 0 32 0C14.3269 0 0 14.3269 0 32C0 49.6731 14.3269 64 32 64Z" fill="url(#paint0_linear_2812_3682)"/>
<path d="M31.9996 0C31.4284 0 30.8608 0.015625 30.2969 0.045125C47.1784 0.930375 60.5942 14.8981 60.5942 32C60.5942 49.1019 47.1784 63.0696 30.2969 63.9549C30.8608 63.9844 31.4284 64 31.9996 64C49.6727 64 63.9996 49.6731 63.9996 32C63.9996 14.3269 49.6727 0 31.9996 0Z" fill="url(#paint1_linear_2812_3682)"/>
<path d="M32.0003 56.9358C45.772 56.9358 56.9362 45.7717 56.9362 32C56.9362 18.2283 45.772 7.06409 32.0003 7.06409C18.2286 7.06409 7.06445 18.2283 7.06445 32C7.06445 45.7717 18.2286 56.9358 32.0003 56.9358Z" fill="#F4FBFF"/>
<path d="M31.9998 7.06415C31.3092 7.06415 30.6256 7.09352 29.9492 7.14852C42.7616 8.19152 52.8346 18.9189 52.8346 32C52.8346 45.0811 42.7616 55.8084 29.9492 56.8515C30.6256 56.9067 31.3092 56.936 31.9998 56.936C45.7716 56.936 56.9357 45.7718 56.9357 32.0001C56.9357 18.2285 45.7716 7.06415 31.9998 7.06415Z" fill="#DAF1F4"/>
<path d="M31.9999 14.7389C31.4666 14.7389 31.0342 14.3065 31.0342 13.7731V12.3556C31.0342 11.8223 31.4666 11.3899 31.9999 11.3899C32.5333 11.3899 32.9658 11.8223 32.9658 12.3556V13.7731C32.9658 14.3065 32.5333 14.7389 31.9999 14.7389Z" fill="url(#paint2_linear_2812_3682)"/>
<path d="M44.8359 20.0993C44.5887 20.0993 44.3416 20.0049 44.1529 19.8164C43.7758 19.4392 43.7758 18.8278 44.1531 18.4505L45.1554 17.4483C45.5326 17.071 46.1441 17.0712 46.5213 17.4483C46.8984 17.8255 46.8984 18.4369 46.5212 18.8142L45.5188 19.8165C45.3302 20.0049 45.0831 20.0993 44.8359 20.0993Z" fill="url(#paint3_linear_2812_3682)"/>
<path d="M51.5395 32.9659H50.122C49.5885 32.9659 49.1562 32.5335 49.1562 32.0001C49.1562 31.4667 49.5886 31.0344 50.122 31.0344H51.5395C52.073 31.0344 52.5052 31.4667 52.5052 32.0001C52.5052 32.5335 52.0729 32.9659 51.5395 32.9659Z" fill="url(#paint4_linear_2812_3682)"/>
<path d="M45.764 46.8041C45.5169 46.8041 45.2696 46.7097 45.081 46.5212L44.0787 45.519C43.7016 45.1417 43.7016 44.5304 44.0787 44.153C44.456 43.776 45.0674 43.776 45.4447 44.153L46.447 45.1552C46.8241 45.5325 46.8241 46.1439 46.447 46.5212C46.2584 46.7097 46.0111 46.8041 45.764 46.8041Z" fill="url(#paint5_linear_2812_3682)"/>
<path d="M31.8945 52.5054C31.3611 52.5054 30.9287 52.073 30.9287 51.5396V50.1221C30.9287 49.5886 31.3611 49.1564 31.8945 49.1564C32.4278 49.1564 32.8602 49.5887 32.8602 50.1221V51.5396C32.8602 52.073 32.4278 52.5054 31.8945 52.5054Z" fill="url(#paint6_linear_2812_3682)"/>
<path d="M18.0566 46.7296C17.8095 46.7296 17.5622 46.6352 17.3737 46.4466C16.9965 46.0695 16.9966 45.458 17.3737 45.0807L18.3761 44.0785C18.7533 43.7015 19.3647 43.7014 19.742 44.0786C20.1191 44.4557 20.1191 45.0672 19.7418 45.4445L18.7395 46.4467C18.551 46.6354 18.3037 46.7296 18.0566 46.7296Z" fill="url(#paint7_linear_2812_3682)"/>
<path d="M13.7729 32.8608H12.3554C11.822 32.8608 11.3896 32.4284 11.3896 31.895C11.3896 31.3616 11.822 30.9293 12.3554 30.9293H13.7729C14.3063 30.9293 14.7386 31.3616 14.7386 31.895C14.7388 32.4284 14.3063 32.8608 13.7729 32.8608Z" fill="url(#paint8_linear_2812_3682)"/>
<path d="M19.1332 20.0249C18.8861 20.0249 18.6389 19.9307 18.4503 19.742L17.4479 18.7398C17.0708 18.3625 17.0707 17.7512 17.4478 17.3739C17.8251 16.9968 18.4364 16.9967 18.8137 17.3738L19.8161 18.3762C20.1932 18.7533 20.1933 19.3648 19.8162 19.742C19.6274 19.9305 19.3803 20.0249 19.1332 20.0249Z" fill="url(#paint9_linear_2812_3682)"/>
<path d="M32.0003 32.9659H23.7978C23.2644 32.9659 22.832 32.5334 22.832 32C22.832 31.4666 23.2644 31.0342 23.7978 31.0342H31.0344V18.7471C31.0344 18.2137 31.4668 17.7814 32.0002 17.7814C32.5335 17.7814 32.9659 18.2137 32.9659 18.7471V32C32.966 32.5334 32.5337 32.9659 32.0003 32.9659Z" fill="url(#paint10_linear_2812_3682)"/>
<path d="M41.9084 38.0614C41.7596 38.0614 41.6089 38.0269 41.4675 37.9543L31.5585 32.8588C31.0841 32.6149 30.8974 32.0326 31.1413 31.5583C31.3851 31.0839 31.9674 30.897 32.4419 31.141L42.3509 36.2364C42.8253 36.4804 43.0121 37.0626 42.7681 37.5369C42.5968 37.87 42.2588 38.0614 41.9084 38.0614Z" fill="url(#paint11_linear_2812_3682)"/>
<path d="M31.9996 34.5777C33.4233 34.5777 34.5774 33.4236 34.5774 32C34.5774 30.5763 33.4233 29.4222 31.9996 29.4222C30.576 29.4222 29.4219 30.5763 29.4219 32C29.4219 33.4236 30.576 34.5777 31.9996 34.5777Z" fill="url(#paint12_linear_2812_3682)"/>
</g>
<defs>
<linearGradient id="paint0_linear_2812_3682" x1="32" y1="0" x2="32" y2="64" gradientUnits="userSpaceOnUse">
<stop stopColor="#FFCF53"/>
<stop offset="1" stopColor="#FF9900"/>
</linearGradient>
<linearGradient id="paint1_linear_2812_3682" x1="47.1483" y1="0" x2="47.1483" y2="64" gradientUnits="userSpaceOnUse">
<stop stopColor="#FF7F7E"/>
<stop offset="1" stopColor="#FE1F1E"/>
</linearGradient>
<linearGradient id="paint2_linear_2812_3682" x1="32" y1="11.3899" x2="32" y2="14.7389" gradientUnits="userSpaceOnUse">
<stop stopColor="#747474"/>
<stop offset="1" stopColor="#1F1F1F"/>
</linearGradient>
<linearGradient id="paint3_linear_2812_3682" x1="45.3371" y1="17.1654" x2="45.3371" y2="20.0993" gradientUnits="userSpaceOnUse">
<stop stopColor="#747474"/>
<stop offset="1" stopColor="#1F1F1F"/>
</linearGradient>
<linearGradient id="paint4_linear_2812_3682" x1="50.8307" y1="31.0344" x2="50.8307" y2="32.9659" gradientUnits="userSpaceOnUse">
<stop stopColor="#747474"/>
<stop offset="1" stopColor="#1F1F1F"/>
</linearGradient>
<linearGradient id="paint5_linear_2812_3682" x1="45.2629" y1="43.8702" x2="45.2629" y2="46.8041" gradientUnits="userSpaceOnUse">
<stop stopColor="#747474"/>
<stop offset="1" stopColor="#1F1F1F"/>
</linearGradient>
<linearGradient id="paint6_linear_2812_3682" x1="31.8945" y1="49.1564" x2="31.8945" y2="52.5054" gradientUnits="userSpaceOnUse">
<stop stopColor="#747474"/>
<stop offset="1" stopColor="#1F1F1F"/>
</linearGradient>
<linearGradient id="paint7_linear_2812_3682" x1="18.5578" y1="43.7957" x2="18.5578" y2="46.7296" gradientUnits="userSpaceOnUse">
<stop stopColor="#747474"/>
<stop offset="1" stopColor="#1F1F1F"/>
</linearGradient>
<linearGradient id="paint8_linear_2812_3682" x1="13.0641" y1="30.9293" x2="13.0641" y2="32.8608" gradientUnits="userSpaceOnUse">
<stop stopColor="#747474"/>
<stop offset="1" stopColor="#1F1F1F"/>
</linearGradient>
<linearGradient id="paint9_linear_2812_3682" x1="18.632" y1="17.091" x2="18.632" y2="20.0249" gradientUnits="userSpaceOnUse">
<stop stopColor="#747474"/>
<stop offset="1" stopColor="#1F1F1F"/>
</linearGradient>
<linearGradient id="paint10_linear_2812_3682" x1="27.899" y1="17.7814" x2="27.899" y2="32.9659" gradientUnits="userSpaceOnUse">
<stop stopColor="#747474"/>
<stop offset="1" stopColor="#1F1F1F"/>
</linearGradient>
<linearGradient id="paint11_linear_2812_3682" x1="36.9547" y1="31.0339" x2="36.9547" y2="38.0614" gradientUnits="userSpaceOnUse">
<stop stopColor="#FF7F7E"/>
<stop offset="1" stopColor="#FE1F1E"/>
</linearGradient>
<linearGradient id="paint12_linear_2812_3682" x1="31.9996" y1="29.4222" x2="31.9996" y2="34.5777" gradientUnits="userSpaceOnUse">
<stop stopColor="#747474"/>
<stop offset="1" stopColor="#1F1F1F"/>
</linearGradient>
<clipPath id="clip0_2812_3682">
<rect width="64" height="64" fill="white"/>
</clipPath>
</defs>
</svg>
