<svg width="36" height="37" viewBox="0 0 36 37" fill="none" xmlns="http://www.w3.org/2000/svg">
<g clipPath="url(#clip0_2812_3503)">
<path d="M18 36.2734C27.9411 36.2734 36 28.2146 36 18.2734C36 8.33231 27.9411 0.273438 18 0.273438C8.05888 0.273438 0 8.33231 0 18.2734C0 28.2146 8.05888 36.2734 18 36.2734Z" fill="#FF0000"/>
<path d="M20.4965 18.2799L15.5039 21.1765V15.3691L20.4965 18.2799Z" fill="url(#paint0_linear_2812_3503)"/>
<path d="M35.6567 21.7831C34.9623 25.2681 33.2528 28.47 30.7432 30.9859C28.2336 33.5018 25.0361 35.2193 21.5528 35.9226L9.92383 24.2936C10.551 24.7825 11.3241 25.0469 12.1194 25.0444H23.8999C24.849 25.0419 25.7584 24.6629 26.4285 23.9907C27.0985 23.3184 27.4745 22.4078 27.4738 21.4586V15.0876C27.4767 14.1549 27.1145 13.2581 26.4649 12.5889L35.6567 21.7831Z" fill="url(#paint1_linear_2812_3503)"/>
<path d="M23.8903 11.502H12.1098C11.639 11.502 11.1728 11.5947 10.7379 11.775C10.303 11.9552 9.90787 12.2193 9.57509 12.5524C9.24231 12.8854 8.9784 13.2807 8.79846 13.7157C8.61851 14.1507 8.52606 14.617 8.52637 15.0877V21.4588C8.52606 21.9296 8.61851 22.3958 8.79846 22.8308C8.9784 23.2659 9.24231 23.6612 9.57509 23.9942C9.90787 24.3272 10.303 24.5914 10.7379 24.7716C11.1728 24.9518 11.639 25.0446 12.1098 25.0446H23.8903C24.3611 25.0446 24.8273 24.9518 25.2622 24.7716C25.6971 24.5914 26.0922 24.3272 26.425 23.9942C26.7578 23.6612 27.0217 23.2659 27.2016 22.8308C27.3816 22.3958 27.474 21.9296 27.4737 21.4588V15.0877C27.474 14.617 27.3816 14.1507 27.2016 13.7157C27.0217 13.2807 26.7578 12.8854 26.425 12.5524C26.0922 12.2193 25.6971 11.9552 25.2622 11.775C24.8273 11.5947 24.3611 11.502 23.8903 11.502ZM15.5037 21.177V15.3696L20.4964 18.2733L15.5037 21.177Z" fill="white"/>
</g>
<defs>
<linearGradient id="paint0_linear_2812_3503" x1="14.5731" y1="16.2999" x2="18.5236" y2="20.2528" gradientUnits="userSpaceOnUse">
<stop stopColor="#B71C1C"/>
<stop offset="1" stopColor="#B71C1C" stopOpacity="0"/>
</linearGradient>
<linearGradient id="paint1_linear_2812_3503" x1="16.977" y1="17.231" x2="30.7375" y2="30.9891" gradientUnits="userSpaceOnUse">
<stop stopColor="#B71C1C"/>
<stop offset="1" stopColor="#B71C1C" stopOpacity="0"/>
</linearGradient>
<clipPath id="clip0_2812_3503">
<rect width="36" height="36" fill="white" transform="translate(0 0.273438)"/>
</clipPath>
</defs>
</svg>
